<svg width="44" height="44" viewBox="0 0 44 44" fill="none" xmlns="http://www.w3.org/2000/svg"><circle cx="22" cy="22" r="22" fill="#53C2BB"/><path d="M16.319 12.006 11.753 12c-.432.048-.767.388-.753.822.059 1.783.743 7.07 5.925 12.252 5.182 5.182 10.47 5.867 12.253 5.926.434.014.774-.32.822-.753l-.006-4.566a.929.929 0 0 0-.462-.909L26.079 22.8a.929.929 0 0 0-1.118.15l-1.445 1.445c-.22.22-.534.313-.824.203-.626-.238-1.808-.82-3.14-2.15-1.33-1.332-1.912-2.514-2.15-3.14-.11-.29-.016-.605.203-.824l1.445-1.445a.929.929 0 0 0 .15-1.118l-1.972-3.453a.929.929 0 0 0-.91-.462Z" stroke="#fff" stroke-width="2"/></svg>