<svg width="44" height="44" viewBox="0 0 44 44" fill="none" xmlns="http://www.w3.org/2000/svg"><g clip-path="url(#a)"><path d="M22 44c12.15 0 22-9.85 22-22S34.15 0 22 0 0 9.85 0 22s9.85 22 22 22Z" fill="#53C2BB"/><path d="M35.04 21.664c0 7.017-5.731 12.705-12.803 12.705-2.245 0-4.354-.574-6.19-1.58L8.96 35.04l2.31-6.816a12.567 12.567 0 0 1-1.837-6.56c0-7.016 5.732-12.705 12.803-12.705 7.073 0 12.804 5.688 12.804 12.704ZM22.237 10.983c-5.936 0-10.764 4.792-10.764 10.681 0 2.337.762 4.502 2.05 6.263l-1.345 3.967 4.137-1.315a10.76 10.76 0 0 0 5.922 1.767c5.935 0 10.764-4.791 10.764-10.68 0-5.89-4.828-10.683-10.764-10.683Zm6.465 13.607c-.079-.13-.288-.208-.602-.363s-1.857-.91-2.144-1.013c-.288-.103-.498-.156-.707.156-.209.311-.81 1.012-.994 1.22-.183.209-.367.235-.68.08-.314-.156-1.325-.486-2.524-1.547-.932-.825-1.563-1.844-1.746-2.155-.183-.312-.019-.48.138-.636.141-.14.314-.363.471-.545.158-.181.21-.311.314-.52.105-.207.052-.389-.026-.545-.078-.155-.707-1.688-.968-2.311-.262-.624-.523-.52-.707-.52-.183 0-.392-.026-.601-.026-.21 0-.55.078-.838.39-.287.311-1.098 1.065-1.098 2.597s1.125 3.012 1.282 3.22c.157.208 2.17 3.454 5.361 4.701 3.19 1.247 3.19.83 3.766.779.575-.052 1.857-.753 2.12-1.48.261-.729.261-1.352.183-1.482Z" fill="#fff"/></g><defs><clipPath id="a"><path fill="#fff" d="M0 0h44v44H0z"/></clipPath></defs></svg>