<svg width="44" height="44" viewBox="0 0 44 44" fill="none" xmlns="http://www.w3.org/2000/svg"><circle cx="22" cy="22" r="22" fill="#53C2BB"/><path fill-rule="evenodd" clip-rule="evenodd" d="m36.008 14.62-.01-.035c-.708-2.862-3.897-5.93-6.827-6.568l-.034-.006a37.96 37.96 0 0 0-14.28 0l-.033.006c-2.93.638-6.12 3.709-6.829 6.568l-.006.034a27.946 27.946 0 0 0 0 12.041l.009.035c.679 2.738 3.631 5.666 6.451 6.472v3.192c0 1.155 1.408 1.722 2.21.89l3.235-3.364c.702.04 1.403.062 2.105.062 2.386 0 4.77-.225 7.14-.676l.034-.006c2.929-.639 6.12-3.71 6.828-6.568l.01-.035a27.957 27.957 0 0 0 0-12.043h-.003Zm-2.56 11.46c-.472 1.865-2.895 4.186-4.818 4.616-2.52.479-5.06.684-7.595.613a.18.18 0 0 0-.135.054l-2.362 2.425-2.511 2.578a.295.295 0 0 1-.508-.203v-5.289a.18.18 0 0 0-.149-.177c-1.925-.43-4.347-2.748-4.819-4.616a25.343 25.343 0 0 1 0-10.883c.474-1.865 2.895-4.185 4.818-4.616a35.34 35.34 0 0 1 13.262 0c1.925.43 4.346 2.749 4.818 4.616.79 3.61.79 7.27 0 10.88l-.002.002Zm-7.262 2.443c.08-.026.163-.047.246-.068.178-.045.354-.09.51-.175.808-.434 1.368-1.113 1.753-1.93.211-.446.083-.878-.291-1.207-.36-.316-.747-.592-1.135-.869l-.093-.067a28.053 28.053 0 0 0-1.304-.889c-.444-.281-.972-.277-1.385.061a2.42 2.42 0 0 0-.39.444c-.22.295-.44.589-.831.634-.33.038-.619-.084-.904-.204a11.48 11.48 0 0 0-.084-.035c-1.953-.813-3.143-2.324-3.85-4.264a.862.862 0 0 1 .057-.757 1.31 1.31 0 0 1 .298-.315l.07-.058c.106-.088.212-.177.326-.255.57-.388.66-1.087.342-1.66-.513-.928-1.148-1.77-1.839-2.573-.32-.37-.751-.492-1.188-.281-.562.27-1.078.636-1.48 1.112-.43.509-.837 1.207-.558 1.883l.088.215c.272.668.545 1.34.864 1.988.744 1.512 1.624 2.942 2.75 4.208 1.978 2.225 4.474 3.678 7.188 4.804.179.073.367.125.563.179.09.025.183.05.277.079Zm2.91-9.44c-.626-3.51-3.54-5.864-7.089-5.964l-.001-.001a1.68 1.68 0 0 0-.205 0c-.252.015-.475.224-.428.49.054.295.35.326.596.351l.046.005c.128.014.255.025.383.036.275.024.55.047.82.096 2.631.47 4.74 2.657 5.107 5.3.056.397.083.797.11 1.197l.022.317c.02.256.148.493.432.49.274-.003.42-.245.399-.5a83.22 83.22 0 0 1-.017-.227 16.19 16.19 0 0 0-.174-1.59ZM27.4 20.11l-.01-.189a15.148 15.148 0 0 0-.028-.422 1.428 1.428 0 0 0-.02-.139l-.014-.084c-.245-1.644-1.087-2.876-2.56-3.656-.723-.383-1.51-.558-2.325-.605a.381.381 0 0 0-.424.377c-.013.244.12.4.366.434l.234.03a9.9 9.9 0 0 1 .376.052c.464.079.92.207 1.342.412a4.015 4.015 0 0 1 1.683 1.58c.378.654.542 1.405.544 2.157 0 .114.006.236.042.342.126.36.666.315.76-.042.018-.072.025-.149.03-.201l.004-.045Zm-2.693-.517c.03.273.19.436.486.432v-.002a.352.352 0 0 0 .317-.29c.024-.102.015-.213.006-.319l-.002-.025c-.14-1.62-1.125-2.332-2.5-2.431a.427.427 0 0 0-.45.342c-.038.222.092.413.329.47.102.026.205.035.31.045.117.011.235.022.35.056.173.05.337.127.48.231.307.224.5.56.59.924.037.15.054.305.072.46.003.036.007.072.012.107Z" fill="#fff"/></svg>