<svg width="161" height="181" viewBox="0 0 161 181" fill="none" xmlns="http://www.w3.org/2000/svg"><path d="M72.754 2.074a15.5 15.5 0 0 1 15.492 0l65.008 37.509A15.481 15.481 0 0 1 161 52.991v75.018a15.482 15.482 0 0 1-7.746 13.408l-65.008 37.509a15.504 15.504 0 0 1-15.492 0L7.746 141.417A15.481 15.481 0 0 1 0 128.009V52.991a15.48 15.48 0 0 1 7.746-13.408L72.754 2.074Z" fill="#00B7B7"/><path d="M73.66 100.805c-10.97-7.253-13.098-23.938-3.493-33.753l13.862-13.359a22.054 22.054 0 0 1 31.435-.218c8.678 8.452 8.678 22.247.219 30.917L102.53 97.751c0 .218-.218.218-.218 0 1.146-4.471.709-10.087-.71-14.286-.273-.436 0-.927.218-1.145l6.113-6.325c3.984-4.199 3.984-11.014-.218-14.995-3.984-4.199-10.806-4.199-14.79 0L82.61 71.306c-.51.547-1.04 1.096-1.571 1.645-2.43 2.511-4.887 5.049-5.47 7.733-.49 2.563-.218 4.908.928 7.252.928 1.909 2.566 3.544 4.203 4.471.218.219.436.655.218 1.145-1.91 2.781-3.766 4.908-6.112 7.253-.219.218-.655.218-1.146 0Z" fill="#fff"/><path d="M96.69 86.737c1.42 5.398.983 11.014-1.855 15.921-1.112 2.294-6.844 8.143-11.51 12.906-2.434 2.484-4.58 4.672-5.627 5.906-8.404 8.67-22.485 8.67-31.162.218-8.678-8.669-8.678-22.737-.219-31.407l12.88-13.141c0-.218.218-.218.218 0-.709 4.471-.49 10.087.928 14.286.273.436 0 .927-.218 1.145l-6.112 6.325c-3.984 4.199-3.984 11.014.218 14.995 4.202 3.98 11.024 3.98 15.008-.218 1.064-1.172 3.056-3.163 5.048-5.153 1.992-1.99 3.984-3.98 5.048-5.153.433-.465.885-.935 1.343-1.411 2.551-2.65 5.281-5.487 5.698-8.676.49-2.563-.437-5.126-1.146-6.543-.928-1.854-2.566-3.272-4.203-4.199-.49-.49-.71-.927-.49-1.418 1.363-2.835 3.492-5.18 5.839-7.034.49-.218.927-.218 1.419 0 4.42 2.836 7.75 7.743 8.895 12.65Z" fill="#fff"/></svg>