<svg width="161" height="181" viewBox="0 0 161 181" fill="none" xmlns="http://www.w3.org/2000/svg"><path d="M72.754 2.074a15.5 15.5 0 0 1 15.492 0l65.008 37.509A15.481 15.481 0 0 1 161 52.991v75.018a15.482 15.482 0 0 1-7.746 13.408l-65.008 37.509a15.504 15.504 0 0 1-15.492 0L7.746 141.417A15.481 15.481 0 0 1 0 128.009V52.991a15.48 15.48 0 0 1 7.746-13.408L72.754 2.074Z" fill="#007AB7"/><path d="M80.971 42c-11.602.023-20.992 9.522-21.014 21.26.134 6.083 2.861 11.805 7.511 15.673l-6.281 11.76a7.317 7.317 0 0 0-1.23-.09c-5.03-.068-9.166 4.025-9.233 9.114-.067 5.089 3.98 9.273 9.01 9.34 5.03.068 9.165-4.025 9.232-9.114.023-2.42-.872-4.75-2.526-6.49l8.54-16.036-2.258-1.515c-6.885-4.636-8.763-14.045-4.18-21.01 4.582-6.967 13.882-8.866 20.767-4.23 5.701 3.845 8.115 11.105 5.835 17.64l5.634 2.081c3.89-11.059-1.833-23.226-12.765-27.14A20.274 20.274 0 0 0 80.97 42Zm0 12.145c-4.985.09-8.942 4.23-8.875 9.25.067 4.93 4.002 8.888 8.875 8.979.402 0 .827-.023 1.23-.09l8.249 13.298 1.497 2.465 2.527-1.515c7.198-4.207 16.386-1.697 20.544 5.586 4.158 7.282 1.677 16.578-5.522 20.784-6.147 3.596-13.927 2.33-18.689-2.985l-4.493 3.98c7.735 8.753 21.014 9.522 29.665 1.719 8.652-7.802 9.412-21.26 1.699-30.012a20.906 20.906 0 0 0-15.693-7.101c-2.638.18-5.231.904-7.6 2.08L87.542 69.48a9.058 9.058 0 0 0 2.437-6.174c-.022-5.066-4.046-9.137-9.009-9.16Zm0 6.084c1.654 0 2.996 1.357 3.018 3.03a3.048 3.048 0 0 1-2.996 3.054c-1.654 0-2.995-1.357-3.018-3.031v-.023c-.022-1.65 1.297-3.008 2.929-3.03h.067Zm-24.479 18.5c-11.446 1.968-19.136 12.936-17.191 24.516 1.945 11.58 12.787 19.36 24.233 17.392 2.437-.43 4.806-1.266 6.952-2.533 5.41-3.347 9.01-9.001 9.77-15.379h13.323c1.655 4.749 6.796 7.237 11.491 5.564 4.695-1.674 7.154-6.876 5.499-11.625-1.654-4.75-6.796-7.237-11.49-5.564a9.11 9.11 0 0 0-5.5 5.564H75.002v3.03c0 8.391-6.729 15.198-15.045 15.198-8.294 0-15.023-6.807-15.023-15.22 0-5.45 2.884-10.472 7.556-13.186a14.596 14.596 0 0 1 4.963-1.809l-.961-5.948Zm3.465 17.935c1.654 0 2.996 1.357 2.996 3.03 0 1.674-1.342 3.031-2.996 3.031s-2.995-1.357-2.995-3.03c-.023-1.652 1.296-3.009 2.928-3.031h.067Zm42.028 0c1.654 0 2.996 1.357 2.996 3.03 0 1.674-1.342 3.031-2.996 3.031s-2.996-1.357-2.996-3.03c-.022-1.652 1.297-3.009 2.929-3.031h.067Z" fill="#fff"/></svg>