<svg width="161" height="181" viewBox="0 0 161 181" fill="none" xmlns="http://www.w3.org/2000/svg"><path d="M72.754 2.074a15.5 15.5 0 0 1 15.492 0l65.008 37.509A15.481 15.481 0 0 1 161 52.991v75.018a15.482 15.482 0 0 1-7.746 13.408l-65.008 37.509a15.504 15.504 0 0 1-15.492 0L7.746 141.417A15.481 15.481 0 0 1 0 128.009V52.991a15.48 15.48 0 0 1 7.746-13.408L72.754 2.074Z" fill="#0098B7"/><path fill-rule="evenodd" clip-rule="evenodd" d="M95.248 70.535c8.153 0 14.762-6.612 14.762-14.767 0-8.156-6.609-14.768-14.763-14.768-8.153 0-14.762 6.612-14.762 14.767 0 2.579.66 5.003 1.822 7.113l-14.1 11.103a19.871 19.871 0 0 0-13.257-5.044C43.931 68.939 35 77.873 35 88.895c0 11.021 8.932 19.956 19.95 19.956a19.898 19.898 0 0 0 14.916-6.705l16.126 8.559a14.709 14.709 0 0 0-1.517 6.527c0 8.156 6.61 14.768 14.762 14.768 8.154 0 14.763-6.612 14.763-14.768 0-8.155-6.609-14.767-14.763-14.767a14.693 14.693 0 0 0-9.155 3.182L73.3 96.738a19.891 19.891 0 0 0 1.6-7.843c0-3.628-.968-7.03-2.659-9.96l14.287-11.25a14.693 14.693 0 0 0 8.72 2.85Zm0-5.588c5.068 0 9.176-4.11 9.176-9.18 0-5.07-4.108-9.18-9.177-9.18-5.068 0-9.176 4.11-9.176 9.18 0 5.07 4.108 9.18 9.177 9.18ZM69.313 88.895c0 7.935-6.43 14.368-14.364 14.368-7.932 0-14.363-6.433-14.363-14.368 0-7.936 6.43-14.369 14.364-14.369 7.932 0 14.363 6.433 14.363 14.369Zm39.101 28.337c0 5.07-4.108 9.18-9.177 9.18-5.068 0-9.176-4.11-9.176-9.18 0-5.069 4.108-9.179 9.176-9.179 5.069 0 9.177 4.11 9.177 9.179Z" fill="#fff"/></svg>