<svg width="145" height="145" viewBox="0 0 145 145" fill="none" xmlns="http://www.w3.org/2000/svg"><path d="M8 72.5C8 108.122 36.878 137 72.5 137S137 108.122 137 72.5 108.122 8 72.5 8 8 36.878 8 72.5Zm121.405 0c0 31.428-25.477 56.905-56.905 56.905S15.595 103.928 15.595 72.5 41.072 15.595 72.5 15.595s56.905 25.477 56.905 56.905Z" fill="#D9D9D9"/><path d="M72.5 8a64.498 64.498 0 0 1 61.337 44.55 64.502 64.502 0 0 1-23.394 72.109 64.5 64.5 0 0 1-99.31-72.018l7.226 2.338A56.906 56.906 0 1 0 72.5 15.595V8Z" fill="#00B7B7"/><circle cx="72.5" cy="72.5" r="71" stroke="#00B7B7" stroke-width="3" stroke-miterlimit="5.759"/></svg>