<svg width="84" height="77" viewBox="0 0 84 77" fill="none" xmlns="http://www.w3.org/2000/svg"><path fill-rule="evenodd" clip-rule="evenodd" d="m41.444 0 .14.086.121-.076.169.252 41.251 25.15-.222.337A3.986 3.986 0 0 1 84 28.5v43.625a4 4 0 0 1-4 4h-.007l-.167.212-.269-.212H4c-.137 0-.273-.007-.407-.02l-.294.232-.26-.328A4.002 4.002 0 0 1 0 72.125V28.5c0-1.065.416-2.033 1.095-2.75l-.22-.328L41.252.292 41.444 0ZM10.195 24.5h63.48L41.608 4.95 10.196 24.5ZM5 32.263v36.36l25.093-19.81L5 32.264Zm74-.576v37.628l-25.968-20.5L79 31.686Zm-37.373 24.65 7.01-4.623 24.587 19.411H9.9l24.588-19.411 7.01 4.623.064-.097.064.097ZM9.89 29.5l31.672 20.89L73.234 29.5H9.891Z" fill="#fff"/><path d="M19.5 11.625h44.125v26.76L41.98 52.738 19.5 38.363V11.625Z" fill="#5CD6C7" stroke="#fff" stroke-width="4"/><path fill-rule="evenodd" clip-rule="evenodd" d="M58.625 20.313h-35v-3h35v3Zm0 6.562h-35v-3h35v3Zm-35 7h35v-3h-35v3Z" fill="#fff"/></svg>