<svg width="78" height="68" viewBox="0 0 78 68" fill="none" xmlns="http://www.w3.org/2000/svg"><path d="M76.319 25.211H54.03c-.39 0-.69.31-.69.68v4.12c0 .383.315.679.69.679h22.288c.389 0 .688-.31.688-.68v-4.12a.692.692 0 0 0-.689-.679ZM64.65 36.877H54.03a.682.682 0 0 0-.688.68v4.12c0 .383.314.678.689.678h10.62c.389 0 .688-.31.688-.679v-4.12a.692.692 0 0 0-.689-.68ZM35.592 17.532h-3.774a.965.965 0 0 0-.974.96v21.28c0 .31.15.59.404.767l12.957 9.318a.987.987 0 0 0 1.363-.207l2.232-3.012a.945.945 0 0 0-.225-1.344l-11.01-7.856V18.492c.016-.532-.434-.96-.973-.96Z" fill="#fff"/><path d="M64.111 47.686h-5.033c-.494 0-.943.251-1.213.665a27.685 27.685 0 0 1-3.88 4.784 27.56 27.56 0 0 1-8.822 5.863 28.048 28.048 0 0 1-10.8 2.14 28.05 28.05 0 0 1-10.799-2.14 27.894 27.894 0 0 1-8.822-5.863c-2.561-2.51-4.523-5.449-5.916-8.712a26.928 26.928 0 0 1-2.172-10.647c0-3.707.734-7.265 2.172-10.647 1.393-3.249 3.4-6.173 5.946-8.698a27.32 27.32 0 0 1 8.822-5.862 28.048 28.048 0 0 1 10.8-2.141c3.745 0 7.384.723 10.8 2.14a27.893 27.893 0 0 1 8.822 5.863 27.685 27.685 0 0 1 3.879 4.785c.255.413.719.664 1.213.664h5.033c.6 0 .989-.62.719-1.137C59.138 7.623 47.635.388 34.783.24 15.985.004.348 15.184.318 33.717.288 52.279 15.536 67.34 34.364 67.34c13.016 0 24.714-7.265 30.451-18.518.27-.517-.12-1.137-.704-1.137Z" fill="#fff"/></svg>