<svg width="75" height="67" viewBox="0 0 75 67" fill="none" xmlns="http://www.w3.org/2000/svg"><mask id="a" fill="#fff"><path fill-rule="evenodd" clip-rule="evenodd" d="M63.62 38.002c.25-1.463.38-2.968.38-4.502C64 18.864 52.136 7 37.5 7a26.377 26.377 0 0 0-13.675 3.797 12.498 12.498 0 0 1-.771 12.827 12.498 12.498 0 0 1-11.673 5.374 26.674 26.674 0 0 0-.38 4.502C11 48.136 22.864 60 37.5 60c5.003 0 9.682-1.387 13.675-3.797a12.498 12.498 0 0 1 .77-12.827 12.498 12.498 0 0 1 11.673-5.374Zm6.588 2.775A33.62 33.62 0 0 0 71 33.5C71 14.998 56.002 0 37.5 0a33.344 33.344 0 0 0-18.65 5.667C13.264 2.524 6.103 4.123 2.416 9.515-1.27 14.905-.16 22.157 4.793 26.223A33.62 33.62 0 0 0 4 33.5C4 52.002 19 67 37.5 67a33.345 33.345 0 0 0 18.65-5.667c5.587 3.143 12.749 1.544 16.435-3.848 3.685-5.39 2.577-12.642-2.377-16.708Z"/></mask><path fill-rule="evenodd" clip-rule="evenodd" d="M63.62 38.002c.25-1.463.38-2.968.38-4.502C64 18.864 52.136 7 37.5 7a26.377 26.377 0 0 0-13.675 3.797 12.498 12.498 0 0 1-.771 12.827 12.498 12.498 0 0 1-11.673 5.374 26.674 26.674 0 0 0-.38 4.502C11 48.136 22.864 60 37.5 60c5.003 0 9.682-1.387 13.675-3.797a12.498 12.498 0 0 1 .77-12.827 12.498 12.498 0 0 1 11.673-5.374Zm6.588 2.775A33.62 33.62 0 0 0 71 33.5C71 14.998 56.002 0 37.5 0a33.344 33.344 0 0 0-18.65 5.667C13.264 2.524 6.103 4.123 2.416 9.515-1.27 14.905-.16 22.157 4.793 26.223A33.62 33.62 0 0 0 4 33.5C4 52.002 19 67 37.5 67a33.345 33.345 0 0 0 18.65-5.667c5.587 3.143 12.749 1.544 16.435-3.848 3.685-5.39 2.577-12.642-2.377-16.708Z" fill="#33CCBA"/><path d="m63.62 38.002-.538 4.97 4.673.506.793-4.633-4.929-.843ZM23.824 10.797l-2.584-4.28-4.015 2.423 2.162 4.161 4.437-2.304Zm-.771 12.827-4.128-2.822 4.128 2.822ZM11.38 28.998l.537-4.971-4.673-.505-.792 4.633 4.928.843Zm39.795 27.205 2.584 4.28 4.015-2.423-2.162-4.161-4.437 2.304Zm.77-12.827-4.127-2.822 4.128 2.822Zm18.262-2.6-4.882-1.08-.664 2.998 2.374 1.948 3.172-3.865ZM18.85 5.667l-2.45 4.359 2.682 1.509 2.556-1.716-2.787-4.151ZM2.415 9.516l-4.127-2.822 4.127 2.822Zm2.378 16.708 4.881 1.081.665-2.998-2.374-1.948-3.172 3.865Zm51.357 35.11 2.451-4.358-2.683-1.509-2.555 1.716 2.787 4.151Zm16.435-3.848-4.128-2.822 4.128 2.822ZM59 33.5c0 1.25-.106 2.473-.309 3.658l9.857 1.687A31.68 31.68 0 0 0 69 33.5H59ZM37.5 12C49.374 12 59 21.626 59 33.5h10C69 16.103 54.897 2 37.5 2v10Zm-11.09 3.077A21.377 21.377 0 0 1 37.5 12V2a31.38 31.38 0 0 0-16.26 4.516l5.169 8.561Zm.772 11.368c3.774-5.52 3.951-12.426 1.08-17.953l-8.873 4.61a7.498 7.498 0 0 1-.462 7.7l8.255 5.643ZM10.844 33.97c6.192.67 12.564-2.004 16.337-7.524l-8.255-5.643a7.498 7.498 0 0 1-7.008 3.225l-1.074 9.942ZM16 33.5c0-1.25.107-2.473.31-3.659l-9.857-1.686A31.674 31.674 0 0 0 6 33.5h10ZM37.5 55C25.626 55 16 45.374 16 33.5H6C6 50.897 20.103 65 37.5 65V55Zm11.092-3.077A21.377 21.377 0 0 1 37.5 55v10a31.38 31.38 0 0 0 16.26-4.516l-5.168-8.561Zm7.021 1.976a7.498 7.498 0 0 1 .461-7.701l-8.255-5.644c-3.773 5.52-3.951 12.427-1.08 17.954l8.874-4.61Zm.461-7.701a7.498 7.498 0 0 1 7.008-3.225l1.074-9.942c-6.192-.67-12.564 2.004-16.337 7.523l8.255 5.644ZM66 33.5a28.61 28.61 0 0 1-.674 6.196l9.763 2.162c.597-2.695.911-5.493.911-8.358H66ZM37.5 5C53.24 5 66 17.76 66 33.5h10C76 12.237 58.763-5 37.5-5V5ZM21.638 9.818A28.344 28.344 0 0 1 37.5 5V-5c-7.926 0-15.307 2.4-21.436 6.516l5.574 8.302ZM6.543 12.336a7.501 7.501 0 0 1 9.857-2.311l4.902-8.716C13.475-3.094 3.45-.858-1.712 6.693l8.255 5.643Zm1.422 10.022a7.501 7.501 0 0 1-1.422-10.022l-8.255-5.643c-5.161 7.55-3.607 17.7 3.333 23.395l6.344-7.73ZM9 33.5c0-2.133.234-4.206.674-6.196l-9.763-2.162a38.62 38.62 0 0 0-.91 8.358H9ZM37.5 62C21.76 62 9 49.24 9 33.5H-1C-1 54.763 16.237 72 37.5 72V62Zm15.863-4.818A28.345 28.345 0 0 1 37.5 62v10c7.927 0 15.308-2.4 21.437-6.516l-5.574-8.302Zm15.094-2.519a7.501 7.501 0 0 1-9.856 2.312l-4.903 8.716c7.828 4.403 17.852 2.167 23.015-5.384l-8.256-5.644Zm-1.421-10.021a7.501 7.501 0 0 1 1.421 10.021l8.256 5.644c5.16-7.55 3.607-17.7-3.333-23.395l-6.344 7.73Z" fill="#fff" mask="url(#a)"/></svg>