<svg width="71" height="71" viewBox="0 0 71 71" fill="none" xmlns="http://www.w3.org/2000/svg"><path fill-rule="evenodd" clip-rule="evenodd" d="M6.945 38.35h-.082a1.16 1.16 0 0 1-1.073-1.23 29.935 29.935 0 0 1 21.897-26.81 8.083 8.083 0 1 1 .333 2.305 27.623 27.623 0 0 0-19.922 24.66 1.158 1.158 0 0 1-1.153 1.076ZM39 5.52a5.785 5.785 0 0 0-3.214-.975A5.793 5.793 0 0 0 30 10.33a5.786 5.786 0 1 0 9-4.81Zm26.075 40.496A29.951 29.951 0 0 0 51.53 13.631a1.155 1.155 0 0 0-1.542 1.662c.089.123.201.228.33.307a27.66 27.66 0 0 1 12.57 29.614 8.116 8.116 0 1 0 2.187.802Zm-3.842 12.91a5.784 5.784 0 1 1 .015-11.568 5.784 5.784 0 0 1-.012 11.569h-.003Zm-14.838 5.996a27.74 27.74 0 0 1-30.297-6.1 8.096 8.096 0 1 0-1.854 1.408 30.054 30.054 0 0 0 33.037 6.83 1.16 1.16 0 0 0 .665-1.526 1.157 1.157 0 0 0-1.549-.612h-.002ZM4.548 53.142a5.786 5.786 0 1 1 1.694 4.09 5.793 5.793 0 0 1-1.702-4.088l.008-.003Z" fill="#fff"/><path clip-rule="evenodd" d="M6.945 38.35h-.082a1.16 1.16 0 0 1-1.073-1.23 29.935 29.935 0 0 1 21.897-26.81 8.083 8.083 0 1 1 .333 2.305 27.623 27.623 0 0 0-19.922 24.66 1.158 1.158 0 0 1-1.153 1.076ZM39 5.52a5.785 5.785 0 0 0-3.214-.975A5.793 5.793 0 0 0 30 10.33a5.786 5.786 0 1 0 9-4.81Zm26.075 40.496A29.951 29.951 0 0 0 51.53 13.631a1.155 1.155 0 0 0-1.542 1.662c.089.123.201.228.33.307a27.66 27.66 0 0 1 12.57 29.614 8.116 8.116 0 1 0 2.187.802Zm-3.842 12.91a5.784 5.784 0 1 1 .015-11.568 5.784 5.784 0 0 1-.012 11.569h-.003Zm-14.838 5.996a27.74 27.74 0 0 1-30.297-6.1 8.096 8.096 0 1 0-1.854 1.408 30.054 30.054 0 0 0 33.037 6.83 1.16 1.16 0 0 0 .665-1.526 1.157 1.157 0 0 0-1.549-.612h-.002ZM4.548 53.142a5.786 5.786 0 1 1 1.694 4.09 5.793 5.793 0 0 1-1.702-4.088l.008-.003Z" stroke="#fff" stroke-width="3"/></svg>