<svg width="95" height="62" viewBox="0 0 95 62" fill="none" xmlns="http://www.w3.org/2000/svg"><path d="M24.247 51.125a2.85 2.85 0 0 0 .472 1.58 2.815 2.815 0 0 0 4.35.44 2.843 2.843 0 0 0 .617-3.096 2.838 2.838 0 0 0-1.041-1.276 2.817 2.817 0 0 0-3.567.35 2.848 2.848 0 0 0-.831 2.002Zm51.825 0a2.85 2.85 0 0 0 .473 1.581 2.813 2.813 0 0 0 4.353.436 2.845 2.845 0 0 0 .61-3.1 2.838 2.838 0 0 0-1.044-1.274 2.818 2.818 0 0 0-3.564.357 2.847 2.847 0 0 0-.828 2Zm-36.305-9.353a1.127 1.127 0 0 0-.596.101 1.458 1.458 0 0 0-.516.413 2.054 2.054 0 0 0-.35.655 2.537 2.537 0 0 0-.123.786c0 .271.042.54.124.787.08.248.2.471.349.655.148.184.324.324.516.413.191.088.394.123.596.101h21.826a1.13 1.13 0 0 0 .597-.101 1.46 1.46 0 0 0 .516-.413 2.06 2.06 0 0 0 .348-.655 2.54 2.54 0 0 0 .124-.787c0-.27-.042-.538-.123-.786a2.058 2.058 0 0 0-.35-.655 1.46 1.46 0 0 0-.515-.413 1.127 1.127 0 0 0-.597-.101H39.767ZM5.45 35.492a1.465 1.465 0 0 0-.616.08c-.198.072-.38.184-.533.331a1.57 1.57 0 0 0-.36.524 1.619 1.619 0 0 0 .36 1.783 1.495 1.495 0 0 0 1.148.411h19.382a1.495 1.495 0 0 0 1.148-.411 1.57 1.57 0 0 0 .36-.524 1.62 1.62 0 0 0 0-1.26 1.57 1.57 0 0 0-.36-.523 1.506 1.506 0 0 0-.533-.33 1.465 1.465 0 0 0-.616-.081H5.45Zm44.364-19.299L36.68 28.898l-6.832-6.608a1.478 1.478 0 0 0-.48-.354 1.522 1.522 0 0 0-1.685.276 1.432 1.432 0 0 0-.331.488 1.392 1.392 0 0 0 .038 1.141c.087.178.21.336.363.466l7.88 7.62c.277.27.654.42 1.047.42a1.5 1.5 0 0 0 1.047-.42l14.154-13.69c.245-.274.374-.628.36-.991a1.411 1.411 0 0 0-.435-.963 1.505 1.505 0 0 0-.997-.416 1.512 1.512 0 0 0-1.023.353" fill="#fff"/><path d="M20.912 51.318c0-1.268.373-2.508 1.072-3.562a6.37 6.37 0 0 1 2.853-2.362 6.308 6.308 0 0 1 3.674-.365 6.342 6.342 0 0 1 3.255 1.755 6.43 6.43 0 0 1 1.74 3.283 6.463 6.463 0 0 1-.361 3.705 6.401 6.401 0 0 1-2.342 2.878 6.32 6.32 0 0 1-8.029-.798 6.44 6.44 0 0 1-1.862-4.534Zm51.616 0a6.45 6.45 0 0 1 1.072-3.563 6.37 6.37 0 0 1 2.855-2.362 6.308 6.308 0 0 1 3.675-.363 6.342 6.342 0 0 1 3.255 1.757 6.43 6.43 0 0 1 1.739 3.286 6.462 6.462 0 0 1-.366 3.706 6.401 6.401 0 0 1-2.346 2.875 6.321 6.321 0 0 1-3.535 1.077 6.331 6.331 0 0 1-4.49-1.882 6.44 6.44 0 0 1-1.86-4.53Zm15.638-14.166V35.49h3.325v3.353h-1.667a1.66 1.66 0 0 1-1.173-.496 1.688 1.688 0 0 1-.485-1.185M69.438 16.565h12.988l2.397 9.66H69.4l.038-9.66Zm0-6.309H80.44c.855 0 1.675.342 2.28.951a3.27 3.27 0 0 1 .95 2.298v.104H69.4l.037-3.353ZM9.965.954a3.024 3.024 0 0 0-2.076.929 3.073 3.073 0 0 0-.855 2.121v26.812a1.495 1.495 0 0 0 .385 1.123 1.47 1.47 0 0 0 1.08.477 1.46 1.46 0 0 0 1.08-.476 1.486 1.486 0 0 0 .386-1.125V4.006a.095.095 0 0 1 .065-.09.093.093 0 0 1 .038-.005h56.26a.093.093 0 0 1 .096.056.094.094 0 0 1 .008.038v26.812a1.495 1.495 0 0 0 .385 1.123 1.47 1.47 0 0 0 1.08.477 1.459 1.459 0 0 0 1.08-.476 1.486 1.486 0 0 0 .386-1.125v-1.671h17.333c1.014 0 2.003.324 2.822.926a4.825 4.825 0 0 1 1.738 2.426h-4.56a1.45 1.45 0 0 0-1.033.432 1.474 1.474 0 0 0-.428 1.042v3.154c0 1.228.483 2.406 1.344 3.276a4.579 4.579 0 0 0 3.245 1.361h1.666v6.507h-3.839a9.352 9.352 0 0 0-3.385-4.572 9.226 9.226 0 0 0-5.39-1.74 9.226 9.226 0 0 0-5.388 1.74 9.353 9.353 0 0 0-3.385 4.572H69.4V37.124a1.488 1.488 0 0 0-.468-.971 1.463 1.463 0 0 0-1.995 0c-.271.253-.438.6-.468.971v11.144H36.045a9.353 9.353 0 0 0-3.386-4.572 9.227 9.227 0 0 0-5.389-1.74 9.227 9.227 0 0 0-5.389 1.74 9.353 9.353 0 0 0-3.385 4.572h-8.428a.102.102 0 0 1-.07-.027.104.104 0 0 1-.033-.068v-3.239h6.358c.369-.03.713-.198.963-.472a1.49 1.49 0 0 0 0-2.012 1.465 1.465 0 0 0-.963-.472H2.277a1.457 1.457 0 0 0-1.114.389 1.483 1.483 0 0 0-.473 1.09 1.494 1.494 0 0 0 .473 1.089 1.469 1.469 0 0 0 1.114.388h4.757v3.258c.003.81.323 1.586.892 2.158a3.021 3.021 0 0 0 2.142.893h7.913v.094a9.425 9.425 0 0 0 2.26 6.117 9.278 9.278 0 0 0 5.672 3.148h2.706a9.269 9.269 0 0 0 5.673-3.146 9.415 9.415 0 0 0 2.258-6.119v-.094h33.047v.094a9.415 9.415 0 0 0 2.278 6.118 9.268 9.268 0 0 0 5.69 3.128h2.707a9.278 9.278 0 0 0 5.671-3.148 9.425 9.425 0 0 0 2.26-6.117v-.094h4.795c.381-.01.743-.17 1.009-.445a1.48 1.48 0 0 0 .414-1.029V33.97a7.84 7.84 0 0 0-1.867-5.07 7.718 7.718 0 0 0-4.688-2.627l-2.425-9.784c.328-.071.622-.253.833-.516a1.49 1.49 0 0 0 .328-.929v-1.577a6.24 6.24 0 0 0-1.808-4.388 6.135 6.135 0 0 0-4.353-1.817H69.4V4.004a3.073 3.073 0 0 0-.86-2.124 3.022 3.022 0 0 0-2.08-.926H9.965Z" fill="#fff"/><path d="M49.814 16.193 36.68 28.898l-6.832-6.608a1.478 1.478 0 0 0-.48-.354 1.522 1.522 0 0 0-1.685.276 1.432 1.432 0 0 0-.331.488 1.392 1.392 0 0 0 .038 1.141c.087.178.21.336.363.466l7.88 7.62c.277.27.654.42 1.047.42a1.5 1.5 0 0 0 1.047-.42l14.154-13.69c.245-.274.374-.628.36-.991a1.411 1.411 0 0 0-.435-.963 1.505 1.505 0 0 0-.997-.416 1.512 1.512 0 0 0-1.023.353m38.38 20.932V35.49h3.325v3.353h-1.667a1.66 1.66 0 0 1-1.173-.496 1.688 1.688 0 0 1-.485-1.185m-63.92 13.963a2.85 2.85 0 0 0 .473 1.58 2.815 2.815 0 0 0 4.35.44 2.843 2.843 0 0 0 .617-3.096 2.838 2.838 0 0 0-1.041-1.276 2.817 2.817 0 0 0-3.567.35 2.848 2.848 0 0 0-.831 2.002Zm51.826 0a2.85 2.85 0 0 0 .473 1.581 2.813 2.813 0 0 0 4.353.436 2.845 2.845 0 0 0 .61-3.1 2.838 2.838 0 0 0-1.044-1.274 2.818 2.818 0 0 0-3.564.357 2.847 2.847 0 0 0-.828 2Zm-36.305-9.353a1.127 1.127 0 0 0-.596.101 1.458 1.458 0 0 0-.516.413 2.054 2.054 0 0 0-.35.655 2.537 2.537 0 0 0-.123.786c0 .271.042.54.124.787.08.248.2.471.349.655.148.184.324.324.516.413.191.088.394.123.596.101h21.826a1.13 1.13 0 0 0 .597-.101 1.46 1.46 0 0 0 .516-.413 2.06 2.06 0 0 0 .348-.655 2.54 2.54 0 0 0 .124-.787c0-.27-.042-.538-.123-.786a2.058 2.058 0 0 0-.35-.655 1.46 1.46 0 0 0-.515-.413 1.127 1.127 0 0 0-.597-.101H39.767ZM5.45 35.492a1.465 1.465 0 0 0-.615.08c-.198.072-.38.184-.533.331a1.57 1.57 0 0 0-.36.524 1.619 1.619 0 0 0 .36 1.783 1.495 1.495 0 0 0 1.148.411h19.382a1.495 1.495 0 0 0 1.148-.411 1.57 1.57 0 0 0 .36-.524 1.62 1.62 0 0 0 0-1.26 1.57 1.57 0 0 0-.36-.523 1.506 1.506 0 0 0-.533-.33 1.465 1.465 0 0 0-.616-.081H5.45Zm15.463 15.826c0-1.268.373-2.508 1.072-3.562a6.37 6.37 0 0 1 2.853-2.362 6.308 6.308 0 0 1 3.674-.365 6.342 6.342 0 0 1 3.255 1.755 6.43 6.43 0 0 1 1.74 3.283 6.463 6.463 0 0 1-.361 3.705 6.401 6.401 0 0 1-2.342 2.878 6.32 6.32 0 0 1-8.029-.798 6.44 6.44 0 0 1-1.862-4.534Zm51.616 0a6.45 6.45 0 0 1 1.072-3.563 6.37 6.37 0 0 1 2.855-2.362 6.308 6.308 0 0 1 3.675-.363 6.342 6.342 0 0 1 3.255 1.757 6.43 6.43 0 0 1 1.739 3.286 6.462 6.462 0 0 1-.366 3.706 6.401 6.401 0 0 1-2.346 2.875 6.321 6.321 0 0 1-3.535 1.077 6.331 6.331 0 0 1-4.49-1.882 6.44 6.44 0 0 1-1.86-4.53Zm-3.09-34.753h12.988l2.397 9.66H69.4l.038-9.66Zm0-6.309H80.44c.855 0 1.675.342 2.28.951a3.27 3.27 0 0 1 .95 2.298v.104H69.4l.037-3.353ZM9.965.954a3.024 3.024 0 0 0-2.076.929 3.073 3.073 0 0 0-.855 2.121v26.812a1.495 1.495 0 0 0 .385 1.123 1.47 1.47 0 0 0 1.08.477 1.46 1.46 0 0 0 1.08-.476 1.486 1.486 0 0 0 .386-1.125V4.006a.095.095 0 0 1 .065-.09.093.093 0 0 1 .038-.005h56.26a.093.093 0 0 1 .096.056.094.094 0 0 1 .008.038v26.812a1.495 1.495 0 0 0 .385 1.123 1.47 1.47 0 0 0 1.08.477 1.459 1.459 0 0 0 1.08-.476 1.486 1.486 0 0 0 .386-1.125v-1.671h17.333c1.014 0 2.003.324 2.822.926a4.825 4.825 0 0 1 1.738 2.426h-4.56a1.45 1.45 0 0 0-1.033.432 1.474 1.474 0 0 0-.428 1.042v3.154c0 1.228.483 2.406 1.344 3.276a4.579 4.579 0 0 0 3.245 1.361h1.666v6.507h-3.839a9.352 9.352 0 0 0-3.385-4.572 9.226 9.226 0 0 0-5.39-1.74 9.226 9.226 0 0 0-5.388 1.74 9.353 9.353 0 0 0-3.385 4.572H69.4V37.124a1.488 1.488 0 0 0-.468-.971 1.463 1.463 0 0 0-1.995 0c-.271.253-.438.6-.468.971v11.144H36.045a9.353 9.353 0 0 0-3.386-4.572 9.227 9.227 0 0 0-5.389-1.74 9.227 9.227 0 0 0-5.389 1.74 9.353 9.353 0 0 0-3.385 4.572h-8.428a.102.102 0 0 1-.07-.027.104.104 0 0 1-.033-.068v-3.239h6.358c.369-.03.713-.198.963-.472a1.49 1.49 0 0 0 0-2.012 1.465 1.465 0 0 0-.963-.472H2.277a1.457 1.457 0 0 0-1.114.389 1.483 1.483 0 0 0-.473 1.09 1.494 1.494 0 0 0 .473 1.089 1.469 1.469 0 0 0 1.114.388h4.757v3.258c.003.81.323 1.586.892 2.158a3.021 3.021 0 0 0 2.142.893h7.913v.094a9.425 9.425 0 0 0 2.26 6.117 9.278 9.278 0 0 0 5.672 3.148h2.706a9.269 9.269 0 0 0 5.673-3.146 9.415 9.415 0 0 0 2.258-6.119v-.094h33.047v.094a9.415 9.415 0 0 0 2.278 6.118 9.268 9.268 0 0 0 5.69 3.128h2.707a9.278 9.278 0 0 0 5.671-3.148 9.425 9.425 0 0 0 2.26-6.117v-.094h4.795c.381-.01.743-.17 1.009-.445a1.48 1.48 0 0 0 .414-1.029V33.97a7.84 7.84 0 0 0-1.867-5.07 7.718 7.718 0 0 0-4.688-2.627l-2.425-9.784c.328-.071.622-.253.833-.516a1.49 1.49 0 0 0 .328-.929v-1.577a6.24 6.24 0 0 0-1.808-4.388 6.135 6.135 0 0 0-4.353-1.817H69.4V4.004a3.073 3.073 0 0 0-.86-2.124 3.022 3.022 0 0 0-2.08-.926H9.965Z" stroke="#fff"/></svg>