<svg width="63" height="71" viewBox="0 0 63 71" fill="none" xmlns="http://www.w3.org/2000/svg"><path d="M28.469.814a6.053 6.053 0 0 1 6.062 0L59.97 15.527a6.075 6.075 0 0 1 3.03 5.26v29.426a6.075 6.075 0 0 1-3.031 5.26L34.53 70.186a6.053 6.053 0 0 1-6.062 0L3.03 55.473A6.075 6.075 0 0 1 0 50.213V20.787a6.075 6.075 0 0 1 3.031-5.26L28.47.814Z" fill="#66BCFF"/><path d="m32.858 41.84-.43.904.43-.904a2 2 0 0 0-1.716 0l-8.494 4.033 1.21-9.326a2 2 0 0 0-.53-1.63l-6.46-6.834 9.242-1.73a2 2 0 0 0 1.388-1.009L32 17.089l4.502 8.255a2 2 0 0 0 1.388 1.008l9.243 1.731-6.46 6.833a2 2 0 0 0-.53 1.631l1.21 9.326-8.495-4.033Z" stroke="#fff" stroke-width="2"/></svg>