<svg width="63" height="71" viewBox="0 0 63 71" fill="none" xmlns="http://www.w3.org/2000/svg"><path d="M28.469.814a6.053 6.053 0 0 1 6.062 0L59.97 15.527a6.075 6.075 0 0 1 3.03 5.26v29.426a6.075 6.075 0 0 1-3.031 5.26L34.53 70.186a6.053 6.053 0 0 1-6.062 0L3.03 55.473A6.075 6.075 0 0 1 0 50.213V20.787a6.075 6.075 0 0 1 3.031-5.26L28.47.814Z" fill="#66BCFF"/><path d="M29.377 15.767a2 2 0 0 1 3.078-.018l1.06 1.26a2 2 0 0 0 2.145.617l1.567-.507a2 2 0 0 1 2.599 1.648l.21 1.634a2 2 0 0 0 1.472 1.679l1.592.421a2 2 0 0 1 1.295 2.791l-.707 1.488a2 2 0 0 0 .331 2.208l1.112 1.215a2 2 0 0 1-.42 3.049l-1.399.87a2 2 0 0 0-.915 2.035l.278 1.624a2 2 0 0 1-2.001 2.337l-1.647-.024a2 2 0 0 0-1.87 1.218l-.645 1.516a2 2 0 0 1-2.947.884l-1.372-.91a2 2 0 0 0-2.232.013l-1.362.927a2 2 0 0 1-2.957-.85l-.662-1.508a2 2 0 0 0-1.885-1.196l-1.646.045a2 2 0 0 1-2.03-2.314l.26-1.626a2 2 0 0 0-.94-2.026l-1.41-.853a2 2 0 0 1-.455-3.043l1.097-1.228a2 2 0 0 0 .305-2.212l-.725-1.479a2 2 0 0 1 1.262-2.807l1.587-.44a2 2 0 0 0 1.452-1.696l.19-1.636a2 2 0 0 1 2.58-1.679l1.572.488a2 2 0 0 0 2.139-.642l1.044-1.273Z" stroke="#fff" stroke-width="2"/><path d="m25.684 42.887.075 13.415 5.114-4.53 5.167 4.469-.074-12.531" stroke="#fff" stroke-width="2"/><circle cx="30.998" cy="29.541" r="8.514" transform="rotate(-.34 30.998 29.541)" stroke="#fff" stroke-width="2"/></svg>