<svg width="44" height="44" viewBox="0 0 44 44" xmlns="http://www.w3.org/2000/svg"><circle cx="22" cy="22" r="22"/><path d="M29.883 23.993c.852.84 1.751 1.628 2.514 2.552.337.41.656.834.901 1.31.347.677.033 1.424-.568 1.464l-3.74-.002c-.965.081-1.734-.31-2.381-.976-.518-.533-.998-1.1-1.495-1.65a3.54 3.54 0 0 0-.673-.604c-.51-.335-.953-.232-1.245.306-.298.546-.365 1.151-.394 1.761-.04.89-.307 1.123-1.19 1.163-1.89.09-3.685-.198-5.352-1.161-1.47-.85-2.608-2.047-3.6-3.403-1.931-2.642-3.41-5.544-4.739-8.527-.299-.673-.08-1.034.654-1.047 1.22-.023 2.44-.022 3.66-.001.496.007.825.294 1.017.767.66 1.638 1.467 3.197 2.481 4.642.27.385.545.77.938 1.041.433.3.763.2.967-.288.13-.31.186-.642.215-.974.096-1.14.108-2.277-.06-3.412-.105-.709-.5-1.168-1.201-1.302-.358-.068-.304-.203-.13-.409.3-.356.583-.577 1.146-.577h4.226c.665.133.814.435.905 1.11l.004 4.74c-.007.262.13 1.038.596 1.212.373.124.62-.178.844-.418 1.011-1.084 1.734-2.365 2.38-3.692.286-.584.532-1.19.77-1.795.176-.45.454-.67.955-.66l4.067.004c.121 0 .242.001.36.022.685.118.872.415.661 1.09-.333 1.06-.982 1.945-1.617 2.832-.678.948-1.404 1.864-2.077 2.817-.618.87-.568 1.309.199 2.065h.002Z" fill="#fff"/></svg>