<svg width="44" height="44" viewBox="0 0 44 44" xmlns="http://www.w3.org/2000/svg"><g clip-path="url(#a)"><path d="M22 0c12.15 0 22 9.85 22 22s-9.85 22-22 22C9.849 44 0 34.15 0 22S9.85 0 22 0Z"/><path fill-rule="evenodd" clip-rule="evenodd" d="M30.251 15.104c.842.241 1.504.951 1.73 1.853.408 1.634.408 5.043.408 5.043s0 3.409-.409 5.043c-.225.902-.887 1.611-1.729 1.852-1.525.438-7.64.438-7.64.438s-6.115 0-7.64-.438c-.841-.24-1.504-.95-1.73-1.852-.408-1.634-.408-5.043-.408-5.043s0-3.41.409-5.043c.225-.902.887-1.612 1.729-1.853 1.525-.438 7.64-.438 7.64-.438s6.115 0 7.64.438Zm-9.473 4.026v6.377l4.889-3.188-4.89-3.189Z" fill="#fff"/></g><defs><clipPath id="a"><path fill="#fff" d="M0 0h44v44H0z"/></clipPath></defs></svg>