<svg width="1118" height="99" viewBox="0 0 1118 99" fill="none" xmlns="http://www.w3.org/2000/svg"><path d="M121.22 16.712c0-7.25 6.001-13.125 13.405-13.125 7.403 0 13.405 5.876 13.405 13.125v65.573c0 7.249-6.002 13.125-13.405 13.125-7.404 0-13.405-5.876-13.405-13.125V16.712Zm52.841 0c0-7.25 6.001-13.125 13.405-13.125 7.404 0 13.405 5.876 13.405 13.125v65.573c0 7.249-6.001 13.125-13.405 13.125-7.404 0-13.405-5.876-13.405-13.125V16.712Z" fill="#2A608C"/><path d="M13.405 29.84C6.001 29.84 0 23.964 0 16.715 0 9.465 6.001 3.59 13.405 3.59H79.7c7.404 0 13.405 5.876 13.405 13.125S87.104 29.84 79.7 29.84H59.956v52.448c0 7.249-6.001 13.125-13.405 13.125-7.404 0-13.405-5.876-13.405-13.125V29.84H13.402h.003Zm78.85 60.549c-4.57 5.663-12.962 6.627-18.745 2.152-5.784-4.472-6.769-12.691-2.198-18.354L124.153 8.61c4.568-5.663 12.962-6.627 18.745-2.152 5.784 4.472 6.769 12.69 2.198 18.354L92.255 90.386v.003Zm52.838 0c-4.567 5.663-12.961 6.627-18.745 2.152-5.784-4.472-6.768-12.691-2.198-18.354L176.992 8.61c4.567-5.663 12.961-6.627 18.745-2.152 5.784 4.472 6.768 12.69 2.198 18.354l-52.842 65.573v.003Zm146.931-83.72c6.391 3.623 8.571 11.635 4.871 17.892-3.7 6.257-11.885 8.392-18.276 4.769a23.845 23.845 0 0 0-5.712-2.3 24.348 24.348 0 0 0-6.159-.777c-6.559 0-12.495 2.604-16.79 6.81-4.296 4.206-6.955 10.02-6.955 16.44 0 6.42 2.659 12.234 6.955 16.44 4.295 4.206 10.234 6.81 16.79 6.81 3.226 0 6.328-.606 9.138-1.744 2.77-1.124 5.375-2.833 7.656-5.066 5.234-5.125 13.719-5.125 18.954 0a12.93 12.93 0 0 1 0 18.558c-4.688 4.59-10.292 8.208-16.453 10.705-6.119 2.48-12.67 3.794-19.295 3.794-13.957 0-26.598-5.54-35.747-14.499-9.15-8.958-14.808-21.332-14.808-35.001 0-13.666 5.661-26.043 14.808-35.002C240.15 5.54 252.788 0 266.748 0c4.39 0 8.786.577 13.07 1.7a51.125 51.125 0 0 1 12.206 4.97Zm-94.092 83.72c-4.57 5.663-12.961 6.627-18.745 2.152-5.784-4.472-6.769-12.691-2.198-18.354l12.395-15.381c4.567-5.663 12.961-6.627 18.745-2.152 5.784 4.472 6.768 12.69 2.198 18.354l-12.395 15.38Z" fill="url(#a)"/><path d="M448.376 75.426v-49.48l1.509 1.509h-20.064v-4.828h42.617v4.828h-19.989l1.434-1.509v49.48h-5.507Zm30.67-5.204c2.565 1.006 4.978 1.257 7.241.754 2.263-.553 4.35-2.338 6.261-5.355l2.564-4.073.528-.68 20.215-38.24h5.581l-23.986 44.2c-1.609 3.067-3.519 5.355-5.732 6.864-2.162 1.508-4.475 2.313-6.939 2.413-2.414.1-4.853-.352-7.317-1.358l1.584-4.525Zm16.443-4.3-22.854-43.295h5.959l19.912 38.695-3.017 4.6Zm30.262 9.957c-.704 0-1.383-.05-2.037-.151a13.337 13.337 0 0 1-2.187-.377l.453-4.978c.854.2 1.684.301 2.489.301 2.262 0 4.073-.88 5.43-2.64 1.408-1.81 2.464-4.575 3.168-8.297.704-3.77 1.157-8.598 1.358-14.482l.754-22.628h35.828v52.8h-5.506v-49.48l1.433 1.508h-28.21l1.358-1.584-.679 19.234c-.201 5.28-.578 9.856-1.131 13.727-.553 3.822-1.358 7.015-2.414 9.58-1.056 2.514-2.414 4.4-4.073 5.657-1.659 1.206-3.671 1.81-6.034 1.81Zm63.069-.453V22.627h4.601l24.136 41.184h-2.413l23.91-41.184h4.601v52.8H638.3V31h1.282l-22.025 37.713h-2.64L592.742 31h1.433v44.426h-5.355Zm64.859 0 24.136-52.799h5.506l24.137 52.8h-5.883L679.399 25.87h2.263l-22.176 49.555h-5.807Zm9.503-14.105 1.66-4.525h30.699l1.659 4.526h-34.018Zm85.394 9.278-1.357 1.508v-49.48h5.506v49.48l-1.509-1.508h27.079l-1.509 1.508v-49.48h5.506v52.8h-64.716v-52.8h5.506v49.48l-1.433-1.508h26.927Zm74.579 5.28c-3.973 0-7.643-.654-11.012-1.961-3.37-1.358-6.286-3.244-8.75-5.657-2.464-2.414-4.4-5.255-5.808-8.523-1.358-3.269-2.036-6.84-2.036-10.711 0-3.872.678-7.442 2.036-10.71 1.408-3.27 3.344-6.11 5.808-8.524 2.514-2.414 5.456-4.274 8.825-5.582 3.369-1.357 7.04-2.036 11.012-2.036 3.822 0 7.417.654 10.786 1.961 3.369 1.257 6.211 3.168 8.524 5.732l-3.545 3.546c-2.163-2.213-4.551-3.797-7.166-4.752-2.615-1.006-5.431-1.509-8.448-1.509-3.168 0-6.109.553-8.825 1.66-2.715 1.055-5.079 2.59-7.09 4.6-2.011 1.962-3.595 4.275-4.752 6.94-1.106 2.615-1.659 5.506-1.659 8.674 0 3.168.553 6.084 1.659 8.75a22.747 22.747 0 0 0 4.752 6.939c2.011 1.96 4.375 3.495 7.09 4.6 2.716 1.057 5.657 1.585 8.825 1.585 3.017 0 5.833-.503 8.448-1.509 2.615-1.005 5.003-2.615 7.166-4.827l3.545 3.545c-2.313 2.564-5.155 4.5-8.524 5.808-3.369 1.307-6.989 1.96-10.861 1.96Zm35.89-29.643h27.908v4.752h-27.908v-4.752Zm.603 24.363h31.755v4.827h-37.337V22.627h36.205v4.828h-30.623v43.144Zm44.138 4.827V22.627h19.762c4.475 0 8.322.73 11.541 2.188 3.218 1.408 5.682 3.47 7.391 6.185 1.76 2.665 2.64 5.908 2.64 9.73 0 3.721-.88 6.94-2.64 9.655-1.709 2.665-4.173 4.726-7.391 6.185-3.219 1.458-7.066 2.187-11.541 2.187h-16.669l2.489-2.64v19.31h-5.582Zm5.582-18.856-2.489-2.716h16.518c5.28 0 9.278-1.131 11.993-3.394 2.766-2.313 4.149-5.556 4.149-9.73 0-4.224-1.383-7.492-4.149-9.806-2.715-2.313-6.713-3.47-11.993-3.47h-16.518l2.489-2.64V56.57Zm47.158 18.856V22.627h21.95c5.581 0 9.956 1.157 13.124 3.47 3.218 2.263 4.827 5.607 4.827 10.032 0 4.375-1.534 7.693-4.601 9.956-3.067 2.213-7.09 3.319-12.068 3.319l1.282-1.886c5.883 0 10.359 1.157 13.426 3.47s4.601 5.707 4.601 10.183c0 4.525-1.609 8.045-4.827 10.56-3.168 2.463-7.945 3.695-14.331 3.695h-23.383Zm5.506-4.45h17.877c4.475 0 7.869-.83 10.182-2.489 2.313-1.66 3.47-4.224 3.47-7.693 0-3.42-1.157-5.934-3.47-7.543-2.313-1.61-5.707-2.414-10.182-2.414h-17.877v20.14Zm0-24.438h16.142c4.073 0 7.191-.805 9.353-2.414 2.212-1.66 3.319-4.098 3.319-7.316s-1.107-5.632-3.319-7.241c-2.162-1.66-5.28-2.49-9.353-2.49h-16.142v19.46Zm50.988 28.888V22.627h5.51v43.748l33.79-43.748h5.05v52.8h-5.5V31.753l-33.79 43.672h-5.06Zm85.25.453c-3.97 0-7.64-.654-11.01-1.961-3.37-1.358-6.29-3.244-8.75-5.657-2.46-2.414-4.4-5.255-5.81-8.523-1.36-3.269-2.03-6.84-2.03-10.711 0-3.872.67-7.442 2.03-10.71 1.41-3.27 3.35-6.11 5.81-8.524 2.51-2.414 5.46-4.274 8.82-5.582 3.37-1.357 7.04-2.036 11.02-2.036 3.82 0 7.41.654 10.78 1.961 3.37 1.257 6.21 3.168 8.53 5.732l-3.55 3.546c-2.16-2.213-4.55-3.797-7.16-4.752-2.62-1.006-5.43-1.509-8.45-1.509-3.17 0-6.11.553-8.83 1.66-2.71 1.055-5.08 2.59-7.09 4.6-2.01 1.962-3.59 4.275-4.75 6.94-1.11 2.615-1.66 5.506-1.66 8.674 0 3.168.55 6.084 1.66 8.75a22.812 22.812 0 0 0 4.75 6.939c2.01 1.96 4.38 3.495 7.09 4.6 2.72 1.057 5.66 1.585 8.83 1.585 3.02 0 5.83-.503 8.45-1.509 2.61-1.005 5-2.615 7.16-4.827l3.55 3.545c-2.32 2.564-5.16 4.5-8.53 5.808-3.37 1.307-6.99 1.96-10.86 1.96Z" fill="#fff"/><path d="M367.707 4.714v87.212" stroke="#fff" stroke-width="2"/><defs><linearGradient id="a" x1="48.211" y1="28.705" x2="236.092" y2="28.547" gradientUnits="userSpaceOnUse"><stop stop-color="#2F83C5"/><stop offset="1" stop-color="#00ADA9"/></linearGradient></defs></svg>