<svg width="145" height="145" viewBox="0 0 145 145" fill="none" xmlns="http://www.w3.org/2000/svg"><path d="M8 72.5C8 108.122 36.878 137 72.5 137S137 108.122 137 72.5 108.122 8 72.5 8 8 36.878 8 72.5Zm121.405 0c0 31.428-25.477 56.905-56.905 56.905S15.595 103.928 15.595 72.5 41.072 15.595 72.5 15.595s56.905 25.477 56.905 56.905Z" fill="#D9D9D9"/><path d="M72.5 8a64.499 64.499 0 1 1 0 129v-7.595a56.904 56.904 0 1 0 0-113.81V8Z" fill="url(#a)"/><circle cx="72.5" cy="72.5" r="71" stroke="#00B7B7" stroke-width="3" stroke-miterlimit="5.759"/><defs><radialGradient id="a" cx="0" cy="0" r="1" gradientUnits="userSpaceOnUse" gradientTransform="rotate(90 0 72.5) scale(64.5)"><stop offset=".499" stop-color="#00B7B7"/><stop offset=".885" stop-color="#00B7B7" stop-opacity="0"/><stop offset=".997" stop-color="#00B7B7"/></radialGradient></defs></svg>