<svg width="377" height="34" viewBox="0 0 377 34" fill="none" xmlns="http://www.w3.org/2000/svg"><path d="M4.522 10.065C2.024 10.065 0 8.083 0 5.638c0-2.445 2.024-4.427 4.522-4.427h22.362c2.497 0 4.521 1.982 4.521 4.427 0 2.445-2.024 4.427-4.521 4.427h-6.66v17.692c0 2.445-2.024 4.427-4.522 4.427-2.497 0-4.521-1.982-4.521-4.427V10.065H4.52ZM31.119 30.49c-1.542 1.91-4.372 2.236-6.323.726a4.345 4.345 0 0 1-.742-6.19L41.88 2.904c1.54-1.91 4.372-2.236 6.323-.726a4.345 4.345 0 0 1 .74 6.19L31.12 30.49Zm17.823 0c-1.54 1.91-4.372 2.236-6.323.726a4.346 4.346 0 0 1-.742-6.19l17.825-22.12c1.54-1.91 4.372-2.236 6.323-.726a4.345 4.345 0 0 1 .741 6.19L48.942 30.49ZM98.504 2.25c2.155 1.223 2.891 3.925 1.643 6.036-1.249 2.11-4.01 2.83-6.165 1.608a8.041 8.041 0 0 0-1.927-.776 8.215 8.215 0 0 0-2.077-.261 8.07 8.07 0 0 0-5.664 2.296 7.738 7.738 0 0 0-2.346 5.546c0 2.165.897 4.127 2.346 5.545a8.073 8.073 0 0 0 5.664 2.297 8.213 8.213 0 0 0 3.082-.588 8 8 0 0 0 2.582-1.709c1.766-1.728 4.628-1.728 6.394 0a4.362 4.362 0 0 1 0 6.26 17.092 17.092 0 0 1-5.55 3.611 17.338 17.338 0 0 1-6.508 1.28 17.187 17.187 0 0 1-12.058-4.89c-3.087-3.022-4.995-7.196-4.995-11.807 0-4.61 1.91-8.785 4.995-11.807A17.186 17.186 0 0 1 89.978 0c1.48 0 2.963.195 4.408.574 1.423.373 2.809.935 4.118 1.676ZM66.765 30.49c-1.542 1.91-4.372 2.236-6.323.726a4.345 4.345 0 0 1-.741-6.19l4.18-5.189c1.541-1.91 4.373-2.235 6.324-.726a4.345 4.345 0 0 1 .74 6.191l-4.18 5.188Z" fill="url(#a)"/><path d="M151.243 25.443V8.753l.509.508h-6.768V7.633h14.375v1.628h-6.742l.483-.508v16.69h-1.857Zm10.345-1.756c.865.34 1.68.424 2.443.255.763-.187 1.467-.789 2.112-1.807l.865-1.373.178-.23 6.818-12.899h1.883l-8.091 14.91c-.542 1.034-1.187 1.806-1.933 2.315-.73.509-1.51.78-2.341.814-.814.034-1.637-.119-2.468-.458l.534-1.527Zm5.547-1.45-7.709-14.604h2.01l6.717 13.052-1.018 1.552Zm10.207 3.359a4.49 4.49 0 0 1-.686-.051 4.48 4.48 0 0 1-.738-.128l.152-1.679c.289.068.569.102.84.102.763 0 1.374-.297 1.832-.89.475-.611.831-1.544 1.068-2.8.238-1.271.391-2.9.458-4.884l.255-7.633h12.085v17.81h-1.857V8.753l.483.508h-9.515l.458-.534-.229 6.488c-.068 1.781-.195 3.325-.382 4.63-.187 1.29-.458 2.367-.814 3.232-.356.848-.814 1.484-1.374 1.908-.56.407-1.238.61-2.036.61Zm21.274-.153V7.633h1.552l8.142 13.892h-.814l8.065-13.892h1.552v17.81h-1.806V10.457h.432l-7.429 12.721h-.891l-7.48-12.72h.484v14.985h-1.807Zm21.878 0 8.142-17.81h1.857l8.142 17.81h-1.985l-7.48-16.716h.763l-7.48 16.716h-1.959Zm3.206-4.758.56-1.526h10.355l.559 1.526H223.7Zm28.804 3.13-.458.508V7.633h1.858v16.69l-.509-.508h9.134l-.509.508V7.633h1.857v17.81h-21.829V7.633h1.857v16.69l-.484-.508h9.083Zm25.157 1.781c-1.34 0-2.578-.221-3.715-.662a8.942 8.942 0 0 1-2.951-1.908 8.92 8.92 0 0 1-1.959-2.875c-.458-1.103-.687-2.307-.687-3.613s.229-2.51.687-3.613a8.921 8.921 0 0 1 1.959-2.875 8.889 8.889 0 0 1 2.977-1.883c1.136-.458 2.374-.687 3.714-.687 1.289 0 2.502.221 3.638.662a7.185 7.185 0 0 1 2.875 1.934l-1.195 1.195c-.73-.746-1.535-1.28-2.417-1.602a7.871 7.871 0 0 0-2.85-.51 7.814 7.814 0 0 0-2.977.56 6.847 6.847 0 0 0-2.391 1.552 7.269 7.269 0 0 0-1.603 2.341c-.373.882-.56 1.857-.56 2.926 0 1.069.187 2.052.56 2.951.39.882.924 1.663 1.603 2.341a7.358 7.358 0 0 0 2.391 1.552c.916.356 1.908.534 2.977.534 1.018 0 1.968-.17 2.85-.509.882-.339 1.687-.881 2.417-1.628l1.195 1.196a7.419 7.419 0 0 1-2.875 1.959c-1.136.441-2.357.662-3.663.662Zm12.106-9.999h9.413V17.2h-9.413v-1.603Zm.203 8.218h10.712v1.628h-12.594V7.633H300.3v1.628h-10.33v14.554Zm14.889 1.628V7.633h6.666c1.509 0 2.807.246 3.892.738 1.086.475 1.917 1.17 2.494 2.086.593.9.89 1.993.89 3.282 0 1.255-.297 2.341-.89 3.257-.577.899-1.408 1.594-2.494 2.086-1.085.492-2.383.738-3.892.738h-5.623l.84-.89v6.513h-1.883Zm1.883-6.36-.84-.917h5.572c1.781 0 3.129-.381 4.045-1.145.933-.78 1.4-1.874 1.4-3.282 0-1.425-.467-2.527-1.4-3.307-.916-.78-2.264-1.17-4.045-1.17h-5.572l.84-.891v10.711Zm15.907 6.36V7.633h7.403c1.883 0 3.359.39 4.427 1.17 1.086.764 1.629 1.892 1.629 3.384 0 1.476-.518 2.596-1.552 3.359-1.035.746-2.392 1.12-4.071 1.12l.432-.637c1.985 0 3.495.39 4.529 1.17 1.035.78 1.552 1.926 1.552 3.435 0 1.527-.543 2.714-1.628 3.562-1.069.831-2.68 1.247-4.834 1.247h-7.887Zm1.857-1.501h6.03c1.509 0 2.654-.28 3.435-.84.78-.56 1.17-1.425 1.17-2.595 0-1.153-.39-2.001-1.17-2.544-.781-.543-1.926-.814-3.435-.814h-6.03v6.793Zm0-8.244h5.445c1.374 0 2.425-.271 3.154-.814.747-.56 1.12-1.382 1.12-2.468 0-1.085-.373-1.9-1.12-2.442-.729-.56-1.78-.84-3.154-.84h-5.445v6.564Zm17.2 9.745V7.633h1.857V22.39l11.398-14.757h1.705v17.81h-1.857V10.712l-11.399 14.73h-1.704Zm28.755.153c-1.34 0-2.578-.221-3.714-.662a8.936 8.936 0 0 1-2.952-1.908 8.92 8.92 0 0 1-1.959-2.875c-.458-1.103-.687-2.307-.687-3.613s.229-2.51.687-3.613a8.921 8.921 0 0 1 1.959-2.875 8.899 8.899 0 0 1 2.977-1.883c1.137-.458 2.375-.687 3.715-.687 1.289 0 2.502.221 3.638.662A7.192 7.192 0 0 1 377 10.076l-1.196 1.195c-.729-.746-1.535-1.28-2.417-1.602a7.87 7.87 0 0 0-2.849-.51 7.814 7.814 0 0 0-2.977.56 6.86 6.86 0 0 0-2.392 1.552 7.285 7.285 0 0 0-1.603 2.341c-.373.882-.559 1.857-.559 2.926 0 1.069.186 2.052.559 2.951a7.67 7.67 0 0 0 1.603 2.341 7.373 7.373 0 0 0 2.392 1.552c.916.356 1.908.534 2.977.534a7.87 7.87 0 0 0 2.849-.509c.882-.339 1.688-.881 2.417-1.628L377 22.975a7.426 7.426 0 0 1-2.875 1.959c-1.136.441-2.358.662-3.664.662Z" fill="#B6B6B6"/><path d="M124.032 1.59v29.418" stroke="#C8C8C8" stroke-width="2"/><defs><linearGradient id="a" x1="16.262" y1="9.683" x2="79.637" y2="9.629" gradientUnits="userSpaceOnUse"><stop stop-color="#2F83C5"/><stop offset="1" stop-color="#00ADA9"/></linearGradient></defs></svg>