<svg width="476" height="42" viewBox="0 0 476 42" fill="none" xmlns="http://www.w3.org/2000/svg"><path d="M51.428 7.09c0-3.075 2.546-5.568 5.687-5.568 3.14 0 5.687 2.493 5.687 5.568v27.82c0 3.075-2.546 5.568-5.687 5.568-3.141 0-5.687-2.493-5.687-5.568V7.09Zm22.418 0c0-3.075 2.546-5.568 5.687-5.568 3.14 0 5.687 2.493 5.687 5.568v27.82c0 3.075-2.546 5.568-5.687 5.568-3.141 0-5.687-2.493-5.687-5.568V7.09Z" fill="#2A608C"/><path d="M5.687 12.66C2.547 12.66 0 10.167 0 7.092c0-3.076 2.546-5.569 5.687-5.569h28.126c3.14 0 5.687 2.493 5.687 5.569 0 3.075-2.546 5.568-5.687 5.568h-8.377v22.25c0 3.076-2.546 5.57-5.687 5.57-3.14 0-5.687-2.494-5.687-5.57V12.66H5.686h.001ZM39.14 38.348c-1.939 2.402-5.499 2.811-7.952.913-2.454-1.898-2.872-5.384-.933-7.787l22.418-27.82C54.61 1.25 58.171.841 60.625 2.74c2.454 1.898 2.871 5.385.932 7.787L39.14 38.347Zm22.417 0c-1.938 2.402-5.499 2.811-7.953.913-2.453-1.898-2.871-5.384-.932-7.787L75.09 3.654c1.938-2.403 5.499-2.812 7.953-.914 2.453 1.898 2.871 5.385.932 7.787l-22.418 27.82ZM123.892 2.83c2.711 1.537 3.636 4.936 2.066 7.59-1.57 2.655-5.042 3.56-7.753 2.024a10.11 10.11 0 0 0-2.424-.977 10.337 10.337 0 0 0-2.613-.329 10.149 10.149 0 0 0-7.123 2.89c-1.823 1.784-2.951 4.25-2.951 6.974 0 2.723 1.128 5.19 2.951 6.975a10.152 10.152 0 0 0 7.123 2.888 10.33 10.33 0 0 0 3.877-.739 10.069 10.069 0 0 0 3.248-2.15c2.221-2.174 5.821-2.174 8.041 0a5.485 5.485 0 0 1 0 7.874 21.504 21.504 0 0 1-6.98 4.541 21.807 21.807 0 0 1-8.186 1.61c-5.921 0-11.284-2.35-15.166-6.15C94.121 32.05 91.72 26.8 91.72 21c0-5.798 2.402-11.05 6.282-14.85 3.882-3.8 9.244-6.15 15.166-6.15 1.863 0 3.728.244 5.545.72a21.7 21.7 0 0 1 5.179 2.109Zm-39.92 35.518c-1.938 2.402-5.498 2.811-7.952.913-2.454-1.898-2.871-5.384-.932-7.787l5.258-6.525c1.938-2.403 5.5-2.812 7.953-.913 2.454 1.897 2.871 5.384.932 7.786l-5.258 6.526Z" fill="url(#a)"/><path d="M190.224 32V11.008l.64.64h-8.512V9.6h18.08v2.048h-8.48l.608-.64V32h-2.336Zm13.012-2.208c1.088.427 2.112.533 3.072.32.96-.235 1.845-.992 2.656-2.272l1.088-1.728.224-.288L218.852 9.6h2.368l-10.176 18.752c-.683 1.301-1.494 2.272-2.432 2.912-.918.64-1.899.981-2.944 1.024-1.024.043-2.059-.15-3.104-.576l.672-1.92Zm6.976-1.824L200.516 9.6h2.528l8.448 16.416-1.28 1.952Zm12.838 4.224c-.298 0-.586-.021-.864-.064a5.671 5.671 0 0 1-.928-.16l.192-2.112a4.61 4.61 0 0 0 1.056.128c.96 0 1.728-.373 2.304-1.12.598-.768 1.046-1.941 1.344-3.52.299-1.6.491-3.648.576-6.144l.32-9.6h15.2V32h-2.336V11.008l.608.64h-11.968l.576-.672-.288 8.16c-.085 2.24-.245 4.181-.48 5.824-.234 1.621-.576 2.976-1.024 4.064-.448 1.067-1.024 1.867-1.728 2.4-.704.512-1.557.768-2.56.768ZM249.807 32V9.6h1.952l10.24 17.472h-1.024L271.119 9.6h1.952V32h-2.272V13.152h.544l-9.344 16h-1.12l-9.408-16h.608V32h-2.272Zm27.517 0 10.24-22.4h2.336L300.14 32h-2.496l-9.408-21.024h.96L279.788 32h-2.464Zm4.032-5.984.704-1.92h13.024l.704 1.92h-14.432Zm36.228 3.936-.576.64V9.6h2.336v20.992l-.64-.64h11.488l-.64.64V9.6h2.336V32h-27.456V9.6h2.336v20.992l-.608-.64h11.424Zm31.64 2.24c-1.685 0-3.242-.277-4.672-.832-1.429-.576-2.666-1.376-3.712-2.4a11.233 11.233 0 0 1-2.464-3.616c-.576-1.387-.864-2.901-.864-4.544 0-1.643.288-3.157.864-4.544a11.233 11.233 0 0 1 2.464-3.616 11.195 11.195 0 0 1 3.744-2.368c1.43-.576 2.987-.864 4.672-.864 1.622 0 3.147.277 4.576.832 1.43.533 2.635 1.344 3.616 2.432l-1.504 1.504c-.917-.939-1.93-1.61-3.04-2.016-1.109-.427-2.304-.64-3.584-.64-1.344 0-2.592.235-3.744.704a8.628 8.628 0 0 0-3.008 1.952 9.166 9.166 0 0 0-2.016 2.944c-.469 1.11-.704 2.336-.704 3.68 0 1.344.235 2.581.704 3.712a9.656 9.656 0 0 0 2.016 2.944 9.275 9.275 0 0 0 3.008 1.952c1.152.448 2.4.672 3.744.672 1.28 0 2.475-.213 3.584-.64 1.11-.427 2.123-1.11 3.04-2.048l1.504 1.504c-.981 1.088-2.186 1.91-3.616 2.464-1.429.555-2.965.832-4.608.832Zm15.227-12.576h11.84v2.016h-11.84v-2.016Zm.256 10.336h13.472V32h-15.84V9.6h15.36v2.048h-12.992v18.304ZM383.432 32V9.6h8.384c1.899 0 3.531.31 4.896.928 1.366.597 2.411 1.472 3.136 2.624.747 1.13 1.12 2.507 1.12 4.128 0 1.579-.373 2.944-1.12 4.096-.725 1.13-1.77 2.005-3.136 2.624-1.365.619-2.997.928-4.896.928h-7.072l1.056-1.12V32h-2.368Zm2.368-8-1.056-1.152h7.008c2.24 0 3.936-.48 5.088-1.44 1.174-.981 1.76-2.357 1.76-4.128 0-1.792-.586-3.179-1.76-4.16-1.152-.981-2.848-1.472-5.088-1.472h-7.008l1.056-1.12V24Zm20.007 8V9.6h9.312c2.368 0 4.224.49 5.568 1.472 1.366.96 2.048 2.379 2.048 4.256 0 1.856-.65 3.264-1.952 4.224-1.301.939-3.008 1.408-5.12 1.408l.544-.8c2.496 0 4.395.49 5.696 1.472 1.302.981 1.952 2.421 1.952 4.32 0 1.92-.682 3.413-2.048 4.48-1.344 1.045-3.37 1.568-6.08 1.568h-9.92Zm2.336-1.888h7.584c1.899 0 3.339-.352 4.32-1.056.982-.704 1.472-1.792 1.472-3.264 0-1.45-.49-2.517-1.472-3.2-.981-.683-2.421-1.024-4.32-1.024h-7.584v8.544Zm0-10.368h6.848c1.728 0 3.051-.341 3.968-1.024.939-.704 1.408-1.739 1.408-3.104s-.469-2.39-1.408-3.072c-.917-.704-2.24-1.056-3.968-1.056h-6.848v8.256ZM429.776 32V9.6h2.336v18.56L446.448 9.6h2.144V32h-2.336V13.472L431.92 32h-2.144Zm36.167.192c-1.685 0-3.243-.277-4.672-.832-1.429-.576-2.667-1.376-3.712-2.4a11.217 11.217 0 0 1-2.464-3.616c-.576-1.387-.864-2.901-.864-4.544 0-1.643.288-3.157.864-4.544a11.217 11.217 0 0 1 2.464-3.616 11.195 11.195 0 0 1 3.744-2.368c1.429-.576 2.987-.864 4.672-.864 1.621 0 3.147.277 4.576.832 1.429.533 2.635 1.344 3.616 2.432l-1.504 1.504c-.917-.939-1.931-1.61-3.04-2.016-1.109-.427-2.304-.64-3.584-.64-1.344 0-2.592.235-3.744.704a8.62 8.62 0 0 0-3.008 1.952 9.166 9.166 0 0 0-2.016 2.944c-.469 1.11-.704 2.336-.704 3.68 0 1.344.235 2.581.704 3.712a9.656 9.656 0 0 0 2.016 2.944 9.264 9.264 0 0 0 3.008 1.952c1.152.448 2.4.672 3.744.672 1.28 0 2.475-.213 3.584-.64 1.109-.427 2.123-1.11 3.04-2.048l1.504 1.504c-.981 1.088-2.187 1.91-3.616 2.464-1.429.555-2.965.832-4.608.832Z" fill="#B6B6B6"/><path d="M156 2v37" stroke="#C8C8C8" stroke-width="2"/><defs><linearGradient id="a" x1="20.453" y1="12.178" x2="100.162" y2="12.111" gradientUnits="userSpaceOnUse"><stop stop-color="#2F83C5"/><stop offset="1" stop-color="#00ADA9"/></linearGradient></defs></svg>