<svg width="1118" height="99" viewBox="0 0 1118 99" fill="none" xmlns="http://www.w3.org/2000/svg">
<path d="M121.22 16.7118C121.22 9.46266 127.221 3.58656 134.625 3.58656C142.028 3.58656 148.03 9.46266 148.03 16.7118V82.2848C148.03 89.5339 142.028 95.41 134.625 95.41C127.221 95.41 121.22 89.5339 121.22 82.2848V16.7118ZM174.061 16.7118C174.061 9.46266 180.062 3.58656 187.466 3.58656C194.87 3.58656 200.871 9.46266 200.871 16.7118V82.2848C200.871 89.5339 194.87 95.41 187.466 95.41C180.062 95.41 174.061 89.5339 174.061 82.2848V16.7118Z" fill="#2A608C"/>
<path d="M13.405 29.84C6.00132 29.84 0 23.9639 0 16.7148C0 9.46564 6.00132 3.58955 13.405 3.58955H79.6999C87.1036 3.58955 93.1049 9.46564 93.1049 16.7148C93.1049 23.9639 87.1036 29.84 79.6999 29.84H59.956V82.2878C59.956 89.5369 53.9546 95.413 46.551 95.413C39.1474 95.413 33.1461 89.5369 33.1461 82.2878V29.84H13.4021H13.405ZM92.2549 90.3888C87.6845 96.0519 79.2935 97.0158 73.5097 92.5408C67.7259 88.0686 66.7414 79.8499 71.3118 74.1868L124.153 8.61099C128.721 2.94786 137.115 1.98392 142.898 6.45894C148.682 10.9312 149.667 19.1499 145.096 24.813L92.2549 90.386V90.3888ZM145.093 90.3888C140.526 96.0519 132.132 97.0158 126.348 92.5408C120.564 88.0686 119.58 79.8499 124.15 74.1868L176.992 8.61099C181.559 2.94786 189.953 1.98392 195.737 6.45894C201.521 10.9312 202.505 19.1499 197.935 24.813L145.093 90.386V90.3888ZM292.024 6.6691C298.415 10.2923 300.595 18.3036 296.895 24.5608C293.195 30.818 285.01 32.9532 278.619 29.33C276.856 28.3325 274.933 27.5591 272.907 27.0295C270.947 26.5167 268.875 26.2533 266.748 26.2533C260.189 26.2533 254.253 28.8565 249.958 33.0625C245.662 37.2685 243.003 43.083 243.003 49.5027C243.003 55.9224 245.662 61.7368 249.958 65.9429C254.253 70.1489 260.192 72.7521 266.748 72.7521C269.974 72.7521 273.076 72.1468 275.886 71.0091C278.656 69.8855 281.261 68.1762 283.542 65.9429C288.776 60.8177 297.261 60.8177 302.496 65.9429C307.73 71.068 307.73 79.3763 302.496 84.5015C297.808 89.0914 292.204 92.7089 286.043 95.2057C279.924 97.6856 273.373 98.9998 266.748 98.9998C252.791 98.9998 240.15 93.4599 231.001 84.5015C221.851 75.543 216.193 63.1687 216.193 49.4999C216.193 35.8338 221.854 23.4568 231.001 14.4983C240.15 5.53984 252.788 0 266.748 0C271.138 0 275.534 0.577242 279.818 1.7009C284.037 2.80775 288.143 4.47222 292.024 6.6691ZM197.932 90.3888C193.362 96.0519 184.971 97.0158 179.187 92.5408C173.403 88.0686 172.418 79.8499 176.989 74.1868L189.384 58.8058C193.951 53.1427 202.345 52.1787 208.129 56.6538C213.913 61.126 214.897 69.3447 210.327 75.0078L197.932 90.3888Z" fill="url(#paint0_linear_1112_446)"/>
<path d="M448.376 75.4263V25.9462L449.885 27.4548H429.821V22.6274H472.438V27.4548H452.449L453.883 25.9462V75.4263H448.376Z" fill="white"/>
<path d="M479.046 70.2219C481.611 71.2276 484.024 71.479 486.287 70.9761C488.55 70.423 490.637 68.6379 492.548 65.6208L495.112 61.5478L495.64 60.8689L515.855 22.6274H521.436L497.45 66.8277C495.841 69.895 493.931 72.183 491.718 73.6915C489.556 75.2001 487.243 76.0046 484.779 76.1052C482.365 76.2057 479.926 75.7532 477.462 74.7475L479.046 70.2219ZM495.489 65.9225L472.635 22.6274H478.594L498.506 61.3215L495.489 65.9225Z" fill="white"/>
<path d="M525.751 75.8789C525.047 75.8789 524.368 75.8286 523.714 75.728C523.061 75.6778 522.332 75.552 521.527 75.3509L521.98 70.3727C522.834 70.5739 523.664 70.6744 524.469 70.6744C526.731 70.6744 528.542 69.7944 529.899 68.0345C531.307 66.2242 532.363 63.4586 533.067 59.7375C533.771 55.9662 534.224 51.1388 534.425 45.2555L535.179 22.6274H571.007V75.4263H565.501V25.9462L566.934 27.4548H538.724L540.082 25.8708L539.403 45.1047C539.202 50.3846 538.825 54.9605 538.272 58.8324C537.719 62.654 536.914 65.8471 535.858 68.4116C534.802 70.9259 533.444 72.8115 531.785 74.0686C530.126 75.2755 528.114 75.8789 525.751 75.8789Z" fill="white"/>
<path d="M588.82 75.4263V22.6274H593.421L617.557 63.8106H615.144L639.054 22.6274H643.655V75.4263H638.3V30.9998H639.582L617.557 68.7133H614.917L592.742 30.9998H594.175V75.4263H588.82Z" fill="white"/>
<path d="M653.679 75.4263L677.815 22.6274H683.321L707.458 75.4263H701.575L679.399 25.8708H681.662L659.486 75.4263H653.679ZM663.182 61.3215L664.842 56.7959H695.541L697.2 61.3215H663.182Z" fill="white"/>
<path d="M748.576 70.599L747.219 72.1075V22.6274H752.725V72.1075L751.216 70.599H778.295L776.786 72.1075V22.6274H782.292V75.4263H717.576V22.6274H723.082V72.1075L721.649 70.599H748.576Z" fill="white"/>
<path d="M823.155 75.8789C819.182 75.8789 815.512 75.2252 812.143 73.9178C808.773 72.5601 805.857 70.6744 803.393 68.2608C800.929 65.8471 798.993 63.006 797.585 59.7375C796.227 56.469 795.549 52.8988 795.549 49.0269C795.549 45.155 796.227 41.5847 797.585 38.3162C798.993 35.0477 800.929 32.2067 803.393 29.793C805.907 27.3793 808.849 25.5188 812.218 24.2114C815.587 22.8537 819.258 22.1749 823.23 22.1749C827.052 22.1749 830.647 22.8286 834.016 24.136C837.385 25.3931 840.227 27.3039 842.54 29.8684L838.995 33.4135C836.832 31.201 834.444 29.617 831.829 28.6616C829.214 27.6559 826.398 27.153 823.381 27.153C820.213 27.153 817.272 27.7062 814.556 28.8124C811.841 29.8684 809.477 31.4021 807.466 33.4135C805.455 35.3746 803.871 37.6877 802.714 40.3528C801.608 42.9676 801.055 45.8589 801.055 49.0269C801.055 52.1948 801.608 55.1113 802.714 57.7764C803.871 60.3912 805.455 62.7043 807.466 64.7157C809.477 66.6768 811.841 68.2105 814.556 69.3167C817.272 70.3727 820.213 70.9007 823.381 70.9007C826.398 70.9007 829.214 70.3979 831.829 69.3922C834.444 68.3865 836.832 66.7774 838.995 64.5648L842.54 68.1099C840.227 70.6744 837.385 72.6104 834.016 73.9178C830.647 75.2252 827.027 75.8789 823.155 75.8789Z" fill="white"/>
<path d="M859.045 46.2361H886.953V50.988H859.045V46.2361ZM859.648 70.599H891.403V75.4263H854.066V22.6274H890.271V27.4548H859.648V70.599Z" fill="white"/>
<path d="M903.786 75.4263V22.6274H923.548C928.023 22.6274 931.87 23.3566 935.089 24.8148C938.307 26.2228 940.771 28.2845 942.48 30.9998C944.24 33.6649 945.12 36.9083 945.12 40.7299C945.12 44.451 944.24 47.6692 942.48 50.3846C940.771 53.0497 938.307 55.1113 935.089 56.5696C931.87 58.0278 928.023 58.757 923.548 58.757H906.879L909.368 56.117V75.4263H903.786ZM909.368 56.5696L906.879 53.8542H923.397C928.677 53.8542 932.675 52.7228 935.39 50.46C938.156 48.1469 939.539 44.9035 939.539 40.7299C939.539 36.506 938.156 33.2375 935.39 30.9244C932.675 28.6113 928.677 27.4548 923.397 27.4548H906.879L909.368 24.8148V56.5696Z" fill="white"/>
<path d="M956.526 75.4263V22.6274H978.476C984.057 22.6274 988.432 23.784 991.6 26.0971C994.818 28.3599 996.427 31.7038 996.427 36.1289C996.427 40.5036 994.893 43.8224 991.826 46.0852C988.759 48.2978 984.736 49.404 979.758 49.404L981.04 47.5183C986.923 47.5183 991.399 48.6749 994.466 50.988C997.533 53.3011 999.067 56.6953 999.067 61.1706C999.067 65.6962 997.458 69.2162 994.24 71.7304C991.072 74.1944 986.295 75.4263 979.909 75.4263H956.526ZM962.032 70.9761H979.909C984.384 70.9761 987.778 70.1464 990.091 68.487C992.404 66.8277 993.561 64.2631 993.561 60.7935C993.561 57.3741 992.404 54.8599 990.091 53.2508C987.778 51.6417 984.384 50.8371 979.909 50.8371H962.032V70.9761ZM962.032 46.5378H978.174C982.247 46.5378 985.365 45.7332 987.527 44.1241C989.739 42.4647 990.846 40.0259 990.846 36.8077C990.846 33.5895 989.739 31.1758 987.527 29.5667C985.365 27.9073 982.247 27.0776 978.174 27.0776H962.032V46.5378Z" fill="white"/>
<path d="M1013.02 75.4263V22.6274H1018.53V66.3751L1052.32 22.6274H1057.37V75.4263H1051.87V31.7541L1018.08 75.4263H1013.02Z" fill="white"/>
<path d="M1098.27 75.8789C1094.3 75.8789 1090.63 75.2252 1087.26 73.9178C1083.89 72.5601 1080.97 70.6744 1078.51 68.2608C1076.05 65.8471 1074.11 63.006 1072.7 59.7375C1071.34 56.469 1070.67 52.8988 1070.67 49.0269C1070.67 45.155 1071.34 41.5847 1072.7 38.3162C1074.11 35.0477 1076.05 32.2067 1078.51 29.793C1081.02 27.3793 1083.97 25.5188 1087.33 24.2114C1090.7 22.8537 1094.37 22.1749 1098.35 22.1749C1102.17 22.1749 1105.76 22.8286 1109.13 24.136C1112.5 25.3931 1115.34 27.3039 1117.66 29.8684L1114.11 33.4135C1111.95 31.201 1109.56 29.617 1106.95 28.6616C1104.33 27.6559 1101.52 27.153 1098.5 27.153C1095.33 27.153 1092.39 27.7062 1089.67 28.8124C1086.96 29.8684 1084.59 31.4021 1082.58 33.4135C1080.57 35.3746 1078.99 37.6877 1077.83 40.3528C1076.72 42.9676 1076.17 45.8589 1076.17 49.0269C1076.17 52.1948 1076.72 55.1113 1077.83 57.7764C1078.99 60.3912 1080.57 62.7043 1082.58 64.7157C1084.59 66.6768 1086.96 68.2105 1089.67 69.3167C1092.39 70.3727 1095.33 70.9007 1098.5 70.9007C1101.52 70.9007 1104.33 70.3979 1106.95 69.3922C1109.56 68.3865 1111.95 66.7774 1114.11 64.5648L1117.66 68.1099C1115.34 70.6744 1112.5 72.6104 1109.13 73.9178C1105.76 75.2252 1102.14 75.8789 1098.27 75.8789Z" fill="white"/>
<path d="M367.707 4.71361V91.9261" stroke="white" stroke-width="2"/>
<defs>
<linearGradient id="paint0_linear_1112_446" x1="48.2109" y1="28.7052" x2="236.092" y2="28.5473" gradientUnits="userSpaceOnUse">
<stop stop-color="#2F83C5"/>
<stop offset="1" stop-color="#00ADA9"/>
</linearGradient>
</defs>
</svg>
