<svg width="145" height="145" viewBox="0 0 145 145" fill="none" xmlns="http://www.w3.org/2000/svg">
<path d="M8 72.5C8 108.122 36.8776 137 72.5 137C108.122 137 137 108.122 137 72.5C137 36.8776 108.122 8 72.5 8C36.8776 8 8 36.8776 8 72.5ZM129.405 72.5C129.405 103.928 103.928 129.405 72.5 129.405C41.0721 129.405 15.5947 103.928 15.5947 72.5C15.5947 41.0721 41.0721 15.5947 72.5 15.5947C103.928 15.5947 129.405 41.0721 129.405 72.5Z" fill="#D9D9D9"/>
<path d="M72.5 8C89.6065 8 106.012 14.7955 118.108 26.8916C130.204 38.9877 137 55.3935 137 72.5C137 89.6065 130.204 106.012 118.108 118.108C106.012 130.204 89.6065 137 72.5 137V129.405C87.5922 129.405 102.066 123.41 112.738 112.738C123.41 102.066 129.405 87.5922 129.405 72.5C129.405 57.4078 123.41 42.9337 112.738 32.2619C102.066 21.59 87.5922 15.5947 72.5 15.5947V8Z" fill="url(#paint0_angular_972_1226)"/>
<circle cx="72.5" cy="72.5" r="71" stroke="#00B7B7" stroke-width="3" stroke-miterlimit="5.75877"/>
<defs>
<radialGradient id="paint0_angular_972_1226" cx="0" cy="0" r="1" gradientUnits="userSpaceOnUse" gradientTransform="translate(72.5 72.5) rotate(90) scale(64.5)">
<stop offset="0.499089" stop-color="#00B7B7"/>
<stop offset="0.884943" stop-color="#00B7B7" stop-opacity="0"/>
<stop offset="0.996503" stop-color="#00B7B7"/>
</radialGradient>
</defs>
</svg>
