<svg width="476" height="42" viewBox="0 0 476 42" fill="none" xmlns="http://www.w3.org/2000/svg">
<path d="M51.4277 7.09029C51.4277 4.01483 53.9737 1.52189 57.1147 1.52189C60.2557 1.52189 62.8018 4.01483 62.8018 7.09029V34.9097C62.8018 37.9852 60.2557 40.4781 57.1147 40.4781C53.9737 40.4781 51.4277 37.9852 51.4277 34.9097V7.09029ZM73.8457 7.09029C73.8457 4.01483 76.3917 1.52189 79.5327 1.52189C82.6737 1.52189 85.2198 4.01483 85.2198 7.09029V34.9097C85.2198 37.9852 82.6737 40.4781 79.5327 40.4781C76.3917 40.4781 73.8457 37.9852 73.8457 34.9097V7.09029Z" fill="#2A608C"/>
<path d="M5.68707 12.6599C2.54607 12.6599 0 10.167 0 7.09152C0 4.01606 2.54607 1.52312 5.68707 1.52312H33.8128C36.9538 1.52312 39.4999 4.01606 39.4999 7.09152C39.4999 10.167 36.9538 12.6599 33.8128 12.6599H25.4364V34.9109C25.4364 37.9864 22.8903 40.4793 19.7493 40.4793C16.6083 40.4793 14.0623 37.9864 14.0623 34.9109V12.6599H5.68585H5.68707ZM39.1393 38.3478C37.2003 40.7504 33.6404 41.1593 31.1866 39.2608C28.7328 37.3635 28.3151 33.8767 30.2541 31.4741L52.6721 3.65347C54.6099 1.25088 58.171 0.841931 60.6248 2.74047C63.0786 4.63781 63.4963 8.1246 61.5573 10.5272L39.1393 38.3466V38.3478ZM61.5561 38.3478C59.6183 40.7504 56.0572 41.1593 53.6034 39.2608C51.1496 37.3635 50.7319 33.8767 52.6709 31.4741L75.089 3.65347C77.0267 1.25088 80.5878 0.841931 83.0416 2.74047C85.4954 4.63781 85.9131 8.1246 83.9741 10.5272L61.5561 38.3466V38.3478ZM123.892 2.82963C126.603 4.36676 127.528 7.76558 125.958 10.4202C124.388 13.0748 120.916 13.9807 118.205 12.4436C117.457 12.0203 116.641 11.6922 115.781 11.4675C114.949 11.25 114.07 11.1382 113.168 11.1382C110.385 11.1382 107.867 12.2427 106.045 14.0271C104.222 15.8115 103.094 18.2783 103.094 21.0018C103.094 23.7254 104.222 26.1922 106.045 27.9766C107.867 29.761 110.387 30.8654 113.168 30.8654C114.537 30.8654 115.853 30.6086 117.045 30.126C118.22 29.6493 119.325 28.9241 120.293 27.9766C122.514 25.8023 126.114 25.8023 128.334 27.9766C130.555 30.1509 130.555 33.6758 128.334 35.8501C126.345 37.7974 123.968 39.3321 121.354 40.3914C118.758 41.4435 115.979 42.001 113.168 42.001C107.247 42.001 101.884 39.6507 98.0023 35.8501C94.1207 32.0495 91.7204 26.7997 91.7204 21.0006C91.7204 15.2028 94.1219 9.95181 98.0023 6.15117C101.884 2.35054 107.246 0.00025177 113.168 0.00025177C115.031 0.00025177 116.896 0.245147 118.713 0.721861C120.503 1.19144 122.245 1.8976 123.892 2.82963ZM83.9729 38.3478C82.0339 40.7504 78.474 41.1593 76.0202 39.2608C73.5664 37.3635 73.1488 33.8767 75.0877 31.4741L80.3462 24.9487C82.284 22.5461 85.8451 22.1371 88.2989 24.0357C90.7527 25.933 91.1703 29.4198 89.2313 31.8224L83.9729 38.3478Z" fill="url(#paint0_linear_1103_497)"/>
<path d="M190.224 32V11.008L190.864 11.648H182.352V9.6H200.432V11.648H191.952L192.56 11.008V32H190.224ZM203.236 29.792C204.324 30.2187 205.348 30.3253 206.308 30.112C207.268 29.8773 208.153 29.12 208.964 27.84L210.052 26.112L210.276 25.824L218.852 9.6H221.22L211.044 28.352C210.361 29.6533 209.55 30.624 208.612 31.264C207.694 31.904 206.713 32.2453 205.668 32.288C204.644 32.3307 203.609 32.1387 202.564 31.712L203.236 29.792ZM210.212 27.968L200.516 9.6H203.044L211.492 26.016L210.212 27.968ZM223.05 32.192C222.752 32.192 222.464 32.1707 222.186 32.128C221.909 32.1067 221.6 32.0533 221.258 31.968L221.45 29.856C221.813 29.9413 222.165 29.984 222.506 29.984C223.466 29.984 224.234 29.6107 224.81 28.864C225.408 28.096 225.856 26.9227 226.154 25.344C226.453 23.744 226.645 21.696 226.73 19.2L227.05 9.6H242.25V32H239.914V11.008L240.522 11.648H228.554L229.13 10.976L228.842 19.136C228.757 21.376 228.597 23.3173 228.362 24.96C228.128 26.5813 227.786 27.936 227.338 29.024C226.89 30.0907 226.314 30.8907 225.61 31.424C224.906 31.936 224.053 32.192 223.05 32.192ZM249.807 32V9.6H251.759L261.999 27.072H260.975L271.119 9.6H273.071V32H270.799V13.152H271.343L261.999 29.152H260.879L251.471 13.152H252.079V32H249.807ZM277.324 32L287.564 9.6H289.9L300.14 32H297.644L288.236 10.976H289.196L279.788 32H277.324ZM281.356 26.016L282.06 24.096H295.084L295.788 26.016H281.356ZM317.584 29.952L317.008 30.592V9.6H319.344V30.592L318.704 29.952H330.192L329.552 30.592V9.6H331.888V32H304.432V9.6H306.768V30.592L306.16 29.952H317.584ZM349.224 32.192C347.539 32.192 345.982 31.9147 344.552 31.36C343.123 30.784 341.886 29.984 340.84 28.96C339.795 27.936 338.974 26.7307 338.376 25.344C337.8 23.9573 337.512 22.4427 337.512 20.8C337.512 19.1573 337.8 17.6427 338.376 16.256C338.974 14.8693 339.795 13.664 340.84 12.64C341.907 11.616 343.155 10.8267 344.584 10.272C346.014 9.696 347.571 9.408 349.256 9.408C350.878 9.408 352.403 9.68533 353.832 10.24C355.262 10.7733 356.467 11.584 357.448 12.672L355.944 14.176C355.027 13.2373 354.014 12.5653 352.904 12.16C351.795 11.7333 350.6 11.52 349.32 11.52C347.976 11.52 346.728 11.7547 345.576 12.224C344.424 12.672 343.422 13.3227 342.568 14.176C341.715 15.008 341.043 15.9893 340.552 17.12C340.083 18.2293 339.848 19.456 339.848 20.8C339.848 22.144 340.083 23.3813 340.552 24.512C341.043 25.6213 341.715 26.6027 342.568 27.456C343.422 28.288 344.424 28.9387 345.576 29.408C346.728 29.856 347.976 30.08 349.32 30.08C350.6 30.08 351.795 29.8667 352.904 29.44C354.014 29.0133 355.027 28.3307 355.944 27.392L357.448 28.896C356.467 29.984 355.262 30.8053 353.832 31.36C352.403 31.9147 350.867 32.192 349.224 32.192ZM364.451 19.616H376.291V21.632H364.451V19.616ZM364.707 29.952H378.179V32H362.339V9.6H377.699V11.648H364.707V29.952ZM383.432 32V9.6H391.816C393.715 9.6 395.347 9.90933 396.712 10.528C398.078 11.1253 399.123 12 399.848 13.152C400.595 14.2827 400.968 15.6587 400.968 17.28C400.968 18.8587 400.595 20.224 399.848 21.376C399.123 22.5067 398.078 23.3813 396.712 24C395.347 24.6187 393.715 24.928 391.816 24.928H384.744L385.8 23.808V32H383.432ZM385.8 24L384.744 22.848H391.752C393.992 22.848 395.688 22.368 396.84 21.408C398.014 20.4267 398.6 19.0507 398.6 17.28C398.6 15.488 398.014 14.1013 396.84 13.12C395.688 12.1387 393.992 11.648 391.752 11.648H384.744L385.8 10.528V24ZM405.807 32V9.6H415.119C417.487 9.6 419.343 10.0907 420.687 11.072C422.053 12.032 422.735 13.4507 422.735 15.328C422.735 17.184 422.085 18.592 420.783 19.552C419.482 20.4907 417.775 20.96 415.663 20.96L416.207 20.16C418.703 20.16 420.602 20.6507 421.903 21.632C423.205 22.6133 423.855 24.0533 423.855 25.952C423.855 27.872 423.173 29.3653 421.807 30.432C420.463 31.4773 418.437 32 415.727 32H405.807ZM408.143 30.112H415.727C417.626 30.112 419.066 29.76 420.047 29.056C421.029 28.352 421.519 27.264 421.519 25.792C421.519 24.3413 421.029 23.2747 420.047 22.592C419.066 21.9093 417.626 21.568 415.727 21.568H408.143V30.112ZM408.143 19.744H414.991C416.719 19.744 418.042 19.4027 418.959 18.72C419.898 18.016 420.367 16.9813 420.367 15.616C420.367 14.2507 419.898 13.2267 418.959 12.544C418.042 11.84 416.719 11.488 414.991 11.488H408.143V19.744ZM429.776 32V9.6H432.112V28.16L446.448 9.6H448.592V32H446.256V13.472L431.92 32H429.776ZM465.943 32.192C464.258 32.192 462.7 31.9147 461.271 31.36C459.842 30.784 458.604 29.984 457.559 28.96C456.514 27.936 455.692 26.7307 455.095 25.344C454.519 23.9573 454.231 22.4427 454.231 20.8C454.231 19.1573 454.519 17.6427 455.095 16.256C455.692 14.8693 456.514 13.664 457.559 12.64C458.626 11.616 459.874 10.8267 461.303 10.272C462.732 9.696 464.29 9.408 465.975 9.408C467.596 9.408 469.122 9.68533 470.551 10.24C471.98 10.7733 473.186 11.584 474.167 12.672L472.663 14.176C471.746 13.2373 470.732 12.5653 469.623 12.16C468.514 11.7333 467.319 11.52 466.039 11.52C464.695 11.52 463.447 11.7547 462.295 12.224C461.143 12.672 460.14 13.3227 459.287 14.176C458.434 15.008 457.762 15.9893 457.271 17.12C456.802 18.2293 456.567 19.456 456.567 20.8C456.567 22.144 456.802 23.3813 457.271 24.512C457.762 25.6213 458.434 26.6027 459.287 27.456C460.14 28.288 461.143 28.9387 462.295 29.408C463.447 29.856 464.695 30.08 466.039 30.08C467.319 30.08 468.514 29.8667 469.623 29.44C470.732 29.0133 471.746 28.3307 472.663 27.392L474.167 28.896C473.186 29.984 471.98 30.8053 470.551 31.36C469.122 31.9147 467.586 32.192 465.943 32.192Z" fill="#B6B6B6"/>
<path d="M156 2V39" stroke="#C8C8C8" stroke-width="2"/>
<defs>
<linearGradient id="paint0_linear_1103_497" x1="20.4535" y1="12.1785" x2="100.162" y2="12.1115" gradientUnits="userSpaceOnUse">
<stop stop-color="#2F83C5"/>
<stop offset="1" stop-color="#00ADA9"/>
</linearGradient>
</defs>
</svg>
