<svg width="377" height="34" viewBox="0 0 377 34" fill="none" xmlns="http://www.w3.org/2000/svg">
<path d="M4.52167 10.0654C2.02432 10.0654 0 8.08335 0 5.63812C0 3.19289 2.02432 1.2108 4.52167 1.2108H26.8838C29.3812 1.2108 31.4055 3.19289 31.4055 5.63812C31.4055 8.08335 29.3812 10.0654 26.8838 10.0654H20.2239V27.7567C20.2239 30.202 18.1996 32.1841 15.7023 32.1841C13.2049 32.1841 11.1806 30.202 11.1806 27.7567V10.0654H4.5207H4.52167ZM31.1188 30.4893C29.5771 32.3996 26.7467 32.7247 24.7958 31.2152C22.8448 29.7067 22.5128 26.9344 24.0544 25.0242L41.8785 2.9046C43.4192 0.99435 46.2505 0.669201 48.2015 2.17869C50.1525 3.68722 50.4845 6.4595 48.9429 8.36975L31.1188 30.4884V30.4893ZM48.9419 30.4893C47.4012 32.3996 44.5699 32.7247 42.6189 31.2152C40.668 29.7067 40.3359 26.9344 41.8775 25.0242L59.7016 2.9046C61.2423 0.99435 64.0737 0.669201 66.0246 2.17869C67.9756 3.68722 68.3077 6.4595 66.766 8.36975L48.9419 30.4884V30.4893ZM98.5036 2.24958C100.659 3.47172 101.395 6.17405 100.147 8.28468C98.8984 10.3953 96.1375 11.1156 93.9819 9.89341C93.3873 9.55692 92.7385 9.29604 92.0551 9.1174C91.3938 8.94443 90.6949 8.85558 89.9777 8.85558C87.7651 8.85558 85.763 9.73367 84.314 11.1524C82.865 12.5712 81.9682 14.5324 81.9682 16.6979C81.9682 18.8634 82.865 20.8246 84.314 22.2434C85.763 23.6621 87.7661 24.5402 89.9777 24.5402C91.0656 24.5402 92.112 24.3361 93.06 23.9523C93.9945 23.5733 94.8729 22.9967 95.6423 22.2434C97.4079 20.5146 100.27 20.5146 102.036 22.2434C103.801 23.9722 103.801 26.7747 102.036 28.5034C100.455 30.0517 98.5644 31.2719 96.486 32.1141C94.4221 32.9506 92.2124 33.3939 89.9777 33.3939C85.2697 33.3939 81.0058 31.5253 77.9196 28.5034C74.8334 25.4816 72.9249 21.3076 72.9249 16.697C72.9249 12.0872 74.8343 7.91227 77.9196 4.89046C81.0058 1.86866 85.2687 0 89.9777 0C91.4585 0 92.9413 0.194711 94.3864 0.573736C95.8093 0.94709 97.1946 1.50854 98.5036 2.24958ZM66.765 30.4893C65.2234 32.3996 62.393 32.7247 60.442 31.2152C58.4911 29.7067 58.159 26.9344 59.7007 25.0242L63.8816 19.836C65.4222 17.9257 68.2536 17.6006 70.2046 19.1101C72.1555 20.6186 72.4876 23.3909 70.9459 25.3011L66.765 30.4893Z" fill="url(#paint0_linear_1107_433)"/>
<path d="M151.243 25.4429V8.75259L151.752 9.26144H144.984V7.63312H159.359V9.26144H152.617L153.1 8.75259V25.4429H151.243Z" fill="#B6B6B6"/>
<path d="M161.588 23.6874C162.453 24.0266 163.268 24.1114 164.031 23.9418C164.794 23.7552 165.498 23.1531 166.143 22.1354L167.008 20.7615L167.186 20.5325L174.004 7.63312H175.887L167.796 22.5424C167.254 23.5771 166.609 24.3489 165.863 24.8577C165.133 25.3666 164.353 25.6379 163.522 25.6719C162.708 25.7058 161.885 25.5531 161.054 25.2139L161.588 23.6874ZM167.135 22.2371L159.426 7.63312H161.436L168.153 20.6851L167.135 22.2371Z" fill="#B6B6B6"/>
<path d="M177.342 25.5955C177.105 25.5955 176.876 25.5786 176.656 25.5447C176.435 25.5277 176.189 25.4853 175.918 25.4174L176.07 23.7382C176.359 23.8061 176.639 23.84 176.91 23.84C177.673 23.84 178.284 23.5432 178.742 22.9495C179.217 22.3389 179.573 21.406 179.81 20.1508C180.048 18.8787 180.201 17.2504 180.268 15.2659L180.523 7.63312H192.608V25.4429H190.751V8.75259L191.234 9.26144H181.719L182.177 8.72715L181.948 15.215C181.88 16.996 181.753 18.5395 181.566 19.8455C181.379 21.1346 181.108 22.2117 180.752 23.0767C180.396 23.9248 179.938 24.5609 179.378 24.9849C178.818 25.392 178.14 25.5955 177.342 25.5955Z" fill="#B6B6B6"/>
<path d="M198.616 25.4429V7.63312H200.168L208.31 21.5247H207.496L215.561 7.63312H217.113V25.4429H215.307V10.4572H215.739L208.31 23.1785H207.419L199.939 10.4572H200.423V25.4429H198.616Z" fill="#B6B6B6"/>
<path d="M220.494 25.4429L228.636 7.63312H230.493L238.635 25.4429H236.65L229.17 8.72715H229.933L222.453 25.4429H220.494ZM223.7 20.6851L224.26 19.1586H234.615L235.174 20.6851H223.7Z" fill="#B6B6B6"/>
<path d="M252.504 23.8146L252.046 24.3234V7.63312H253.904V24.3234L253.395 23.8146H262.529L262.02 24.3234V7.63312H263.877V25.4429H242.048V7.63312H243.905V24.3234L243.421 23.8146H252.504Z" fill="#B6B6B6"/>
<path d="M277.661 25.5955C276.321 25.5955 275.083 25.375 273.946 24.934C272.81 24.4761 271.826 23.84 270.995 23.0258C270.164 22.2117 269.511 21.2534 269.036 20.1508C268.578 19.0483 268.349 17.8441 268.349 16.538C268.349 15.232 268.578 14.0277 269.036 12.9252C269.511 11.8227 270.164 10.8643 270.995 10.0502C271.843 9.236 272.835 8.60842 273.972 8.16742C275.108 7.70945 276.346 7.48047 277.686 7.48047C278.975 7.48047 280.188 7.70097 281.324 8.14197C282.461 8.56602 283.419 9.21056 284.199 10.0756L283.004 11.2714C282.274 10.5251 281.469 9.9908 280.587 9.66853C279.705 9.32929 278.755 9.15967 277.737 9.15967C276.668 9.15967 275.676 9.34625 274.76 9.71941C273.844 10.0756 273.047 10.5929 272.369 11.2714C271.69 11.9329 271.156 12.7131 270.766 13.6121C270.393 14.4941 270.206 15.4694 270.206 16.538C270.206 17.6066 270.393 18.5904 270.766 19.4893C271.156 20.3713 271.69 21.1516 272.369 21.83C273.047 22.4916 273.844 23.0089 274.76 23.382C275.676 23.7382 276.668 23.9163 277.737 23.9163C278.755 23.9163 279.705 23.7467 280.587 23.4075C281.469 23.0683 282.274 22.5255 283.004 21.7792L284.199 22.975C283.419 23.84 282.461 24.493 281.324 24.934C280.188 25.375 278.967 25.5955 277.661 25.5955Z" fill="#B6B6B6"/>
<path d="M289.767 15.5966H299.18V17.1995H289.767V15.5966ZM289.97 23.8146H300.682V25.4429H288.088V7.63312H300.3V9.26144H289.97V23.8146Z" fill="#B6B6B6"/>
<path d="M304.859 25.4429V7.63312H311.525C313.034 7.63312 314.332 7.87907 315.417 8.37096C316.503 8.84588 317.334 9.54131 317.911 10.4572C318.504 11.3562 318.801 12.4502 318.801 13.7393C318.801 14.9945 318.504 16.08 317.911 16.996C317.334 17.8949 316.503 18.5904 315.417 19.0823C314.332 19.5741 313.034 19.8201 311.525 19.8201H305.902L306.742 18.9296V25.4429H304.859ZM306.742 19.0823L305.902 18.1663H311.474C313.255 18.1663 314.603 17.7847 315.519 17.0214C316.452 16.2412 316.919 15.1471 316.919 13.7393C316.919 12.3145 316.452 11.212 315.519 10.4318C314.603 9.65156 313.255 9.26144 311.474 9.26144H305.902L306.742 8.37096V19.0823Z" fill="#B6B6B6"/>
<path d="M322.649 25.4429V7.63312H330.052C331.935 7.63312 333.411 8.02324 334.479 8.80348C335.565 9.56675 336.108 10.6947 336.108 12.1873C336.108 13.663 335.59 14.7825 334.556 15.5457C333.521 16.2921 332.164 16.6652 330.485 16.6652L330.917 16.0292C332.902 16.0292 334.412 16.4193 335.446 17.1995C336.481 17.9797 336.998 19.1247 336.998 20.6342C336.998 22.1608 336.455 23.3481 335.37 24.1962C334.301 25.0273 332.69 25.4429 330.536 25.4429H322.649ZM324.506 23.9418H330.536C332.045 23.9418 333.19 23.6619 333.971 23.1022C334.751 22.5424 335.141 21.6774 335.141 20.507C335.141 19.3536 334.751 18.5056 333.971 17.9628C333.19 17.42 332.045 17.1486 330.536 17.1486H324.506V23.9418ZM324.506 15.6984H329.951C331.325 15.6984 332.376 15.427 333.105 14.8842C333.852 14.3245 334.225 13.5019 334.225 12.4163C334.225 11.3308 333.852 10.5166 333.105 9.97383C332.376 9.4141 331.325 9.13423 329.951 9.13423H324.506V15.6984Z" fill="#B6B6B6"/>
<path d="M341.706 25.4429V7.63312H343.563V22.3898L354.961 7.63312H356.666V25.4429H354.809V10.7117L343.41 25.4429H341.706Z" fill="#B6B6B6"/>
<path d="M370.461 25.5955C369.121 25.5955 367.883 25.375 366.747 24.934C365.61 24.4761 364.626 23.84 363.795 23.0258C362.964 22.2117 362.311 21.2534 361.836 20.1508C361.378 19.0483 361.149 17.8441 361.149 16.538C361.149 15.232 361.378 14.0277 361.836 12.9252C362.311 11.8227 362.964 10.8643 363.795 10.0502C364.643 9.236 365.636 8.60842 366.772 8.16742C367.909 7.70945 369.147 7.48047 370.487 7.48047C371.776 7.48047 372.989 7.70097 374.125 8.14197C375.261 8.56602 376.22 9.21056 377 10.0756L375.804 11.2714C375.075 10.5251 374.269 9.9908 373.387 9.66853C372.505 9.32929 371.555 9.15967 370.538 9.15967C369.469 9.15967 368.477 9.34625 367.561 9.71941C366.645 10.0756 365.848 10.5929 365.169 11.2714C364.491 11.9329 363.956 12.7131 363.566 13.6121C363.193 14.4941 363.007 15.4694 363.007 16.538C363.007 17.6066 363.193 18.5904 363.566 19.4893C363.956 20.3713 364.491 21.1516 365.169 21.83C365.848 22.4916 366.645 23.0089 367.561 23.382C368.477 23.7382 369.469 23.9163 370.538 23.9163C371.555 23.9163 372.505 23.7467 373.387 23.4075C374.269 23.0683 375.075 22.5255 375.804 21.7792L377 22.975C376.22 23.84 375.261 24.493 374.125 24.934C372.989 25.375 371.767 25.5955 370.461 25.5955Z" fill="#B6B6B6"/>
<path d="M124.032 1.59033V31.0082" stroke="#C8C8C8" stroke-width="2"/>
<defs>
<linearGradient id="paint0_linear_1107_433" x1="16.2622" y1="9.68263" x2="79.6369" y2="9.62939" gradientUnits="userSpaceOnUse">
<stop stop-color="#2F83C5"/>
<stop offset="1" stop-color="#00ADA9"/>
</linearGradient>
</defs>
</svg>
