<?xml version="1.0" encoding="utf-8"?><svg viewBox="0 0 161 181" xmlns="http://www.w3.org/2000/svg" xmlns:xlink="http://www.w3.org/1999/xlink"><style>:root>svg{display:none}:root>svg:target{display:block}</style><svg fill="none" viewBox="0 0 28 16" id="arrow-l" xmlns="http://www.w3.org/2000/svg"><path d="M.293 8.707a1 1 0 0 1 0-1.414L6.657.929A1 1 0 0 1 8.07 2.343L2.414 8l5.657 5.657a1 1 0 1 1-1.414 1.414L.293 8.707ZM27.5 9H1V7h26.5v2Z" fill="gray"/></svg><svg fill="none" viewBox="0 0 21 16" id="arrow-r" xmlns="http://www.w3.org/2000/svg"><path d="M20.707 8.707a1 1 0 0 0 0-1.414L14.343.929a1 1 0 1 0-1.414 1.414L18.586 8l-5.657 5.657a1 1 0 0 0 1.414 1.414l6.364-6.364ZM0 9h20V7H0v2Z" fill="#fff"/></svg><svg fill="none" viewBox="0 0 19 20" id="check" xmlns="http://www.w3.org/2000/svg"><path d="m2 9 6 7 9-14" stroke="#53C2BB" stroke-width="4" stroke-linecap="round"/></svg><svg fill="none" viewBox="0 0 44 44" id="contacts-tel" xmlns="http://www.w3.org/2000/svg"><circle cx="22" cy="22" r="22" fill="#53C2BB"/><path d="M16.319 12.006 11.753 12c-.432.048-.767.388-.753.822.059 1.783.743 7.07 5.925 12.252 5.182 5.182 10.47 5.867 12.253 5.926.434.014.774-.32.822-.753l-.006-4.566a.929.929 0 0 0-.462-.909L26.079 22.8a.929.929 0 0 0-1.118.15l-1.445 1.445c-.22.22-.534.313-.824.203-.626-.238-1.808-.82-3.14-2.15-1.33-1.332-1.912-2.514-2.15-3.14-.11-.29-.016-.605.203-.824l1.445-1.445a.929.929 0 0 0 .15-1.118l-1.972-3.453a.929.929 0 0 0-.91-.462Z" stroke="#fff" stroke-width="2"/></svg><svg fill="none" viewBox="0 0 44 44" id="contacts-tg" xmlns="http://www.w3.org/2000/svg"><circle cx="22" cy="22" r="22" fill="#53C2BB"/><path fill-rule="evenodd" clip-rule="evenodd" d="m36.008 14.62-.01-.035c-.708-2.862-3.897-5.93-6.827-6.568l-.034-.006a37.96 37.96 0 0 0-14.28 0l-.033.006c-2.93.638-6.12 3.709-6.829 6.568l-.006.034a27.946 27.946 0 0 0 0 12.041l.009.035c.679 2.738 3.631 5.666 6.451 6.472v3.192c0 1.155 1.408 1.722 2.21.89l3.235-3.364c.702.04 1.403.062 2.105.062 2.386 0 4.77-.225 7.14-.676l.034-.006c2.929-.639 6.12-3.71 6.828-6.568l.01-.035a27.957 27.957 0 0 0 0-12.043h-.003Zm-2.56 11.46c-.472 1.865-2.895 4.186-4.818 4.616-2.52.479-5.06.684-7.595.613a.18.18 0 0 0-.135.054l-2.362 2.425-2.511 2.578a.295.295 0 0 1-.508-.203v-5.289a.18.18 0 0 0-.149-.177c-1.925-.43-4.347-2.748-4.819-4.616a25.343 25.343 0 0 1 0-10.883c.474-1.865 2.895-4.185 4.818-4.616a35.34 35.34 0 0 1 13.262 0c1.925.43 4.346 2.749 4.818 4.616.79 3.61.79 7.27 0 10.88l-.002.002Zm-7.262 2.443c.08-.026.163-.047.246-.068.178-.045.354-.09.51-.175.808-.434 1.368-1.113 1.753-1.93.211-.446.083-.878-.291-1.207-.36-.316-.747-.592-1.135-.869l-.093-.067a28.053 28.053 0 0 0-1.304-.889c-.444-.281-.972-.277-1.385.061-.15.122-.27.283-.39.444-.22.295-.44.589-.831.634-.33.038-.619-.084-.904-.204a11.48 11.48 0 0 0-.084-.035c-1.953-.813-3.143-2.324-3.85-4.264a.862.862 0 0 1 .057-.757c.078-.126.184-.221.298-.315l.07-.058c.106-.088.212-.177.326-.255.57-.388.66-1.087.342-1.66-.513-.928-1.148-1.77-1.839-2.573-.32-.37-.751-.492-1.188-.281-.562.27-1.078.636-1.48 1.112-.43.509-.837 1.207-.558 1.883l.088.215c.272.668.545 1.34.864 1.988.744 1.512 1.624 2.942 2.75 4.208 1.978 2.225 4.474 3.678 7.188 4.804.179.073.367.125.563.179.09.025.183.05.277.079Zm2.91-9.44c-.626-3.51-3.54-5.864-7.089-5.964l-.001-.001a1.68 1.68 0 0 0-.205 0c-.252.015-.475.224-.428.49.054.295.35.326.596.351l.046.005c.128.014.255.025.383.036.275.024.55.047.82.096 2.631.47 4.74 2.657 5.107 5.3.056.397.083.797.11 1.197l.022.317c.02.256.148.493.432.49.274-.003.42-.245.399-.5a83.22 83.22 0 0 1-.017-.227 16.19 16.19 0 0 0-.174-1.59ZM27.4 20.11l-.01-.189a15.148 15.148 0 0 0-.028-.422 1.428 1.428 0 0 0-.02-.139l-.014-.084c-.245-1.644-1.087-2.876-2.56-3.656-.723-.383-1.51-.558-2.325-.605-.247-.014-.413.149-.424.377-.013.244.12.4.366.434l.234.03a9.9 9.9 0 0 1 .376.052c.464.079.92.207 1.342.412a4.015 4.015 0 0 1 1.683 1.58c.378.654.542 1.405.544 2.157 0 .114.006.236.042.342.126.36.666.315.76-.042.018-.072.025-.149.03-.201l.004-.045Zm-2.693-.517c.03.273.19.436.486.432v-.002c.135-.01.274-.102.317-.29.024-.102.015-.213.006-.319l-.002-.025c-.14-1.62-1.125-2.332-2.5-2.431a.427.427 0 0 0-.45.342c-.038.222.092.413.329.47.102.026.205.035.31.045.117.011.235.022.35.056.173.05.337.127.48.231.307.224.5.56.59.924.037.15.054.305.072.46.003.036.007.072.012.107Z" fill="#fff"/></svg><svg fill="none" viewBox="0 0 44 44" id="contacts-wa" xmlns="http://www.w3.org/2000/svg"><g clip-path="url(#fa)"><path d="M22 44c12.15 0 22-9.85 22-22S34.15 0 22 0 0 9.85 0 22s9.85 22 22 22Z" fill="#53C2BB"/><path d="M35.04 21.664c0 7.017-5.731 12.705-12.803 12.705-2.245 0-4.354-.574-6.19-1.58L8.96 35.04l2.31-6.816a12.567 12.567 0 0 1-1.837-6.56c0-7.016 5.732-12.705 12.803-12.705 7.073 0 12.804 5.688 12.804 12.704ZM22.237 10.983c-5.936 0-10.764 4.792-10.764 10.681 0 2.337.762 4.502 2.05 6.263l-1.345 3.967 4.137-1.315a10.76 10.76 0 0 0 5.922 1.767c5.935 0 10.764-4.791 10.764-10.68 0-5.89-4.828-10.683-10.764-10.683Zm6.465 13.607c-.079-.13-.288-.208-.602-.363s-1.857-.91-2.144-1.013c-.288-.103-.498-.156-.707.156-.209.311-.81 1.012-.994 1.22-.183.209-.367.235-.68.08-.314-.156-1.325-.486-2.524-1.547-.932-.825-1.563-1.844-1.746-2.155-.183-.312-.019-.48.138-.636.141-.14.314-.363.471-.545.158-.181.21-.311.314-.52.105-.207.052-.389-.026-.545-.078-.155-.707-1.688-.968-2.311-.262-.624-.523-.52-.707-.52-.183 0-.392-.026-.601-.026-.21 0-.55.078-.838.39-.287.311-1.098 1.065-1.098 2.597s1.125 3.012 1.282 3.22c.157.208 2.17 3.454 5.361 4.701 3.19 1.247 3.19.83 3.766.779.575-.052 1.857-.753 2.12-1.48.261-.729.261-1.352.183-1.482Z" fill="#fff"/></g><defs><clipPath id="fa"><path fill="#fff" d="M0 0h44v44H0z"/></clipPath></defs></svg><svg fill="none" viewBox="0 0 161 181" id="dest-1" xmlns="http://www.w3.org/2000/svg"><path d="M72.754 2.074a15.5 15.5 0 0 1 15.492 0l65.008 37.509A15.481 15.481 0 0 1 161 52.991v75.018a15.482 15.482 0 0 1-7.746 13.408l-65.008 37.509a15.504 15.504 0 0 1-15.492 0L7.746 141.417A15.481 15.481 0 0 1 0 128.009V52.991a15.48 15.48 0 0 1 7.746-13.408L72.754 2.074Z" fill="#00B7B7"/><path d="M73.66 100.805c-10.97-7.253-13.098-23.938-3.493-33.753l13.862-13.359a22.054 22.054 0 0 1 31.435-.218c8.678 8.452 8.678 22.247.219 30.917L102.53 97.751c0 .218-.218.218-.218 0 1.146-4.471.709-10.087-.71-14.286-.273-.436 0-.927.218-1.145l6.113-6.325c3.984-4.199 3.984-11.014-.218-14.995-3.984-4.199-10.806-4.199-14.79 0L82.61 71.306c-.51.547-1.04 1.096-1.571 1.645-2.43 2.511-4.887 5.049-5.47 7.733-.49 2.563-.218 4.908.928 7.252.928 1.909 2.566 3.544 4.203 4.471.218.219.436.655.218 1.145-1.91 2.781-3.766 4.908-6.112 7.253-.219.218-.655.218-1.146 0Z" fill="#fff"/><path d="M96.69 86.737c1.42 5.398.983 11.014-1.855 15.921-1.112 2.294-6.844 8.143-11.51 12.906-2.434 2.484-4.58 4.672-5.627 5.906-8.404 8.67-22.485 8.67-31.162.218-8.678-8.669-8.678-22.737-.219-31.407l12.88-13.141c0-.218.218-.218.218 0-.709 4.471-.49 10.087.928 14.286.273.436 0 .927-.218 1.145l-6.112 6.325c-3.984 4.199-3.984 11.014.218 14.995 4.202 3.98 11.024 3.98 15.008-.218 1.064-1.172 3.056-3.163 5.048-5.153 1.992-1.99 3.984-3.98 5.048-5.153.433-.465.885-.935 1.343-1.411 2.551-2.65 5.281-5.487 5.698-8.676.49-2.563-.437-5.126-1.146-6.543-.928-1.854-2.566-3.272-4.203-4.199-.49-.49-.71-.927-.49-1.418 1.363-2.835 3.492-5.18 5.839-7.034.49-.218.927-.218 1.419 0 4.42 2.836 7.75 7.743 8.895 12.65Z" fill="#fff"/></svg><svg fill="none" viewBox="0 0 161 181" id="dest-2" xmlns="http://www.w3.org/2000/svg"><path d="M72.754 2.074a15.5 15.5 0 0 1 15.492 0l65.008 37.509A15.481 15.481 0 0 1 161 52.991v75.018a15.482 15.482 0 0 1-7.746 13.408l-65.008 37.509a15.504 15.504 0 0 1-15.492 0L7.746 141.417A15.481 15.481 0 0 1 0 128.009V52.991a15.48 15.48 0 0 1 7.746-13.408L72.754 2.074Z" fill="#007AB7"/><path d="M80.971 42c-11.602.023-20.992 9.522-21.014 21.26.134 6.083 2.861 11.805 7.511 15.673l-6.281 11.76a7.317 7.317 0 0 0-1.23-.09c-5.03-.068-9.166 4.025-9.233 9.114-.067 5.089 3.98 9.273 9.01 9.34 5.03.068 9.165-4.025 9.232-9.114.023-2.42-.872-4.75-2.526-6.49l8.54-16.036-2.258-1.515c-6.885-4.636-8.763-14.045-4.18-21.01 4.582-6.967 13.882-8.866 20.767-4.23 5.701 3.845 8.115 11.105 5.835 17.64l5.634 2.081c3.89-11.059-1.833-23.226-12.765-27.14A20.274 20.274 0 0 0 80.97 42Zm0 12.145c-4.985.09-8.942 4.23-8.875 9.25.067 4.93 4.002 8.888 8.875 8.979.402 0 .827-.023 1.23-.09l8.249 13.298 1.497 2.465 2.527-1.515c7.198-4.207 16.386-1.697 20.544 5.586 4.158 7.282 1.677 16.578-5.522 20.784-6.147 3.596-13.927 2.33-18.689-2.985l-4.493 3.98c7.735 8.753 21.014 9.522 29.665 1.719 8.652-7.802 9.412-21.26 1.699-30.012a20.906 20.906 0 0 0-15.693-7.101c-2.638.18-5.231.904-7.6 2.08L87.542 69.48a9.058 9.058 0 0 0 2.437-6.174c-.022-5.066-4.046-9.137-9.009-9.16Zm0 6.084c1.654 0 2.996 1.357 3.018 3.03a3.048 3.048 0 0 1-2.996 3.054c-1.654 0-2.995-1.357-3.018-3.031v-.023c-.022-1.65 1.297-3.008 2.929-3.03h.067Zm-24.479 18.5c-11.446 1.968-19.136 12.936-17.191 24.516 1.945 11.58 12.787 19.36 24.233 17.392 2.437-.43 4.806-1.266 6.952-2.533 5.41-3.347 9.01-9.001 9.77-15.379h13.323c1.655 4.749 6.796 7.237 11.491 5.564 4.695-1.674 7.154-6.876 5.499-11.625-1.654-4.75-6.796-7.237-11.49-5.564a9.11 9.11 0 0 0-5.5 5.564H75.002v3.03c0 8.391-6.729 15.198-15.045 15.198-8.294 0-15.023-6.807-15.023-15.22 0-5.45 2.884-10.472 7.556-13.186a14.596 14.596 0 0 1 4.963-1.809l-.961-5.948Zm3.465 17.935c1.654 0 2.996 1.357 2.996 3.03 0 1.674-1.342 3.031-2.996 3.031s-2.995-1.357-2.995-3.03c-.023-1.652 1.296-3.009 2.928-3.031h.067Zm42.028 0c1.654 0 2.996 1.357 2.996 3.03 0 1.674-1.342 3.031-2.996 3.031s-2.996-1.357-2.996-3.03c-.022-1.652 1.297-3.009 2.929-3.031h.067Z" fill="#fff"/></svg><svg fill="none" viewBox="0 0 161 181" id="dest-3" xmlns="http://www.w3.org/2000/svg"><path d="M72.754 2.074a15.5 15.5 0 0 1 15.492 0l65.008 37.509A15.481 15.481 0 0 1 161 52.991v75.018a15.482 15.482 0 0 1-7.746 13.408l-65.008 37.509a15.504 15.504 0 0 1-15.492 0L7.746 141.417A15.481 15.481 0 0 1 0 128.009V52.991a15.48 15.48 0 0 1 7.746-13.408L72.754 2.074Z" fill="#0098B7"/><path fill-rule="evenodd" clip-rule="evenodd" d="M95.248 70.535c8.153 0 14.762-6.612 14.762-14.767 0-8.156-6.609-14.768-14.763-14.768-8.153 0-14.762 6.612-14.762 14.767 0 2.579.66 5.003 1.822 7.113l-14.1 11.103a19.871 19.871 0 0 0-13.257-5.044C43.931 68.939 35 77.873 35 88.895c0 11.021 8.932 19.956 19.95 19.956 5.933 0 11.262-2.592 14.916-6.705l16.126 8.559a14.709 14.709 0 0 0-1.517 6.527c0 8.156 6.61 14.768 14.762 14.768 8.154 0 14.763-6.612 14.763-14.768 0-8.155-6.609-14.767-14.763-14.767a14.693 14.693 0 0 0-9.155 3.182L73.3 96.738c1.03-2.407 1.6-5.059 1.6-7.843 0-3.628-.968-7.03-2.659-9.96l14.287-11.25a14.693 14.693 0 0 0 8.72 2.85Zm0-5.588c5.068 0 9.176-4.11 9.176-9.18 0-5.07-4.108-9.18-9.177-9.18-5.068 0-9.176 4.11-9.176 9.18 0 5.07 4.108 9.18 9.177 9.18ZM69.313 88.895c0 7.935-6.43 14.368-14.364 14.368-7.932 0-14.363-6.433-14.363-14.368 0-7.936 6.43-14.369 14.364-14.369 7.932 0 14.363 6.433 14.363 14.369Zm39.101 28.337c0 5.07-4.108 9.18-9.177 9.18-5.068 0-9.176-4.11-9.176-9.18 0-5.069 4.108-9.179 9.176-9.179 5.069 0 9.177 4.11 9.177 9.179Z" fill="#fff"/></svg><svg fill="none" viewBox="0 0 145 145" id="estimate3" xmlns="http://www.w3.org/2000/svg"><path d="M8 72.5C8 108.122 36.878 137 72.5 137S137 108.122 137 72.5 108.122 8 72.5 8 8 36.878 8 72.5Zm121.405 0c0 31.428-25.477 56.905-56.905 56.905S15.595 103.928 15.595 72.5 41.072 15.595 72.5 15.595s56.905 25.477 56.905 56.905Z" fill="#D9D9D9"/><path d="M72.5 8a64.498 64.498 0 0 1 61.337 44.55 64.502 64.502 0 0 1-23.394 72.109 64.5 64.5 0 0 1-99.31-72.018l7.226 2.338A56.906 56.906 0 1 0 72.5 15.595V8Z" fill="#00B7B7"/><circle cx="72.5" cy="72.5" r="71" stroke="#00B7B7" stroke-width="3" stroke-miterlimit="5.759"/></svg><svg fill="none" viewBox="0 0 95 62" id="gives1" xmlns="http://www.w3.org/2000/svg"><path d="M24.247 51.125a2.85 2.85 0 0 0 .472 1.58 2.815 2.815 0 0 0 4.35.44 2.843 2.843 0 0 0 .617-3.096 2.838 2.838 0 0 0-1.041-1.276 2.817 2.817 0 0 0-3.567.35 2.848 2.848 0 0 0-.831 2.002ZM76.072 51.125a2.85 2.85 0 0 0 .473 1.581 2.813 2.813 0 0 0 4.353.436 2.845 2.845 0 0 0 .61-3.1 2.838 2.838 0 0 0-1.044-1.274 2.818 2.818 0 0 0-3.564.357 2.847 2.847 0 0 0-.828 2ZM39.767 41.772a1.127 1.127 0 0 0-.596.101 1.458 1.458 0 0 0-.516.413 2.054 2.054 0 0 0-.35.655 2.537 2.537 0 0 0-.123.786c0 .271.042.54.124.787.08.248.2.471.349.655.148.184.324.324.516.413.191.088.394.123.596.101h21.826c.202.022.405-.013.597-.101a1.46 1.46 0 0 0 .516-.413c.148-.184.267-.406.348-.655a2.54 2.54 0 0 0 .124-.787c0-.27-.042-.538-.123-.786a2.058 2.058 0 0 0-.35-.655 1.46 1.46 0 0 0-.515-.413 1.127 1.127 0 0 0-.597-.101H39.767ZM5.45 35.492a1.465 1.465 0 0 0-.616.08c-.198.072-.38.184-.533.331a1.57 1.57 0 0 0-.36.524 1.619 1.619 0 0 0 .36 1.783c.154.147.335.26.533.33.197.07.407.098.615.081h19.382c.208.017.418-.01.615-.081.198-.07.379-.183.533-.33a1.57 1.57 0 0 0 .36-.524 1.62 1.62 0 0 0 0-1.26 1.57 1.57 0 0 0-.36-.523 1.506 1.506 0 0 0-.533-.33 1.465 1.465 0 0 0-.616-.081H5.45ZM49.814 16.193 36.68 28.898l-6.832-6.608a1.478 1.478 0 0 0-.48-.354 1.522 1.522 0 0 0-1.685.276 1.432 1.432 0 0 0-.331.488 1.392 1.392 0 0 0 .038 1.141c.087.178.21.336.363.466l7.88 7.62c.277.27.654.42 1.047.42.392 0 .77-.15 1.047-.42l14.154-13.69c.245-.274.374-.628.36-.991a1.411 1.411 0 0 0-.435-.963 1.505 1.505 0 0 0-.997-.416 1.512 1.512 0 0 0-1.023.353" fill="#fff"/><path d="M20.912 51.318c0-1.268.373-2.508 1.072-3.562a6.37 6.37 0 0 1 2.853-2.362 6.308 6.308 0 0 1 3.674-.365 6.342 6.342 0 0 1 3.255 1.755 6.43 6.43 0 0 1 1.74 3.283 6.463 6.463 0 0 1-.361 3.705 6.401 6.401 0 0 1-2.342 2.878 6.32 6.32 0 0 1-8.029-.798 6.44 6.44 0 0 1-1.862-4.534Zm51.616 0c0-1.268.373-2.509 1.072-3.563a6.37 6.37 0 0 1 2.855-2.362 6.308 6.308 0 0 1 3.675-.363 6.342 6.342 0 0 1 3.255 1.757 6.43 6.43 0 0 1 1.739 3.286 6.462 6.462 0 0 1-.366 3.706 6.401 6.401 0 0 1-2.346 2.875 6.321 6.321 0 0 1-3.535 1.077 6.331 6.331 0 0 1-4.49-1.882 6.44 6.44 0 0 1-1.86-4.53Zm15.638-14.166V35.49h3.325v3.353h-1.667a1.66 1.66 0 0 1-1.173-.496 1.688 1.688 0 0 1-.485-1.185M69.438 16.565h12.988l2.397 9.66H69.4l.038-9.66Zm0-6.309H80.44c.855 0 1.675.342 2.28.951.606.61.948 1.435.95 2.298v.104h-14.27l.037-3.353ZM9.965.954c-.785.027-1.529.36-2.076.929a3.073 3.073 0 0 0-.855 2.121v26.812a1.495 1.495 0 0 0 .385 1.123 1.47 1.47 0 0 0 1.08.477 1.46 1.46 0 0 0 1.08-.476 1.486 1.486 0 0 0 .386-1.125V4.006a.095.095 0 0 1 .065-.09.093.093 0 0 1 .038-.005h56.26a.093.093 0 0 1 .096.056.094.094 0 0 1 .008.038v26.812a1.495 1.495 0 0 0 .385 1.123 1.47 1.47 0 0 0 1.08.477 1.459 1.459 0 0 0 1.08-.476 1.486 1.486 0 0 0 .386-1.125v-1.671h17.333c1.014 0 2.003.324 2.822.926a4.825 4.825 0 0 1 1.738 2.426h-4.56a1.45 1.45 0 0 0-1.033.432 1.474 1.474 0 0 0-.428 1.042v3.154c0 1.228.483 2.406 1.344 3.276a4.579 4.579 0 0 0 3.245 1.361h1.666v6.507h-3.839a9.352 9.352 0 0 0-3.385-4.572 9.226 9.226 0 0 0-5.39-1.74 9.226 9.226 0 0 0-5.388 1.74 9.353 9.353 0 0 0-3.385 4.572H69.4V37.124a1.488 1.488 0 0 0-.468-.971 1.463 1.463 0 0 0-1.995 0c-.271.253-.438.6-.468.971v11.144H36.045a9.353 9.353 0 0 0-3.386-4.572 9.227 9.227 0 0 0-5.389-1.74 9.227 9.227 0 0 0-5.389 1.74 9.353 9.353 0 0 0-3.385 4.572h-8.428a.102.102 0 0 1-.07-.027.104.104 0 0 1-.033-.068v-3.239h6.358c.369-.03.713-.198.963-.472a1.49 1.49 0 0 0 0-2.012 1.465 1.465 0 0 0-.963-.472H2.277a1.457 1.457 0 0 0-1.114.389 1.483 1.483 0 0 0-.473 1.09 1.494 1.494 0 0 0 .473 1.089 1.469 1.469 0 0 0 1.114.388h4.757v3.258c.003.81.323 1.586.892 2.158a3.021 3.021 0 0 0 2.142.893h7.913v.094a9.425 9.425 0 0 0 2.26 6.117 9.278 9.278 0 0 0 5.672 3.148h2.706a9.269 9.269 0 0 0 5.673-3.146 9.415 9.415 0 0 0 2.258-6.119v-.094h33.047v.094a9.415 9.415 0 0 0 2.278 6.118 9.268 9.268 0 0 0 5.69 3.128h2.707a9.278 9.278 0 0 0 5.671-3.148 9.425 9.425 0 0 0 2.26-6.117v-.094h4.795c.381-.01.743-.17 1.009-.445a1.48 1.48 0 0 0 .414-1.029V33.97a7.84 7.84 0 0 0-1.867-5.07 7.718 7.718 0 0 0-4.688-2.627l-2.425-9.784c.328-.071.622-.253.833-.516a1.49 1.49 0 0 0 .328-.929v-1.577a6.24 6.24 0 0 0-1.808-4.388 6.135 6.135 0 0 0-4.353-1.817H69.4V4.004a3.073 3.073 0 0 0-.86-2.124A3.022 3.022 0 0 0 66.46.954H9.965Z" fill="#fff"/><path d="M49.814 16.193 36.68 28.898l-6.832-6.608a1.478 1.478 0 0 0-.48-.354 1.522 1.522 0 0 0-1.685.276 1.432 1.432 0 0 0-.331.488 1.392 1.392 0 0 0 .038 1.141c.087.178.21.336.363.466l7.88 7.62c.277.27.654.42 1.047.42.392 0 .77-.15 1.047-.42l14.154-13.69c.245-.274.374-.628.36-.991a1.411 1.411 0 0 0-.435-.963 1.505 1.505 0 0 0-.997-.416 1.512 1.512 0 0 0-1.023.353m38.38 20.932V35.49h3.325v3.353h-1.667a1.66 1.66 0 0 1-1.173-.496 1.688 1.688 0 0 1-.485-1.185m-63.92 13.963a2.85 2.85 0 0 0 .473 1.58 2.815 2.815 0 0 0 4.35.44 2.843 2.843 0 0 0 .617-3.096 2.838 2.838 0 0 0-1.041-1.276 2.817 2.817 0 0 0-3.567.35 2.848 2.848 0 0 0-.831 2.002Zm51.826 0a2.85 2.85 0 0 0 .473 1.581 2.813 2.813 0 0 0 4.353.436 2.845 2.845 0 0 0 .61-3.1 2.838 2.838 0 0 0-1.044-1.274 2.818 2.818 0 0 0-3.564.357 2.847 2.847 0 0 0-.828 2Zm-36.305-9.353a1.127 1.127 0 0 0-.596.101 1.458 1.458 0 0 0-.516.413 2.054 2.054 0 0 0-.35.655 2.537 2.537 0 0 0-.123.786c0 .271.042.54.124.787.08.248.2.471.349.655.148.184.324.324.516.413.191.088.394.123.596.101h21.826c.202.022.405-.013.597-.101a1.46 1.46 0 0 0 .516-.413c.148-.184.267-.406.348-.655a2.54 2.54 0 0 0 .124-.787c0-.27-.042-.538-.123-.786a2.058 2.058 0 0 0-.35-.655 1.46 1.46 0 0 0-.515-.413 1.127 1.127 0 0 0-.597-.101H39.767ZM5.45 35.492a1.465 1.465 0 0 0-.615.08c-.198.072-.38.184-.533.331a1.57 1.57 0 0 0-.36.524 1.619 1.619 0 0 0 .36 1.783c.154.147.335.26.533.33.197.07.407.098.615.081h19.382c.208.017.418-.01.615-.081.198-.07.379-.183.533-.33a1.57 1.57 0 0 0 .36-.524 1.62 1.62 0 0 0 0-1.26 1.57 1.57 0 0 0-.36-.523 1.506 1.506 0 0 0-.533-.33 1.465 1.465 0 0 0-.616-.081H5.45Zm15.463 15.826c0-1.268.373-2.508 1.072-3.562a6.37 6.37 0 0 1 2.853-2.362 6.308 6.308 0 0 1 3.674-.365 6.342 6.342 0 0 1 3.255 1.755 6.43 6.43 0 0 1 1.74 3.283 6.463 6.463 0 0 1-.361 3.705 6.401 6.401 0 0 1-2.342 2.878 6.32 6.32 0 0 1-8.029-.798 6.44 6.44 0 0 1-1.862-4.534Zm51.616 0c0-1.268.373-2.509 1.072-3.563a6.37 6.37 0 0 1 2.855-2.362 6.308 6.308 0 0 1 3.675-.363 6.342 6.342 0 0 1 3.255 1.757 6.43 6.43 0 0 1 1.739 3.286 6.462 6.462 0 0 1-.366 3.706 6.401 6.401 0 0 1-2.346 2.875 6.321 6.321 0 0 1-3.535 1.077 6.331 6.331 0 0 1-4.49-1.882 6.44 6.44 0 0 1-1.86-4.53Zm-3.09-34.753h12.988l2.397 9.66H69.4l.038-9.66Zm0-6.309H80.44c.855 0 1.675.342 2.28.951.606.61.948 1.435.95 2.298v.104h-14.27l.037-3.353ZM9.965.954c-.785.027-1.529.36-2.076.929a3.073 3.073 0 0 0-.855 2.121v26.812a1.495 1.495 0 0 0 .385 1.123 1.47 1.47 0 0 0 1.08.477 1.46 1.46 0 0 0 1.08-.476 1.486 1.486 0 0 0 .386-1.125V4.006a.095.095 0 0 1 .065-.09.093.093 0 0 1 .038-.005h56.26a.093.093 0 0 1 .096.056.094.094 0 0 1 .008.038v26.812a1.495 1.495 0 0 0 .385 1.123 1.47 1.47 0 0 0 1.08.477 1.459 1.459 0 0 0 1.08-.476 1.486 1.486 0 0 0 .386-1.125v-1.671h17.333c1.014 0 2.003.324 2.822.926a4.825 4.825 0 0 1 1.738 2.426h-4.56a1.45 1.45 0 0 0-1.033.432 1.474 1.474 0 0 0-.428 1.042v3.154c0 1.228.483 2.406 1.344 3.276a4.579 4.579 0 0 0 3.245 1.361h1.666v6.507h-3.839a9.352 9.352 0 0 0-3.385-4.572 9.226 9.226 0 0 0-5.39-1.74 9.226 9.226 0 0 0-5.388 1.74 9.353 9.353 0 0 0-3.385 4.572H69.4V37.124a1.488 1.488 0 0 0-.468-.971 1.463 1.463 0 0 0-1.995 0c-.271.253-.438.6-.468.971v11.144H36.045a9.353 9.353 0 0 0-3.386-4.572 9.227 9.227 0 0 0-5.389-1.74 9.227 9.227 0 0 0-5.389 1.74 9.353 9.353 0 0 0-3.385 4.572h-8.428a.102.102 0 0 1-.07-.027.104.104 0 0 1-.033-.068v-3.239h6.358c.369-.03.713-.198.963-.472a1.49 1.49 0 0 0 0-2.012 1.465 1.465 0 0 0-.963-.472H2.277a1.457 1.457 0 0 0-1.114.389 1.483 1.483 0 0 0-.473 1.09 1.494 1.494 0 0 0 .473 1.089 1.469 1.469 0 0 0 1.114.388h4.757v3.258c.003.81.323 1.586.892 2.158a3.021 3.021 0 0 0 2.142.893h7.913v.094a9.425 9.425 0 0 0 2.26 6.117 9.278 9.278 0 0 0 5.672 3.148h2.706a9.269 9.269 0 0 0 5.673-3.146 9.415 9.415 0 0 0 2.258-6.119v-.094h33.047v.094a9.415 9.415 0 0 0 2.278 6.118 9.268 9.268 0 0 0 5.69 3.128h2.707a9.278 9.278 0 0 0 5.671-3.148 9.425 9.425 0 0 0 2.26-6.117v-.094h4.795c.381-.01.743-.17 1.009-.445a1.48 1.48 0 0 0 .414-1.029V33.97a7.84 7.84 0 0 0-1.867-5.07 7.718 7.718 0 0 0-4.688-2.627l-2.425-9.784c.328-.071.622-.253.833-.516a1.49 1.49 0 0 0 .328-.929v-1.577a6.24 6.24 0 0 0-1.808-4.388 6.135 6.135 0 0 0-4.353-1.817H69.4V4.004a3.073 3.073 0 0 0-.86-2.124A3.022 3.022 0 0 0 66.46.954H9.965Z" stroke="#fff"/></svg><svg fill="none" viewBox="0 0 78 68" id="gives2" xmlns="http://www.w3.org/2000/svg"><path d="M76.319 25.211H54.03c-.39 0-.69.31-.69.68v4.12c0 .383.315.679.69.679h22.288c.389 0 .688-.31.688-.68v-4.12c0-.369-.314-.679-.689-.679ZM64.65 36.877H54.03c-.389 0-.688.31-.688.68v4.12c0 .383.314.678.689.678h10.62c.389 0 .688-.31.688-.679v-4.12c0-.369-.314-.68-.689-.68ZM35.592 17.532h-3.774a.965.965 0 0 0-.974.96v21.28c0 .31.15.59.404.767l12.957 9.318a.987.987 0 0 0 1.363-.207l2.232-3.012a.945.945 0 0 0-.225-1.344l-11.01-7.856V18.492c.016-.532-.434-.96-.973-.96Z" fill="#fff"/><path d="M64.111 47.686h-5.033c-.494 0-.943.251-1.213.665a27.685 27.685 0 0 1-3.88 4.784 27.56 27.56 0 0 1-8.822 5.863 28.048 28.048 0 0 1-10.8 2.14 28.05 28.05 0 0 1-10.799-2.14 27.894 27.894 0 0 1-8.822-5.863c-2.561-2.51-4.523-5.449-5.916-8.712a26.928 26.928 0 0 1-2.172-10.647c0-3.707.734-7.265 2.172-10.647 1.393-3.249 3.4-6.173 5.946-8.698a27.32 27.32 0 0 1 8.822-5.862 28.048 28.048 0 0 1 10.8-2.141c3.745 0 7.384.723 10.8 2.14a27.893 27.893 0 0 1 8.822 5.863 27.685 27.685 0 0 1 3.879 4.785c.255.413.719.664 1.213.664h5.033c.6 0 .989-.62.719-1.137C59.138 7.623 47.635.388 34.783.24 15.985.004.348 15.184.318 33.717.288 52.279 15.536 67.34 34.364 67.34c13.016 0 24.714-7.265 30.451-18.518.27-.517-.12-1.137-.704-1.137Z" fill="#fff"/></svg><svg fill="none" viewBox="0 0 71 71" id="gives3" xmlns="http://www.w3.org/2000/svg"><path fill-rule="evenodd" clip-rule="evenodd" d="M6.945 38.35h-.082A1.16 1.16 0 0 1 5.79 37.12 29.935 29.935 0 0 1 27.687 10.31a8.083 8.083 0 1 1 .333 2.305A27.623 27.623 0 0 0 8.098 37.275a1.158 1.158 0 0 1-1.153 1.076ZM39 5.52a5.785 5.785 0 0 0-3.214-.975 5.793 5.793 0 0 0-5.786 5.785 5.786 5.786 0 1 0 9-4.81ZM65.075 46.016A29.951 29.951 0 0 0 51.53 13.631a1.155 1.155 0 0 0-1.542 1.662c.089.123.201.228.33.307a27.66 27.66 0 0 1 12.57 29.614 8.116 8.116 0 1 0 2.187.802Zm-3.842 12.91a5.784 5.784 0 1 1 .015-11.568 5.784 5.784 0 0 1-.012 11.569h-.003ZM46.395 64.922a27.74 27.74 0 0 1-30.297-6.1 8.096 8.096 0 1 0-1.854 1.408 30.054 30.054 0 0 0 33.037 6.83 1.16 1.16 0 0 0 .665-1.526 1.157 1.157 0 0 0-1.549-.612h-.002ZM4.548 53.142a5.786 5.786 0 1 1 1.694 4.09 5.793 5.793 0 0 1-1.702-4.088l.008-.003Z" fill="#fff"/><path clip-rule="evenodd" d="M6.945 38.35h-.082A1.16 1.16 0 0 1 5.79 37.12 29.935 29.935 0 0 1 27.687 10.31a8.083 8.083 0 1 1 .333 2.305A27.623 27.623 0 0 0 8.098 37.275a1.158 1.158 0 0 1-1.153 1.076ZM39 5.52a5.785 5.785 0 0 0-3.214-.975 5.793 5.793 0 0 0-5.786 5.785 5.786 5.786 0 1 0 9-4.81ZM65.075 46.016A29.951 29.951 0 0 0 51.53 13.631a1.155 1.155 0 0 0-1.542 1.662c.089.123.201.228.33.307a27.66 27.66 0 0 1 12.57 29.614 8.116 8.116 0 1 0 2.187.802Zm-3.842 12.91a5.784 5.784 0 1 1 .015-11.568 5.784 5.784 0 0 1-.012 11.569h-.003ZM46.395 64.922a27.74 27.74 0 0 1-30.297-6.1 8.096 8.096 0 1 0-1.854 1.408 30.054 30.054 0 0 0 33.037 6.83 1.16 1.16 0 0 0 .665-1.526 1.157 1.157 0 0 0-1.549-.612h-.002ZM4.548 53.142a5.786 5.786 0 1 1 1.694 4.09 5.793 5.793 0 0 1-1.702-4.088l.008-.003Z" stroke="#fff" stroke-width="3"/></svg><svg fill="none" viewBox="0 0 84 77" id="gives4" xmlns="http://www.w3.org/2000/svg"><path fill-rule="evenodd" clip-rule="evenodd" d="m41.444 0 .14.086.121-.076.169.252 41.251 25.15-.222.337A3.986 3.986 0 0 1 84 28.5v43.625a4 4 0 0 1-4 4h-.007l-.167.212-.269-.212H4c-.137 0-.273-.007-.407-.02l-.294.232-.26-.328A4.002 4.002 0 0 1 0 72.125V28.5c0-1.065.416-2.033 1.095-2.75l-.22-.328L41.252.292 41.444 0ZM10.195 24.5h63.48L41.608 4.95 10.196 24.5ZM5 32.263v36.36l25.093-19.81L5 32.264Zm74-.576v37.628l-25.968-20.5L79 31.686Zm-37.373 24.65 7.01-4.623 24.587 19.411H9.9l24.588-19.411 7.01 4.623.064-.097.064.097ZM9.89 29.5l31.672 20.89L73.234 29.5H9.891Z" fill="#fff"/><path d="M19.5 11.625h44.125v26.76L41.98 52.738 19.5 38.363V11.625Z" fill="#5CD6C7" stroke="#fff" stroke-width="4"/><path fill-rule="evenodd" clip-rule="evenodd" d="M58.625 20.313h-35v-3h35v3Zm0 6.562h-35v-3h35v3Zm-35 7h35v-3h-35v3Z" fill="#fff"/></svg><svg fill="none" viewBox="0 0 75 67" id="gives5" xmlns="http://www.w3.org/2000/svg"><mask id="oa" fill="#fff"><path fill-rule="evenodd" clip-rule="evenodd" d="M63.62 38.002c.25-1.463.38-2.968.38-4.502C64 18.864 52.136 7 37.5 7a26.377 26.377 0 0 0-13.675 3.797 12.498 12.498 0 0 1-.771 12.827 12.498 12.498 0 0 1-11.673 5.374 26.674 26.674 0 0 0-.38 4.502C11 48.136 22.864 60 37.5 60c5.003 0 9.682-1.387 13.675-3.797a12.498 12.498 0 0 1 .77-12.827 12.498 12.498 0 0 1 11.673-5.374Zm6.588 2.775A33.62 33.62 0 0 0 71 33.5C71 14.998 56.002 0 37.5 0a33.344 33.344 0 0 0-18.65 5.667C13.264 2.524 6.103 4.123 2.416 9.515-1.27 14.905-.16 22.157 4.793 26.223A33.62 33.62 0 0 0 4 33.5C4 52.002 19 67 37.5 67a33.345 33.345 0 0 0 18.65-5.667c5.587 3.143 12.749 1.544 16.435-3.848 3.685-5.39 2.577-12.642-2.377-16.708Z"/></mask><path fill-rule="evenodd" clip-rule="evenodd" d="M63.62 38.002c.25-1.463.38-2.968.38-4.502C64 18.864 52.136 7 37.5 7a26.377 26.377 0 0 0-13.675 3.797 12.498 12.498 0 0 1-.771 12.827 12.498 12.498 0 0 1-11.673 5.374 26.674 26.674 0 0 0-.38 4.502C11 48.136 22.864 60 37.5 60c5.003 0 9.682-1.387 13.675-3.797a12.498 12.498 0 0 1 .77-12.827 12.498 12.498 0 0 1 11.673-5.374Zm6.588 2.775A33.62 33.62 0 0 0 71 33.5C71 14.998 56.002 0 37.5 0a33.344 33.344 0 0 0-18.65 5.667C13.264 2.524 6.103 4.123 2.416 9.515-1.27 14.905-.16 22.157 4.793 26.223A33.62 33.62 0 0 0 4 33.5C4 52.002 19 67 37.5 67a33.345 33.345 0 0 0 18.65-5.667c5.587 3.143 12.749 1.544 16.435-3.848 3.685-5.39 2.577-12.642-2.377-16.708Z" fill="#33CCBA"/><path d="m63.62 38.002-.538 4.97 4.673.506.793-4.633-4.929-.843ZM23.824 10.797l-2.584-4.28-4.015 2.423 2.162 4.161 4.437-2.304Zm-.771 12.827-4.128-2.822 4.128 2.822ZM11.38 28.998l.537-4.971-4.673-.505-.792 4.633 4.928.843Zm39.795 27.205 2.584 4.28 4.015-2.423-2.162-4.161-4.437 2.304Zm.77-12.827-4.127-2.822 4.128 2.822Zm18.262-2.6-4.882-1.08-.664 2.998 2.374 1.948 3.172-3.865ZM18.85 5.667 16.4 10.026l2.682 1.509 2.556-1.716-2.787-4.151ZM2.415 9.516l-4.127-2.822 4.127 2.822Zm2.378 16.708 4.881 1.081.665-2.998-2.374-1.948-3.172 3.865Zm51.357 35.11 2.451-4.358-2.683-1.509-2.555 1.716 2.787 4.151Zm16.435-3.848-4.128-2.822 4.128 2.822ZM59 33.5c0 1.25-.106 2.473-.309 3.658l9.857 1.687A31.68 31.68 0 0 0 69 33.5H59ZM37.5 12C49.374 12 59 21.626 59 33.5h10C69 16.103 54.897 2 37.5 2v10ZM26.41 15.077A21.377 21.377 0 0 1 37.5 12V2c-5.94 0-11.51 1.649-16.26 4.516l5.169 8.561Zm.772 11.368c3.774-5.52 3.951-12.426 1.08-17.953l-8.873 4.61a7.498 7.498 0 0 1-.462 7.7l8.255 5.643ZM10.844 33.97c6.192.67 12.564-2.004 16.337-7.524l-8.255-5.643a7.498 7.498 0 0 1-7.008 3.225l-1.074 9.942ZM16 33.5c0-1.25.107-2.473.31-3.659l-9.857-1.686A31.674 31.674 0 0 0 6 33.5h10ZM37.5 55C25.626 55 16 45.374 16 33.5H6C6 50.897 20.103 65 37.5 65V55Zm11.092-3.077A21.377 21.377 0 0 1 37.5 55v10c5.94 0 11.51-1.649 16.26-4.516l-5.168-8.561Zm7.021 1.976a7.498 7.498 0 0 1 .461-7.701l-8.255-5.644c-3.773 5.52-3.951 12.427-1.08 17.954l8.874-4.61Zm.461-7.701a7.498 7.498 0 0 1 7.008-3.225l1.074-9.942c-6.192-.67-12.564 2.004-16.337 7.523l8.255 5.644ZM66 33.5c0 2.133-.233 4.206-.674 6.196l9.763 2.162c.597-2.695.911-5.493.911-8.358H66ZM37.5 5C53.24 5 66 17.76 66 33.5h10C76 12.237 58.763-5 37.5-5V5ZM21.638 9.818A28.344 28.344 0 0 1 37.5 5V-5c-7.926 0-15.307 2.4-21.436 6.516l5.574 8.302ZM6.543 12.336a7.501 7.501 0 0 1 9.857-2.311l4.902-8.716C13.475-3.094 3.45-.858-1.712 6.693l8.255 5.643Zm1.422 10.022a7.501 7.501 0 0 1-1.422-10.022l-8.255-5.643c-5.161 7.55-3.607 17.7 3.333 23.395l6.344-7.73ZM9 33.5c0-2.133.234-4.206.674-6.196l-9.763-2.162a38.62 38.62 0 0 0-.91 8.358H9ZM37.5 62C21.76 62 9 49.24 9 33.5H-1C-1 54.763 16.237 72 37.5 72V62Zm15.863-4.818A28.345 28.345 0 0 1 37.5 62v10c7.927 0 15.308-2.4 21.437-6.516l-5.574-8.302Zm15.094-2.519a7.501 7.501 0 0 1-9.856 2.312l-4.903 8.716c7.828 4.403 17.852 2.167 23.015-5.384l-8.256-5.644Zm-1.421-10.021a7.501 7.501 0 0 1 1.421 10.021l8.256 5.644c5.16-7.55 3.607-17.7-3.333-23.395l-6.344 7.73Z" fill="#fff" mask="url(#oa)"/></svg><svg fill="none" viewBox="0 0 63 71" id="how-works1" xmlns="http://www.w3.org/2000/svg"><path d="M28.469.814a6.053 6.053 0 0 1 6.062 0L59.97 15.527A6.075 6.075 0 0 1 63 20.787v29.426a6.075 6.075 0 0 1-3.031 5.26L34.53 70.186a6.053 6.053 0 0 1-6.062 0L3.03 55.473A6.075 6.075 0 0 1 0 50.213V20.787a6.075 6.075 0 0 1 3.031-5.26L28.47.814Z" fill="#66BCFF"/><path d="M29.377 15.767a2 2 0 0 1 3.078-.018l1.06 1.26a2 2 0 0 0 2.145.617l1.567-.507a2 2 0 0 1 2.599 1.648l.21 1.634a2 2 0 0 0 1.472 1.679l1.592.421a2 2 0 0 1 1.295 2.791l-.707 1.488a2 2 0 0 0 .331 2.208l1.112 1.215a2 2 0 0 1-.42 3.049l-1.399.87a2 2 0 0 0-.915 2.035l.278 1.624a2 2 0 0 1-2.001 2.337l-1.647-.024a2 2 0 0 0-1.87 1.218l-.645 1.516a2 2 0 0 1-2.947.884l-1.372-.91a2 2 0 0 0-2.232.013l-1.362.927a2 2 0 0 1-2.957-.85l-.662-1.508a2 2 0 0 0-1.885-1.196l-1.646.045a2 2 0 0 1-2.03-2.314l.26-1.626a2 2 0 0 0-.94-2.026l-1.41-.853a2 2 0 0 1-.455-3.043l1.097-1.228a2 2 0 0 0 .305-2.212l-.725-1.479a2 2 0 0 1 1.262-2.807l1.587-.44a2 2 0 0 0 1.452-1.696l.19-1.636a2 2 0 0 1 2.58-1.679l1.572.488a2 2 0 0 0 2.139-.642l1.044-1.273Z" stroke="#fff" stroke-width="2"/><path d="m25.684 42.887.075 13.415 5.114-4.53 5.167 4.469-.074-12.531" stroke="#fff" stroke-width="2"/><circle cx="30.998" cy="29.541" r="8.514" transform="rotate(-.34 30.998 29.541)" stroke="#fff" stroke-width="2"/></svg><svg fill="none" viewBox="0 0 63 71" id="how-works2" xmlns="http://www.w3.org/2000/svg"><path d="M28.469.814a6.053 6.053 0 0 1 6.062 0L59.97 15.527A6.075 6.075 0 0 1 63 20.787v29.426a6.075 6.075 0 0 1-3.031 5.26L34.53 70.186a6.053 6.053 0 0 1-6.062 0L3.03 55.473A6.075 6.075 0 0 1 0 50.213V20.787a6.075 6.075 0 0 1 3.031-5.26L28.47.814Z" fill="#66BCFF"/><path d="m32.858 41.84-.43.904.43-.904a2 2 0 0 0-1.716 0l-8.494 4.033 1.21-9.326a2 2 0 0 0-.53-1.63l-6.46-6.834 9.242-1.73a2 2 0 0 0 1.388-1.009L32 17.089l4.502 8.255a2 2 0 0 0 1.388 1.008l9.243 1.731-6.46 6.833a2 2 0 0 0-.53 1.631l1.21 9.326-8.495-4.033Z" stroke="#fff" stroke-width="2"/></svg><svg fill="none" viewBox="0 0 63 71" id="how-works3" xmlns="http://www.w3.org/2000/svg"><path d="M28.469.814a6.053 6.053 0 0 1 6.062 0L59.97 15.527A6.075 6.075 0 0 1 63 20.787v29.426a6.075 6.075 0 0 1-3.031 5.26L34.53 70.186a6.053 6.053 0 0 1-6.062 0L3.03 55.473A6.075 6.075 0 0 1 0 50.213V20.787a6.075 6.075 0 0 1 3.031-5.26L28.47.814Z" fill="#66BCFF"/><path d="M19 22h25.5M19 35.5h25.5M19 49.5h25.5M19 28.5h15.5M19 42h15.5" stroke="#fff" stroke-width="2" stroke-linecap="round"/></svg><svg fill="none" viewBox="0 0 16 16" id="search" xmlns="http://www.w3.org/2000/svg"><path d="m9 9 5.5 5.5M11 6A5 5 0 1 1 1 6a5 5 0 0 1 10 0Z" stroke="#000" stroke-width="2"/></svg><svg viewBox="0 0 44 44" id="vk" xmlns="http://www.w3.org/2000/svg"><circle cx="22" cy="22" r="22"/><path d="M29.883 23.993c.852.84 1.751 1.628 2.514 2.552.337.41.656.834.901 1.31.347.677.033 1.424-.568 1.464l-3.74-.002c-.965.081-1.734-.31-2.381-.976-.518-.533-.998-1.1-1.495-1.65a3.54 3.54 0 0 0-.673-.604c-.51-.335-.953-.232-1.245.306-.298.546-.365 1.151-.394 1.761-.04.89-.307 1.123-1.19 1.163-1.89.09-3.685-.198-5.352-1.161-1.47-.85-2.608-2.047-3.6-3.403-1.931-2.642-3.41-5.544-4.739-8.527-.299-.673-.08-1.034.654-1.047 1.22-.023 2.44-.022 3.66-.001.496.007.825.294 1.017.767.66 1.638 1.467 3.197 2.481 4.642.27.385.545.77.938 1.041.433.3.763.2.967-.288.13-.31.186-.642.215-.974.096-1.14.108-2.277-.06-3.412-.105-.709-.5-1.168-1.201-1.302-.358-.068-.304-.203-.13-.409.3-.356.583-.577 1.146-.577h4.226c.665.133.814.435.905 1.11l.004 4.74c-.007.262.13 1.038.596 1.212.373.124.62-.178.844-.418 1.011-1.084 1.734-2.365 2.38-3.692.286-.584.532-1.19.77-1.795.176-.45.454-.67.955-.66l4.067.004c.121 0 .242.001.36.022.685.118.872.415.661 1.09-.333 1.06-.982 1.945-1.617 2.832-.678.948-1.404 1.864-2.077 2.817-.618.87-.568 1.309.199 2.065h.002Z" fill="#fff"/></svg><svg viewBox="0 0 44 44" id="yt" xmlns="http://www.w3.org/2000/svg"><g clip-path="url(#ua)"><path d="M22 0c12.15 0 22 9.85 22 22s-9.85 22-22 22C9.849 44 0 34.15 0 22S9.85 0 22 0Z"/><path fill-rule="evenodd" clip-rule="evenodd" d="M30.251 15.104c.842.241 1.504.951 1.73 1.853.408 1.634.408 5.043.408 5.043s0 3.409-.409 5.043c-.225.902-.887 1.611-1.729 1.852-1.525.438-7.64.438-7.64.438s-6.115 0-7.64-.438c-.841-.24-1.504-.95-1.73-1.852-.408-1.634-.408-5.043-.408-5.043s0-3.41.409-5.043c.225-.902.887-1.612 1.729-1.853 1.525-.438 7.64-.438 7.64-.438s6.115 0 7.64.438Zm-9.473 4.026v6.377l4.889-3.188-4.89-3.189Z" fill="#fff"/></g><defs><clipPath id="ua"><path fill="#fff" d="M0 0h44v44H0z"/></clipPath></defs></svg></svg>