<svg width="44" height="44" viewBox="0 0 44 44" fill="none" xmlns="http://www.w3.org/2000/svg">
<circle cx="22" cy="22" r="22" fill="#53C2BB"/>
<path d="M16.3186 12.0057L11.7526 12C11.3209 12.048 10.9863 12.3877 11.0004 12.8219C11.0585 14.6052 11.7428 19.8916 16.925 25.0738C22.1072 30.256 27.3943 30.9411 29.178 30.9996C29.6122 31.0138 29.9521 30.6792 30 30.2473L29.9943 25.6815C30.0352 25.3134 29.8535 24.9561 29.5319 24.7724L26.0789 22.7998C25.7153 22.5921 25.2576 22.6534 24.9614 22.9495L23.5164 24.3945C23.2969 24.6141 22.9823 24.7077 22.6919 24.5977C22.0657 24.3605 20.8842 23.7788 19.5527 22.4473C18.2212 21.1158 17.6396 19.9343 17.4024 19.3081C17.2923 19.0177 17.3859 18.7032 17.6055 18.4836L19.0505 17.0386C19.3467 16.7424 19.408 16.2847 19.2002 15.9211L17.2277 12.4681C17.0439 12.1465 16.6867 11.9648 16.3186 12.0057Z" stroke="white" stroke-width="2"/>
</svg>
