<svg width="44" height="44" viewBox="0 0 44 44" fill="none" xmlns="http://www.w3.org/2000/svg">
<g clip-path="url(#clip0_866_293)">
<path d="M22 44C34.1503 44 44 34.1503 44 22C44 9.84974 34.1503 0 22 0C9.84974 0 0 9.84974 0 22C0 34.1503 9.84974 44 22 44Z" fill="#53C2BB"/>
<path d="M35.0403 21.6644C35.0403 28.681 29.3089 34.369 22.237 34.369C19.9923 34.369 17.8831 33.7949 16.0479 32.7886L8.95966 35.0411L11.2704 28.2246C10.1044 26.3106 9.43301 24.0652 9.43301 21.6651C9.43301 14.6485 15.1651 8.96045 22.2363 8.96045C29.3089 8.95974 35.0403 14.6478 35.0403 21.6644ZM22.237 10.983C16.3013 10.983 11.4726 15.7748 11.4726 21.6644C11.4726 24.0014 12.2348 26.1659 13.5229 27.9266L12.178 31.8937L16.3148 30.5786C18.0144 31.6943 20.0505 32.3457 22.237 32.3457C28.172 32.3457 33.0014 27.5547 33.0014 21.6651C33.0014 15.7755 28.1728 10.983 22.237 10.983ZM28.7022 24.5904C28.6234 24.4605 28.414 24.3824 28.1004 24.227C27.786 24.0716 26.2431 23.3179 25.9557 23.2143C25.6683 23.1107 25.4582 23.0582 25.2489 23.3697C25.0402 23.6813 24.4384 24.3824 24.2546 24.5904C24.0715 24.799 23.8884 24.8246 23.5748 24.6692C23.2611 24.5137 22.2505 24.1844 21.0511 23.1235C20.1186 22.2981 19.4884 21.279 19.3053 20.9675C19.1222 20.6559 19.2862 20.4877 19.443 20.3323C19.5842 20.1925 19.7574 19.969 19.9142 19.7873C20.0718 19.6056 20.1236 19.4757 20.2279 19.2678C20.3329 19.0599 20.2804 18.8782 20.2017 18.7221C20.1236 18.5666 19.4948 17.0337 19.2337 16.4106C18.9725 15.7875 18.7113 15.8912 18.5275 15.8912C18.3444 15.8912 18.1351 15.8649 17.9257 15.8649C17.7164 15.8649 17.3764 15.943 17.0883 16.2545C16.8009 16.5661 15.9904 17.3197 15.9904 18.8519C15.9904 20.3841 17.1146 21.8645 17.2721 22.0724C17.4289 22.2797 19.4423 25.5264 22.633 26.7734C25.8237 28.0195 25.8237 27.6037 26.3993 27.5519C26.9741 27.5001 28.2558 26.7989 28.5184 26.0722C28.7802 25.3434 28.7802 24.7203 28.7022 24.5904Z" fill="white"/>
</g>
<defs>
<clipPath id="clip0_866_293">
<rect width="44" height="44" fill="white"/>
</clipPath>
</defs>
</svg>
