<svg width="44" height="44" viewBox="0 0 44 44" fill="none" xmlns="http://www.w3.org/2000/svg">
<circle cx="22" cy="22" r="22" fill="#53C2BB"/>
<path fill-rule="evenodd" clip-rule="evenodd" d="M36.0081 14.6193L35.9986 14.5848C35.2901 11.7235 32.1007 8.65537 29.1705 8.01702L29.1372 8.01108C24.3977 7.10764 19.594 7.10764 14.8568 8.01108L14.8236 8.01702C11.8945 8.65537 8.70393 11.7259 7.99544 14.5848L7.9895 14.6193C7.11458 18.6134 7.11458 22.6647 7.9895 26.66L7.99782 26.6945C8.67659 29.4333 11.6294 32.3612 14.4491 33.1672V36.3589C14.4491 37.5144 15.8566 38.0814 16.659 37.2481L19.8935 33.8852C20.5961 33.9244 21.2974 33.947 21.9988 33.947C24.3846 33.947 26.7692 33.7223 29.1395 33.2706L29.1728 33.2647C32.1019 32.6263 35.2925 29.5558 36.001 26.6969L36.0105 26.6624C36.8854 22.667 36.8854 18.6158 36.0105 14.6193H36.0081ZM33.4475 26.0799C32.9756 27.945 30.553 30.2655 28.6296 30.6958C26.1095 31.1749 23.5703 31.3805 21.0347 31.3092C20.9836 31.308 20.9349 31.327 20.9004 31.3627L18.5384 33.7877L16.0266 36.3661C15.8423 36.5575 15.519 36.4279 15.519 36.1628V30.8741C15.519 30.7873 15.456 30.7124 15.3704 30.697H15.3692C13.4446 30.2678 11.0232 27.9486 10.5512 26.0811C9.7631 22.4709 9.7631 18.8096 10.5512 15.1982C11.0255 13.3331 13.4458 11.0126 15.3692 10.5823C19.7687 9.74545 24.2312 9.74545 28.6308 10.5823C30.5565 11.0115 32.9768 13.3307 33.4487 15.1982C34.2381 18.8084 34.2381 22.4685 33.4487 26.0787L33.4475 26.0799ZM26.1865 28.5226L26.1859 28.5225C26.2669 28.4974 26.3495 28.4763 26.4316 28.4553C26.6097 28.4097 26.7861 28.3647 26.9414 28.2801C27.7497 27.8462 28.3096 27.1675 28.6948 26.3496C28.9064 25.9038 28.778 25.4723 28.4035 25.143C28.0447 24.8271 27.6573 24.551 27.2688 24.274L27.2687 24.274L27.1756 24.2075C26.7476 23.902 26.3173 23.6001 25.8715 23.3183C25.4281 23.0366 24.9003 23.0414 24.4866 23.379C24.3379 23.5009 24.2174 23.6621 24.0972 23.8228C23.8764 24.1181 23.6568 24.4117 23.2658 24.4571C22.9368 24.495 22.6472 24.3733 22.362 24.2534L22.3617 24.2533L22.3615 24.2532C22.3336 24.2414 22.3058 24.2297 22.278 24.2182C20.3249 23.4051 19.1349 21.8942 18.4276 19.9542C18.3361 19.7022 18.342 19.4288 18.4847 19.197C18.5631 19.071 18.6689 18.9759 18.7831 18.882L18.8527 18.8241L18.8527 18.8241C18.9587 18.7358 19.0648 18.6473 19.1789 18.5693C19.7495 18.1806 19.8387 17.4816 19.5213 16.9098C19.0077 15.9814 18.3729 15.1386 17.6823 14.3362C17.3625 13.9653 16.931 13.8441 16.4935 14.0545C15.9325 14.3243 15.4165 14.6905 15.0136 15.1671C14.5844 15.6759 14.1767 16.3737 14.456 17.0501L14.5436 17.2648C14.816 17.9334 15.0893 18.6043 15.4082 19.2528C16.1524 20.7649 17.032 22.195 18.1578 23.461C20.1358 25.6863 22.6322 27.1389 25.3461 28.2647C25.5246 28.3377 25.7131 28.3897 25.9089 28.4437L25.9089 28.4437L25.909 28.4437C25.9998 28.4688 26.0922 28.4942 26.1859 28.5225L26.1853 28.5226H26.1865ZM29.0966 19.0828C28.4702 15.5736 25.5554 13.2188 22.007 13.1189L22.0058 13.1177C21.938 13.1153 21.8679 13.113 21.8013 13.1189C21.5493 13.1332 21.3258 13.3424 21.3734 13.6075C21.427 13.9035 21.723 13.9339 21.9686 13.9592L22.0153 13.9641C22.1427 13.9776 22.2703 13.9887 22.3976 13.9997C22.673 14.0235 22.9476 14.0473 23.2183 14.096C25.849 14.5656 27.9578 16.7529 28.3251 19.3966C28.3806 19.7926 28.4078 20.1929 28.435 20.5931L28.435 20.5931L28.435 20.5932C28.4422 20.6988 28.4494 20.8044 28.4571 20.9099C28.4761 21.1655 28.6045 21.4032 28.8886 21.3997C29.1632 21.3973 29.3082 21.1548 29.288 20.8992C29.2821 20.8237 29.2763 20.7481 29.2706 20.6725L29.2706 20.6723L29.2705 20.6721C29.2299 20.1397 29.1892 19.6063 29.0966 19.0828ZM27.4004 20.1112L27.4004 20.1116C27.3964 20.0446 27.3929 19.9819 27.3896 19.9225L27.3896 19.9222C27.381 19.7669 27.3735 19.6332 27.3624 19.5002C27.3587 19.4536 27.3504 19.4074 27.3421 19.3612L27.342 19.361C27.337 19.333 27.3319 19.3049 27.3279 19.2767C27.083 17.6327 26.2414 16.4011 24.7685 15.6213C24.0446 15.2385 23.2577 15.0626 22.4434 15.0163C22.1961 15.002 22.0297 15.1648 22.019 15.3931C22.0059 15.6368 22.1391 15.7925 22.3851 15.827C22.4634 15.8379 22.5414 15.8476 22.6192 15.8573L22.6193 15.8573C22.7446 15.8729 22.8695 15.8885 22.9949 15.909C23.4586 15.9875 23.915 16.1158 24.337 16.3215C25.0348 16.6627 25.6304 17.2285 26.0203 17.9001C26.3983 18.5551 26.5624 19.3064 26.5635 20.0577C26.5635 20.1718 26.5695 20.2943 26.6063 20.4001C26.7323 20.7591 27.272 20.7151 27.3659 20.3584C27.3844 20.2856 27.3911 20.2095 27.3958 20.157C27.3975 20.1385 27.3988 20.123 27.4004 20.1116L27.4004 20.1124V20.1112ZM24.7066 19.594C24.7364 19.8675 24.8968 20.0303 25.1928 20.0256V20.0244C25.3283 20.0149 25.4674 19.9221 25.5102 19.7331C25.5344 19.6319 25.525 19.5214 25.5159 19.415C25.5152 19.4065 25.5145 19.398 25.5138 19.3896C25.3735 17.7705 24.3892 17.0585 23.0139 16.9586C22.7928 16.9432 22.5966 17.1001 22.5633 17.301C22.5265 17.5233 22.6561 17.7135 22.8926 17.7717C22.9946 17.7968 23.0983 17.8064 23.2022 17.8161C23.32 17.8271 23.438 17.8381 23.5536 17.8716C23.7259 17.9215 23.89 17.9988 24.0338 18.1034C24.3405 18.3269 24.5331 18.6621 24.6222 19.027C24.6599 19.1778 24.6772 19.3324 24.6945 19.4872C24.6984 19.5228 24.7024 19.5585 24.7066 19.594Z" fill="white"/>
</svg>
