<svg width="161" height="181" viewBox="0 0 161 181" fill="none" xmlns="http://www.w3.org/2000/svg">
<path d="M72.7539 2.07426C77.5472 -0.691422 83.4528 -0.691421 88.2461 2.07427L153.254 39.583C158.047 42.3487 161 47.4599 161 52.9913V128.009C161 133.54 158.047 138.651 153.254 141.417L88.2461 178.926C83.4528 181.691 77.5472 181.691 72.7539 178.926L7.74611 141.417C2.9528 138.651 0 133.54 0 128.009V52.9913C0 47.4599 2.9528 42.3487 7.74612 39.583L72.7539 2.07426Z" fill="#0098B7"/>
<path fill-rule="evenodd" clip-rule="evenodd" d="M95.2475 70.5351C103.401 70.5351 110.01 63.9234 110.01 55.7675C110.01 47.6117 103.401 41 95.2475 41C87.0943 41 80.4848 47.6117 80.4848 55.7675C80.4848 58.346 81.1455 60.7702 82.3066 62.8798L68.2075 73.9828C64.6831 70.845 60.0388 68.9386 54.9495 68.9386C43.9317 68.9386 35 77.8733 35 88.8947C35 99.9162 43.9317 108.851 54.9495 108.851C60.8834 108.851 66.2122 106.259 69.8665 102.146L85.9916 110.705C85.0204 112.673 84.4747 114.889 84.4747 117.232C84.4747 125.388 91.0842 132 99.2374 132C107.391 132 114 125.388 114 117.232C114 109.077 107.391 102.465 99.2374 102.465C95.7791 102.465 92.5985 103.654 90.0823 105.647L73.299 96.7384C74.3289 94.3307 74.899 91.6793 74.899 88.8947C74.899 85.2671 73.9314 81.8656 72.2403 78.9343L86.5265 67.6841C88.97 69.4765 91.9851 70.5351 95.2475 70.5351ZM95.2475 64.9474C100.316 64.9474 104.424 60.8374 104.424 55.7675C104.424 50.6977 100.316 46.5877 95.2475 46.5877C90.1793 46.5877 86.0707 50.6977 86.0707 55.7675C86.0707 60.8374 90.1793 64.9474 95.2475 64.9474ZM69.3131 88.8947C69.3131 96.8302 62.8823 103.263 54.9495 103.263C47.0167 103.263 40.5859 96.8302 40.5859 88.8947C40.5859 80.9593 47.0167 74.5263 54.9495 74.5263C62.8823 74.5263 69.3131 80.9593 69.3131 88.8947ZM108.414 117.232C108.414 122.302 104.306 126.412 99.2374 126.412C94.1692 126.412 90.0606 122.302 90.0606 117.232C90.0606 112.163 94.1692 108.053 99.2374 108.053C104.306 108.053 108.414 112.163 108.414 117.232Z" fill="white"/>
</svg>
