<svg width="161" height="181" viewBox="0 0 161 181" fill="none" xmlns="http://www.w3.org/2000/svg">
<path d="M72.7539 2.07426C77.5472 -0.691422 83.4528 -0.691421 88.2461 2.07427L153.254 39.583C158.047 42.3487 161 47.4599 161 52.9913V128.009C161 133.54 158.047 138.651 153.254 141.417L88.2461 178.926C83.4528 181.691 77.5472 181.691 72.7539 178.926L7.74611 141.417C2.9528 138.651 0 133.54 0 128.009V52.9913C0 47.4599 2.9528 42.3487 7.74612 39.583L72.7539 2.07426Z" fill="#00B7B7"/>
<path d="M73.6596 100.805C62.69 93.5525 60.5615 76.8673 70.1668 67.0525L84.0289 53.6934C92.7064 44.8056 106.787 44.8056 115.464 53.4753C124.142 61.927 124.142 75.7222 115.683 84.392L102.53 97.751C102.53 97.9691 102.312 97.9691 102.312 97.751C103.458 93.2798 103.021 87.6636 101.602 83.465C101.329 83.0288 101.602 82.5381 101.82 82.32L107.933 75.9949C111.917 71.7963 111.917 64.9805 107.715 61C103.731 56.8014 96.9087 56.8014 92.9247 61L82.61 71.3056C82.1007 71.8535 81.5703 72.4015 81.0387 72.9507C78.6081 75.462 76.1519 77.9997 75.5697 80.6842C75.0786 83.2469 75.3514 85.5916 76.4975 87.9362C77.4253 89.8447 79.0626 91.4805 80.6998 92.4074C80.9181 92.6255 81.1364 93.0617 80.9181 93.5525C79.008 96.3333 77.1524 98.4599 74.8057 100.805C74.5874 101.023 74.1508 101.023 73.6596 100.805Z" fill="white"/>
<path d="M96.6904 86.7366C98.1094 92.1348 97.6728 97.751 94.8349 102.658C93.723 104.952 87.9914 110.801 83.3248 115.564C80.8905 118.048 78.7459 120.236 77.6982 121.47C69.2936 130.14 55.2131 130.14 46.5357 121.688C37.8582 113.019 37.8582 98.9506 46.3174 90.2808L59.1971 77.1399C59.1971 76.9218 59.4154 76.9218 59.4154 77.1399C58.706 81.6111 58.9243 87.2273 60.3432 91.4259C60.6161 91.8621 60.3432 92.3529 60.1249 92.571L54.0125 98.8961C50.0285 103.095 50.0285 109.91 54.2308 113.891C58.4331 117.871 65.255 117.871 69.239 113.673C70.3032 112.501 72.2952 110.51 74.2872 108.52C76.2792 106.53 78.2712 104.54 79.3355 103.367C79.7676 102.902 80.22 102.432 80.6782 101.956C83.229 99.306 85.9593 96.4692 86.3757 93.2798C86.8668 90.7171 85.9391 88.1543 85.2296 86.7366C84.3018 84.8827 82.6645 83.465 81.0273 82.538C80.5361 82.0473 80.3178 81.6111 80.5361 81.1204C81.9005 78.285 84.0289 75.9403 86.3757 74.0864C86.8668 73.8683 87.3035 73.8683 87.7946 74.0864C92.2152 76.9218 95.5443 81.8292 96.6904 86.7366Z" fill="white"/>
</svg>
