<svg width="161" height="181" viewBox="0 0 161 181" fill="none" xmlns="http://www.w3.org/2000/svg">
<path d="M72.7539 2.07426C77.5472 -0.691422 83.4528 -0.691421 88.2461 2.07427L153.254 39.583C158.047 42.3487 161 47.4599 161 52.9913V128.009C161 133.54 158.047 138.651 153.254 141.417L88.2461 178.926C83.4528 181.691 77.5472 181.691 72.7539 178.926L7.74611 141.417C2.9528 138.651 0 133.54 0 128.009V52.9913C0 47.4599 2.9528 42.3487 7.74612 39.583L72.7539 2.07426Z" fill="#007AB7"/>
<path d="M80.971 42C69.3686 42.0226 59.9794 51.5215 59.9571 63.2594C60.0912 69.3432 62.8185 75.0651 67.4684 78.9325L61.1866 90.693C60.7842 90.6251 60.3818 90.6025 59.9571 90.6025C54.9271 90.5347 50.7914 94.6282 50.7243 99.7169C50.6573 104.806 54.7036 108.99 59.7335 109.057C64.7634 109.125 68.8992 105.032 68.9662 99.9431C68.9886 97.5231 68.0944 95.1936 66.4401 93.4522L74.9798 77.4172L72.7219 75.9019C65.8365 71.2656 63.9587 61.8572 68.5415 54.8913C73.1243 47.9255 82.4241 46.0257 89.3095 50.6621C95.0101 54.5068 97.4245 61.7667 95.1442 68.3028L100.778 70.3835C104.668 59.3241 98.9446 47.1565 88.0129 43.2439C85.755 42.4071 83.363 42 80.971 42ZM80.971 54.145C75.9858 54.2354 72.0289 58.3742 72.096 63.3951C72.163 68.3254 76.0976 72.2833 80.971 72.3738C81.3734 72.3738 81.7982 72.3511 82.2005 72.2833L90.4496 85.5817L91.9474 88.0469L94.4736 86.5316C101.672 82.3249 110.86 84.8354 115.018 92.1178C119.176 99.4003 116.695 108.696 109.496 112.902C103.349 116.498 95.569 115.232 90.8073 109.917L86.3139 113.897C94.0488 122.65 107.328 123.419 115.979 115.616C124.631 107.814 125.391 94.3568 117.678 85.6043C113.699 81.081 107.976 78.5028 101.985 78.5028C99.347 78.6837 96.7538 79.4074 94.3842 80.5835L87.5435 69.4789C89.1083 67.8053 89.9802 65.5889 89.9802 63.3046C89.9578 58.2385 85.9339 54.1676 80.971 54.145ZM80.971 60.2288C82.6253 60.2288 83.9666 61.5858 83.989 63.2594C83.989 64.933 82.6477 66.29 80.9934 66.3126C79.3391 66.3126 77.9978 64.9556 77.9754 63.282C77.9754 63.282 77.9754 63.282 77.9754 63.2594C77.953 61.6084 79.272 60.2514 80.9039 60.2288C80.9263 60.2288 80.9487 60.2288 80.971 60.2288ZM56.492 78.729C45.0461 80.6966 37.3559 91.6655 39.3008 103.245C41.2457 114.825 52.088 122.605 63.5339 120.637C65.9706 120.207 68.3403 119.371 70.4864 118.104C75.8964 114.757 79.4956 109.103 80.2556 102.725H93.5794C95.2337 107.474 100.375 109.962 105.07 108.289C109.765 106.615 112.224 101.413 110.569 96.6637C108.915 91.9143 103.773 89.4265 99.0788 91.1001C96.5079 92.0274 94.4959 94.0628 93.5794 96.6637H75.0022V99.6943C75.0022 108.085 68.2732 114.892 59.9571 114.892C51.6633 114.892 44.9343 108.085 44.9343 99.6717C44.9343 94.2211 47.8181 89.2003 52.4904 86.4864C54.0329 85.5817 55.7096 84.9711 57.4533 84.677L56.492 78.729ZM59.9571 96.6637C61.6113 96.6637 62.9527 98.0207 62.9527 99.6943C62.9527 101.368 61.6113 102.725 59.9571 102.725C58.3028 102.725 56.9615 101.368 56.9615 99.6943C56.9391 98.0433 58.2581 96.6863 59.89 96.6637C59.9123 96.6637 59.9347 96.6637 59.9571 96.6637ZM101.985 96.6637C103.639 96.6637 104.981 98.0207 104.981 99.6943C104.981 101.368 103.639 102.725 101.985 102.725C100.331 102.725 98.9894 101.368 98.9894 99.6943C98.967 98.0433 100.286 96.6863 101.918 96.6637C101.94 96.6637 101.963 96.6637 101.985 96.6637Z" fill="white"/>
</svg>
