<svg width="145" height="145" viewBox="0 0 145 145" fill="none" xmlns="http://www.w3.org/2000/svg">
<path d="M8 72.5C8 108.122 36.8776 137 72.5 137C108.122 137 137 108.122 137 72.5C137 36.8776 108.122 8 72.5 8C36.8776 8 8 36.8776 8 72.5ZM129.405 72.5C129.405 103.928 103.928 129.405 72.5 129.405C41.0721 129.405 15.5947 103.928 15.5947 72.5C15.5947 41.0721 41.0721 15.5947 72.5 15.5947C103.928 15.5947 129.405 41.0721 129.405 72.5Z" fill="#D9D9D9"/>
<path d="M72.5 8C86.1178 8 99.3862 12.3101 110.404 20.3128C121.423 28.3155 129.625 39.6002 133.837 52.5503C138.049 65.5004 138.054 79.4513 133.852 92.4044C129.65 105.358 121.455 116.648 110.443 124.659C99.4306 132.67 86.1654 136.99 72.5476 137C58.9298 137.01 45.6582 132.71 34.6341 124.715C23.6099 116.721 15.399 105.442 11.1775 92.4949C6.95596 79.548 6.94052 65.5971 11.1334 52.6408L18.3591 54.9792C14.66 66.4099 14.6736 78.7181 18.398 90.1406C22.1225 101.563 29.3666 111.514 39.0927 118.567C48.8187 125.62 60.5276 129.414 72.542 129.405C84.5563 129.396 96.2596 125.585 105.975 118.518C115.691 111.45 122.92 101.489 126.628 90.0608C130.336 78.6328 130.331 66.3246 126.615 54.8993C122.899 43.4741 115.662 33.5181 105.941 26.4577C96.2205 19.3973 84.5144 15.5947 72.5 15.5947V8Z" fill="#00B7B7"/>
<circle cx="72.5" cy="72.5" r="71" stroke="#00B7B7" stroke-width="3" stroke-miterlimit="5.75877"/>
</svg>
