<svg width="95" height="62" viewBox="0 0 95 62" fill="none" xmlns="http://www.w3.org/2000/svg">
<path d="M24.2466 51.1249C24.2449 51.687 24.4092 52.237 24.7188 52.7053C25.0284 53.1735 25.4693 53.5389 25.9856 53.7553C26.502 53.9716 27.0707 54.0291 27.6196 53.9205C28.1685 53.8119 28.673 53.542 29.0692 53.1452C29.4655 52.7483 29.7356 52.2422 29.8453 51.691C29.9551 51.1398 29.8996 50.5682 29.686 50.0487C29.4723 49.5292 29.1099 49.0851 28.6449 48.7726C28.1798 48.4601 27.6329 48.2933 27.0735 48.2933C26.3253 48.2933 25.6076 48.5913 25.0777 49.1221C24.5478 49.6529 24.249 50.3731 24.2466 51.1249Z" fill="#fff"/>
<path d="M76.0719 51.1249C76.0702 51.6874 76.2347 52.2378 76.5447 52.7062C76.8546 53.1746 77.296 53.54 77.8129 53.7561C78.3298 53.9722 78.8989 54.0292 79.4481 53.9198C79.9972 53.8105 80.5017 53.5398 80.8976 53.1421C81.2934 52.7443 81.5629 52.2374 81.6717 51.6856C81.7804 51.1338 81.7237 50.562 81.5087 50.0426C81.2937 49.5233 80.93 49.0798 80.4638 48.7683C79.9976 48.4569 79.4498 48.2916 78.89 48.2933C78.1433 48.2956 77.4278 48.5947 76.8998 49.1252C76.3718 49.6557 76.0742 50.3746 76.0719 51.1249Z" fill="#fff"/>
<path d="M39.7671 41.7716C39.5651 41.75 39.362 41.7846 39.1706 41.8731C38.9791 41.9616 38.8034 42.1021 38.6546 42.2858C38.5057 42.4695 38.3869 42.6925 38.3057 42.9406C38.2244 43.1887 38.1825 43.4566 38.1825 43.7275C38.1825 43.9983 38.2244 44.2663 38.3057 44.5144C38.3869 44.7625 38.5057 44.9854 38.6546 45.1691C38.8034 45.3529 38.9791 45.4934 39.1706 45.5819C39.362 45.6704 39.5651 45.7049 39.7671 45.6833H61.5931C61.795 45.7049 61.9981 45.6704 62.1896 45.5819C62.381 45.4934 62.5567 45.3529 62.7056 45.1691C62.8544 44.9854 62.9732 44.7625 63.0545 44.5144C63.1357 44.2663 63.1776 43.9983 63.1776 43.7275C63.1776 43.4566 63.1357 43.1887 63.0545 42.9406C62.9732 42.6925 62.8544 42.4695 62.7056 42.2858C62.5567 42.1021 62.381 41.9616 62.1896 41.8731C61.9981 41.7846 61.795 41.75 61.5931 41.7716H39.7671Z" fill="#fff"/>
<path d="M5.44936 35.4917C5.24095 35.4744 5.03134 35.502 4.83374 35.5728C4.63613 35.6436 4.45481 35.7561 4.30119 35.903C4.14757 36.05 4.02497 36.2284 3.94112 36.4269C3.85727 36.6254 3.81398 36.8397 3.81398 37.0564C3.81398 37.2731 3.85727 37.4874 3.94112 37.6859C4.02497 37.8844 4.14757 38.0627 4.30119 38.2097C4.45481 38.3567 4.63613 38.4691 4.83374 38.5399C5.03134 38.6107 5.24095 38.6383 5.44936 38.621H24.8305C25.0389 38.6383 25.2485 38.6107 25.4461 38.5399C25.6437 38.4691 25.825 38.3567 25.9786 38.2097C26.1323 38.0627 26.2548 37.8844 26.3387 37.6859C26.4225 37.4874 26.4658 37.2731 26.4658 37.0564C26.4658 36.8397 26.4225 36.6254 26.3387 36.4269C26.2548 36.2284 26.1323 36.05 25.9786 35.903C25.825 35.7561 25.6437 35.6436 25.4461 35.5728C25.2485 35.502 25.0389 35.4744 24.8305 35.4917H5.44936Z" fill="#fff"/>
<path d="M49.8141 16.1927L36.6796 28.8976L29.8482 22.2896C29.7151 22.1411 29.5519 22.0206 29.3687 21.9357C29.1855 21.8508 28.9861 21.8032 28.7831 21.796C28.5801 21.7887 28.3777 21.822 28.1885 21.8936C27.9993 21.9653 27.8274 22.0738 27.6834 22.2124C27.5394 22.3511 27.4265 22.5169 27.3515 22.6996C27.2766 22.8822 27.2414 23.0779 27.2479 23.2743C27.2545 23.4707 27.3028 23.6637 27.3897 23.8413C27.4767 24.0189 27.6005 24.1773 27.7534 24.3067L35.6322 31.9278C35.91 32.1965 36.2868 32.3474 36.6796 32.3474C37.0724 32.3474 37.4491 32.1965 37.727 31.9278L51.8805 18.2372C52.1262 17.9629 52.2551 17.6087 52.2413 17.246C52.2275 16.8834 52.0719 16.5393 51.806 16.2833C51.5402 16.0272 51.1837 15.8783 50.8088 15.8666C50.4338 15.8549 50.0682 15.9812 49.7858 16.2201" fill="#fff"/>
<path d="M20.912 51.3182C20.912 50.0499 21.2849 48.8101 21.9836 47.7556C22.6823 46.7011 23.6753 45.8792 24.8371 45.3939C25.999 44.9085 27.2774 44.7816 28.5108 45.029C29.7442 45.2764 30.8771 45.8871 31.7664 46.7839C32.6556 47.6807 33.2612 48.8233 33.5065 50.0672C33.7519 51.311 33.6259 52.6004 33.1447 53.7721C32.6634 54.9438 31.8485 55.9453 30.8029 56.6499C29.7572 57.3545 28.5279 57.7306 27.2704 57.7306C25.584 57.7306 23.9667 57.055 22.7743 55.8524C21.5819 54.6499 20.912 53.0188 20.912 51.3182ZM72.5278 51.3182C72.5279 50.0495 72.901 48.8094 73.6001 47.7547C74.2992 46.6999 75.2927 45.8781 76.4551 45.393C77.6175 44.9079 78.8964 44.7815 80.1301 45.0297C81.3637 45.2779 82.4967 45.8895 83.3855 46.7873C84.2744 47.685 84.8792 48.8285 85.1235 50.073C85.3678 51.3175 85.2405 52.6071 84.7578 53.7786C84.2751 54.9502 83.4587 55.951 82.4119 56.6545C81.365 57.3579 80.1348 57.7324 78.8768 57.7306C77.1921 57.7281 75.5772 57.0514 74.3869 55.8491C73.1965 54.6468 72.5278 53.0172 72.5278 51.3182ZM88.1662 37.1523V35.4902H91.4905V38.8428H89.8236C89.3832 38.8403 88.9616 38.6621 88.6511 38.3471C88.3405 38.0321 88.1662 37.606 88.1662 37.1618M69.4376 16.5647H82.4259L84.8231 26.2258H69.4002L69.4376 16.5647ZM69.4376 10.2562H80.4407C81.2959 10.2562 82.1162 10.5982 82.7218 11.2071C83.3274 11.8161 83.6688 12.6424 83.6713 13.5049V13.6088H69.4002L69.4376 10.2562ZM9.96519 0.953979C9.18012 0.980873 8.43599 1.31379 7.88935 1.8827C7.3427 2.4516 7.03615 3.21215 7.03417 4.00435V30.8155C7.01799 31.0195 7.04387 31.2247 7.11017 31.4182C7.17648 31.6116 7.28178 31.7891 7.41945 31.9395C7.55711 32.0899 7.72416 32.2099 7.91007 32.292C8.09598 32.3741 8.29673 32.4164 8.49968 32.4164C8.70263 32.4164 8.90338 32.3741 9.08929 32.292C9.27521 32.2099 9.44225 32.0899 9.57992 31.9395C9.71758 31.7891 9.82289 31.6116 9.88919 31.4182C9.9555 31.2247 9.98137 31.0195 9.96519 30.8155V4.00435C9.96512 3.99111 9.96782 3.97801 9.9731 3.96589C9.97838 3.95377 9.98613 3.9429 9.99584 3.934C10.0056 3.92509 10.017 3.91835 10.0295 3.9142C10.0419 3.91005 10.0551 3.90859 10.0682 3.90991H66.3287C66.3418 3.90859 66.355 3.91005 66.3674 3.9142C66.3799 3.91835 66.3913 3.92509 66.4011 3.934C66.4108 3.9429 66.4185 3.95377 66.4238 3.96589C66.4291 3.97801 66.4318 3.99111 66.4317 4.00435V30.8155C66.4155 31.0195 66.4414 31.2247 66.5077 31.4182C66.574 31.6116 66.6793 31.7891 66.817 31.9395C66.9547 32.0899 67.1217 32.2099 67.3076 32.292C67.4935 32.3741 67.6943 32.4164 67.8972 32.4164C68.1002 32.4164 68.3009 32.3741 68.4868 32.292C68.6727 32.2099 68.8398 32.0899 68.9775 31.9395C69.1151 31.7891 69.2204 31.6116 69.2867 31.4182C69.353 31.2247 69.3789 31.0195 69.3627 30.8155V29.1439H86.696C87.7104 29.1432 88.6987 29.4675 89.5184 30.0701C90.3381 30.6727 90.9467 31.5224 91.2564 32.4965H86.696C86.5042 32.4965 86.3142 32.5346 86.1369 32.6087C85.9597 32.6827 85.7987 32.7912 85.663 32.928C85.5274 33.0648 85.4198 33.2272 85.3464 33.406C85.2729 33.5847 85.2352 33.7763 85.2352 33.9698V37.124C85.2352 38.3522 85.7183 39.5302 86.5785 40.3995C87.4388 41.2688 88.6058 41.7585 89.8236 41.761H91.4905V48.2678H87.6511C87.0221 46.4255 85.8386 44.8272 84.2656 43.6957C82.6927 42.5642 80.8089 41.9561 78.8768 41.9561C76.9448 41.9561 75.0609 42.5642 73.488 43.6957C71.9151 44.8272 70.7316 46.4255 70.1025 48.2678H69.4002V37.124C69.3707 36.7524 69.2035 36.4057 68.9319 36.1528C68.6604 35.9 68.3043 35.7596 67.9347 35.7596C67.565 35.7596 67.209 35.9 66.9374 36.1528C66.6658 36.4057 66.4986 36.7524 66.4692 37.124V48.2678H36.0447C35.4156 46.4255 34.2321 44.8272 32.6592 43.6957C31.0862 42.5642 29.2024 41.9561 27.2704 41.9561C25.3383 41.9561 23.4545 42.5642 21.8815 43.6957C20.3086 44.8272 19.1251 46.4255 18.496 48.2678H10.0682C10.0424 48.2679 10.0175 48.2583 9.99848 48.2408C9.97941 48.2233 9.96753 48.1992 9.96519 48.1734V44.9341H16.3235C16.692 44.9044 17.0358 44.7358 17.2865 44.4619C17.5372 44.188 17.6765 43.8289 17.6765 43.4561C17.6765 43.0834 17.5372 42.7243 17.2865 42.4504C17.0358 42.1765 16.692 42.0079 16.3235 41.9782H2.27713C2.07483 41.9618 1.87136 41.9879 1.67955 42.0548C1.48774 42.1217 1.31174 42.2279 1.16262 42.3667C1.0135 42.5056 0.894498 42.674 0.813107 42.8615C0.731716 43.049 0.689697 43.2515 0.689697 43.4561C0.689697 43.6608 0.731716 43.8633 0.813107 44.0508C0.894498 44.2383 1.0135 44.4067 1.16262 44.5456C1.31174 44.6844 1.48774 44.7906 1.67955 44.8575C1.87136 44.9243 2.07483 44.9504 2.27713 44.9341H7.03417V48.1922C7.03665 49.0021 7.3574 49.778 7.92612 50.3498C8.49484 50.9215 9.26514 51.2426 10.0682 51.2426H17.981V51.337C17.9837 53.5833 18.7858 55.754 20.2414 57.4542C21.697 59.1544 23.7094 60.2712 25.9125 60.6015H28.6188C30.8227 60.2731 32.8362 59.1568 34.2922 57.4562C35.7481 55.7555 36.5496 53.5839 36.5503 51.337V51.2426H69.5968V51.337C69.6034 53.5862 70.4121 55.7579 71.8753 57.4554C73.3384 59.1529 75.3583 60.2629 77.5658 60.5826H80.2721C82.4752 60.2523 84.4876 59.1355 85.9432 57.4353C87.3988 55.7351 88.2009 53.5644 88.2036 51.3182C88.2036 51.3182 88.2036 51.2615 88.2036 51.2237H92.9981C93.379 51.2139 93.7411 51.0543 94.007 50.7791C94.2729 50.5039 94.4216 50.1348 94.4215 49.7505V33.9698C94.4185 32.1093 93.7563 30.3111 92.5543 28.8998C91.3523 27.4884 89.6897 26.5568 87.8665 26.273L85.4412 16.4892C85.7691 16.418 86.0631 16.236 86.2743 15.9731C86.4855 15.7103 86.6013 15.3825 86.6023 15.0442V13.4671C86.5999 11.8207 85.9496 10.2425 84.7943 9.07921C83.639 7.91588 82.0732 7.26249 80.4407 7.26249H69.4002V4.00435C69.3981 3.21057 69.0903 2.44866 68.5416 1.8795C67.993 1.31034 67.2465 0.978476 66.4598 0.953979H9.96519Z" fill="#fff"/>
<path d="M49.8141 16.1927L36.6796 28.8976L29.8482 22.2896C29.7151 22.1411 29.5519 22.0206 29.3687 21.9357C29.1855 21.8508 28.9861 21.8032 28.7831 21.796C28.5801 21.7887 28.3777 21.822 28.1885 21.8936C27.9993 21.9653 27.8274 22.0738 27.6834 22.2124C27.5394 22.3511 27.4265 22.5169 27.3515 22.6996C27.2766 22.8822 27.2414 23.0779 27.2479 23.2743C27.2545 23.4707 27.3028 23.6637 27.3897 23.8413C27.4767 24.0189 27.6005 24.1773 27.7534 24.3067L35.6322 31.9278C35.91 32.1965 36.2868 32.3474 36.6796 32.3474C37.0724 32.3474 37.4491 32.1965 37.727 31.9278L51.8805 18.2372C52.1262 17.9629 52.2551 17.6087 52.2413 17.246C52.2275 16.8834 52.0719 16.5393 51.806 16.2833C51.5402 16.0272 51.1837 15.8783 50.8088 15.8666C50.4338 15.8549 50.0682 15.9812 49.7858 16.2201M88.1662 37.1523V35.4902H91.4905V38.8428H89.8236C89.3832 38.8403 88.9616 38.6621 88.6511 38.3471C88.3405 38.0321 88.1662 37.606 88.1662 37.1618M24.2466 51.1249C24.2449 51.687 24.4092 52.237 24.7188 52.7053C25.0284 53.1735 25.4693 53.5389 25.9856 53.7553C26.502 53.9716 27.0707 54.0291 27.6196 53.9205C28.1685 53.8119 28.673 53.5421 29.0692 53.1452C29.4655 52.7483 29.7356 52.2422 29.8453 51.691C29.9551 51.1398 29.8996 50.5682 29.686 50.0487C29.4723 49.5292 29.1099 49.0851 28.6449 48.7726C28.1798 48.4601 27.6329 48.2933 27.0735 48.2933C26.3253 48.2933 25.6076 48.5913 25.0777 49.1221C24.5478 49.6529 24.249 50.3731 24.2466 51.1249ZM76.0719 51.1249C76.0702 51.6874 76.2347 52.2378 76.5447 52.7062C76.8546 53.1746 77.296 53.54 77.8129 53.7561C78.3298 53.9722 78.8989 54.0292 79.4481 53.9198C79.9972 53.8105 80.5017 53.5398 80.8976 53.1421C81.2935 52.7443 81.5629 52.2374 81.6717 51.6856C81.7805 51.1338 81.7237 50.562 81.5087 50.0426C81.2937 49.5233 80.93 49.0798 80.4638 48.7683C79.9976 48.4569 79.4498 48.2916 78.89 48.2933C78.1433 48.2956 77.4278 48.5947 76.8998 49.1252C76.3718 49.6557 76.0742 50.3746 76.0719 51.1249ZM39.7671 41.7716C39.5651 41.75 39.362 41.7846 39.1706 41.8731C38.9791 41.9616 38.8034 42.1021 38.6546 42.2858C38.5057 42.4695 38.3869 42.6925 38.3057 42.9406C38.2244 43.1887 38.1825 43.4566 38.1825 43.7275C38.1825 43.9983 38.2244 44.2663 38.3057 44.5144C38.3869 44.7625 38.5057 44.9854 38.6546 45.1691C38.8034 45.3529 38.9791 45.4934 39.1706 45.5819C39.362 45.6704 39.5651 45.7049 39.7671 45.6833H61.5931C61.795 45.7049 61.9981 45.6704 62.1896 45.5819C62.381 45.4934 62.5567 45.3529 62.7056 45.1691C62.8544 44.9854 62.9732 44.7625 63.0545 44.5144C63.1357 44.2663 63.1776 43.9983 63.1776 43.7275C63.1776 43.4566 63.1357 43.1887 63.0545 42.9406C62.9732 42.6925 62.8544 42.4695 62.7056 42.2858C62.5567 42.1021 62.381 41.9616 62.1896 41.8731C61.9981 41.7846 61.795 41.75 61.5931 41.7716H39.7671ZM5.44936 35.4917C5.24095 35.4744 5.03134 35.502 4.83374 35.5728C4.63613 35.6436 4.45481 35.7561 4.30119 35.903C4.14757 36.05 4.02497 36.2284 3.94112 36.4269C3.85727 36.6254 3.81398 36.8397 3.81398 37.0564C3.81398 37.2731 3.85727 37.4874 3.94112 37.6859C4.02497 37.8844 4.14757 38.0627 4.30119 38.2097C4.45481 38.3567 4.63613 38.4691 4.83374 38.5399C5.03134 38.6107 5.24095 38.6383 5.44936 38.621H24.8305C25.0389 38.6383 25.2485 38.6107 25.4461 38.5399C25.6437 38.4691 25.825 38.3567 25.9786 38.2097C26.1323 38.0627 26.2548 37.8844 26.3387 37.6859C26.4225 37.4874 26.4658 37.2731 26.4658 37.0564C26.4658 36.8397 26.4225 36.6254 26.3387 36.4269C26.2548 36.2284 26.1323 36.05 25.9786 35.903C25.825 35.7561 25.6437 35.6436 25.4461 35.5728C25.2485 35.502 25.0389 35.4744 24.8305 35.4917H5.44936ZM20.912 51.3182C20.912 50.0499 21.2849 48.8101 21.9836 47.7556C22.6823 46.7011 23.6753 45.8792 24.8371 45.3939C25.999 44.9085 27.2774 44.7816 28.5108 45.029C29.7442 45.2764 30.8771 45.8871 31.7664 46.7839C32.6556 47.6807 33.2612 48.8233 33.5065 50.0672C33.7519 51.311 33.6259 52.6004 33.1447 53.7721C32.6634 54.9438 31.8485 55.9453 30.8029 56.6499C29.7572 57.3545 28.5279 57.7306 27.2704 57.7306C25.584 57.7306 23.9667 57.055 22.7743 55.8524C21.5819 54.6499 20.912 53.0188 20.912 51.3182ZM72.5279 51.3182C72.5279 50.0495 72.901 48.8094 73.6001 47.7546C74.2992 46.6999 75.2927 45.878 76.4551 45.393C77.6175 44.9079 78.8964 44.7815 80.1301 45.0297C81.3637 45.2779 82.4967 45.8895 83.3855 46.7873C84.2744 47.685 84.8792 48.8285 85.1235 50.073C85.3678 51.3175 85.2405 52.6071 84.7578 53.7786C84.2751 54.9502 83.4587 55.951 82.4119 56.6545C81.365 57.3579 80.1348 57.7324 78.8768 57.7306C77.1921 57.7281 75.5773 57.0514 74.3869 55.8491C73.1965 54.6468 72.5278 53.0172 72.5279 51.3182ZM69.4376 16.5647H82.4259L84.8231 26.2258H69.4002L69.4376 16.5647ZM69.4376 10.2562H80.4407C81.2959 10.2562 82.1162 10.5982 82.7218 11.2071C83.3274 11.8161 83.6688 12.6424 83.6713 13.5049V13.6088H69.4002L69.4376 10.2562ZM9.96519 0.953979C9.18012 0.980873 8.43599 1.31379 7.88935 1.8827C7.3427 2.4516 7.03615 3.21215 7.03417 4.00435V30.8155C7.01799 31.0195 7.04387 31.2247 7.11017 31.4182C7.17648 31.6116 7.28178 31.7891 7.41945 31.9395C7.55711 32.0899 7.72416 32.2099 7.91007 32.292C8.09598 32.3741 8.29673 32.4164 8.49968 32.4164C8.70263 32.4164 8.90338 32.3741 9.08929 32.292C9.27521 32.2099 9.44225 32.0899 9.57992 31.9395C9.71758 31.7891 9.82289 31.6116 9.88919 31.4182C9.9555 31.2247 9.98137 31.0195 9.96519 30.8155V4.00435C9.96512 3.99111 9.96782 3.97801 9.9731 3.96589C9.97838 3.95377 9.98613 3.9429 9.99584 3.934C10.0056 3.92509 10.017 3.91835 10.0295 3.9142C10.0419 3.91005 10.0551 3.90859 10.0682 3.90991H66.3287C66.3418 3.90859 66.355 3.91005 66.3674 3.9142C66.3799 3.91835 66.3914 3.92509 66.4011 3.934C66.4108 3.9429 66.4185 3.95377 66.4238 3.96589C66.4291 3.97801 66.4318 3.99111 66.4317 4.00435V30.8155C66.4155 31.0195 66.4414 31.2247 66.5077 31.4182C66.574 31.6116 66.6793 31.7891 66.817 31.9395C66.9546 32.0899 67.1217 32.2099 67.3076 32.292C67.4935 32.3741 67.6943 32.4164 67.8972 32.4164C68.1002 32.4164 68.3009 32.3741 68.4868 32.292C68.6727 32.2099 68.8398 32.0899 68.9775 31.9395C69.1151 31.7891 69.2204 31.6116 69.2867 31.4182C69.353 31.2247 69.3789 31.0195 69.3627 30.8155V29.1439H86.696C87.7103 29.1432 88.6987 29.4675 89.5184 30.0701C90.3381 30.6727 90.9467 31.5224 91.2564 32.4965H86.696C86.5041 32.4965 86.3142 32.5346 86.1369 32.6087C85.9597 32.6827 85.7987 32.7912 85.663 32.928C85.5274 33.0648 85.4198 33.2272 85.3464 33.406C85.2729 33.5847 85.2352 33.7763 85.2352 33.9698V37.124C85.2352 38.3522 85.7183 39.5302 86.5785 40.3995C87.4388 41.2688 88.6058 41.7585 89.8236 41.761H91.4905V48.2678H87.6511C87.0221 46.4255 85.8386 44.8272 84.2656 43.6957C82.6927 42.5642 80.8089 41.9561 78.8768 41.9561C76.9448 41.9561 75.0609 42.5642 73.488 43.6957C71.9151 44.8272 70.7316 46.4255 70.1025 48.2678H69.4002V37.124C69.3707 36.7524 69.2035 36.4057 68.9319 36.1528C68.6604 35.9 68.3043 35.7596 67.9347 35.7596C67.565 35.7596 67.209 35.9 66.9374 36.1528C66.6658 36.4057 66.4986 36.7524 66.4692 37.124V48.2678H36.0447C35.4156 46.4255 34.2321 44.8272 32.6592 43.6957C31.0862 42.5642 29.2024 41.9561 27.2704 41.9561C25.3383 41.9561 23.4545 42.5642 21.8815 43.6957C20.3086 44.8272 19.1251 46.4255 18.496 48.2678H10.0682C10.0424 48.2679 10.0175 48.2583 9.99848 48.2408C9.97941 48.2233 9.96753 48.1992 9.96519 48.1734V44.9341H16.3235C16.692 44.9044 17.0358 44.7358 17.2865 44.4619C17.5372 44.188 17.6765 43.8289 17.6765 43.4561C17.6765 43.0834 17.5372 42.7243 17.2865 42.4504C17.0358 42.1765 16.692 42.0079 16.3235 41.9782H2.27713C2.07483 41.9618 1.87136 41.9879 1.67955 42.0548C1.48774 42.1217 1.31174 42.2279 1.16262 42.3667C1.0135 42.5056 0.894498 42.674 0.813107 42.8615C0.731716 43.049 0.689697 43.2515 0.689697 43.4561C0.689697 43.6608 0.731716 43.8633 0.813107 44.0508C0.894498 44.2383 1.0135 44.4067 1.16262 44.5456C1.31174 44.6844 1.48774 44.7906 1.67955 44.8575C1.87136 44.9243 2.07483 44.9504 2.27713 44.9341H7.03417V48.1922C7.03665 49.0021 7.3574 49.778 7.92612 50.3498C8.49484 50.9215 9.26514 51.2426 10.0682 51.2426H17.981V51.337C17.9837 53.5833 18.7858 55.754 20.2414 57.4542C21.697 59.1544 23.7094 60.2712 25.9125 60.6015H28.6188C30.8227 60.2731 32.8362 59.1568 34.2922 57.4562C35.7481 55.7555 36.5496 53.5838 36.5503 51.337V51.2426H69.5968V51.337C69.6034 53.5862 70.4121 55.7579 71.8753 57.4554C73.3384 59.1529 75.3583 60.2629 77.5658 60.5826H80.2721C82.4752 60.2523 84.4876 59.1355 85.9432 57.4353C87.3988 55.7351 88.2009 53.5644 88.2036 51.3182C88.2036 51.3182 88.2036 51.2615 88.2036 51.2237H92.9981C93.379 51.2139 93.7411 51.0543 94.007 50.7791C94.2729 50.5039 94.4216 50.1347 94.4215 49.7505V33.9698C94.4185 32.1093 93.7563 30.3111 92.5543 28.8998C91.3523 27.4884 89.6897 26.5568 87.8665 26.273L85.4412 16.4892C85.7691 16.418 86.0631 16.236 86.2743 15.9731C86.4856 15.7103 86.6013 15.3825 86.6023 15.0442V13.4671C86.5999 11.8207 85.9496 10.2425 84.7943 9.07921C83.639 7.91588 82.0732 7.26249 80.4407 7.26249H69.4002V4.00435C69.3981 3.21057 69.0903 2.44866 68.5416 1.8795C67.993 1.31034 67.2465 0.978476 66.4598 0.953979H9.96519Z" stroke="#fff"/>
</svg>
