<svg width="84" height="77" viewBox="0 0 84 77" fill="none" xmlns="http://www.w3.org/2000/svg">
<path fill-rule="evenodd" clip-rule="evenodd" d="M41.4441 0L41.5844 0.0855577L41.7053 0.0103286L41.874 0.262139L83.125 25.4114L82.9035 25.7487C83.5831 26.4657 84 27.4342 84 28.5V72.125C84 74.3341 82.2091 76.125 80 76.125H79.9932L79.8257 76.3371L79.557 76.125H4C3.86276 76.125 3.72714 76.1181 3.59346 76.1046L3.29893 76.3371L3.03992 76.009C1.29447 75.579 0 74.0032 0 72.125V28.5C0 27.4349 0.416324 26.467 1.09512 25.7501L0.875 25.4217L41.2521 0.292345L41.4441 0ZM10.1955 24.5H73.675L41.608 4.94992L10.1955 24.5ZM5 32.2634V68.6238L30.0926 48.8139L5 32.2634ZM79 31.6866V69.3149L53.0324 48.8141L79 31.6866ZM41.6267 56.3371L48.6362 51.7138L73.2237 71.125H9.90094L34.4888 51.7135L41.4987 56.3371L41.5627 56.24L41.6267 56.3371ZM9.89135 29.5L41.5627 50.3896L73.234 29.5H9.89135Z" fill="white"/>
<path d="M19.5 11.625H63.625V38.3848L41.9802 52.7384L19.5 38.3633V11.625Z" fill="#5CD6C7" stroke="white" stroke-width="4"/>
<path fill-rule="evenodd" clip-rule="evenodd" d="M58.625 20.3125H23.625V17.3125H58.625V20.3125ZM58.625 26.875H23.625V23.875H58.625V26.875ZM23.625 33.875H58.625V30.875H23.625V33.875Z" fill="white"/>
</svg>
