<svg width="75" height="67" viewBox="0 0 75 67" fill="none" xmlns="http://www.w3.org/2000/svg">
<mask id="path-1-inside-1_961_1031" fill="white">
<path fill-rule="evenodd" clip-rule="evenodd" d="M63.6194 38.0018C63.8698 36.5386 64.0002 35.0345 64.0002 33.5C64.0002 18.8645 52.1358 7 37.5002 7C32.4967 7 27.8171 8.38669 23.8247 10.7967C25.8799 14.7537 25.7462 19.6852 23.0537 23.6236C20.3612 27.5623 15.8143 29.477 11.3811 28.9981C11.1307 30.4613 11.0002 31.9654 11.0002 33.5C11.0002 48.1355 22.8647 60 37.5002 60C42.5037 60 47.1834 58.6133 51.1758 56.2033C49.1205 52.2463 49.2542 47.3147 51.9467 43.3763C54.6393 39.4376 59.1861 37.5229 63.6194 38.0018ZM70.2077 40.7769C70.7266 38.4341 71.0002 35.999 71.0002 33.5C71.0002 14.9985 56.0018 0 37.5002 0C30.5971 0 24.1816 2.08798 18.8509 5.66685C13.2632 2.52373 6.10166 4.1226 2.41547 9.51468C-1.2699 14.9055 -0.161415 22.1569 4.79279 26.223C4.27385 28.5659 4.00022 31.001 4.00022 33.5C4.00022 52.0015 18.9987 67 37.5002 67C44.4034 67 50.8189 64.912 56.1497 61.3331C61.7373 64.4761 68.8988 62.8773 72.585 57.4852C76.2703 52.0944 75.1618 44.843 70.2077 40.7769Z"/>
</mask>
<path fill-rule="evenodd" clip-rule="evenodd" d="M63.6194 38.0018C63.8698 36.5386 64.0002 35.0345 64.0002 33.5C64.0002 18.8645 52.1358 7 37.5002 7C32.4967 7 27.8171 8.38669 23.8247 10.7967C25.8799 14.7537 25.7462 19.6852 23.0537 23.6236C20.3612 27.5623 15.8143 29.477 11.3811 28.9981C11.1307 30.4613 11.0002 31.9654 11.0002 33.5C11.0002 48.1355 22.8647 60 37.5002 60C42.5037 60 47.1834 58.6133 51.1758 56.2033C49.1205 52.2463 49.2542 47.3147 51.9467 43.3763C54.6393 39.4376 59.1861 37.5229 63.6194 38.0018ZM70.2077 40.7769C70.7266 38.4341 71.0002 35.999 71.0002 33.5C71.0002 14.9985 56.0018 0 37.5002 0C30.5971 0 24.1816 2.08798 18.8509 5.66685C13.2632 2.52373 6.10166 4.1226 2.41547 9.51468C-1.2699 14.9055 -0.161415 22.1569 4.79279 26.223C4.27385 28.5659 4.00022 31.001 4.00022 33.5C4.00022 52.0015 18.9987 67 37.5002 67C44.4034 67 50.8189 64.912 56.1497 61.3331C61.7373 64.4761 68.8988 62.8773 72.585 57.4852C76.2703 52.0944 75.1618 44.843 70.2077 40.7769Z" fill="#33CCBA"/>
<path d="M63.6194 38.0018L63.0824 42.9729L67.755 43.4776L68.5478 38.8452L63.6194 38.0018ZM23.8247 10.7967L21.2407 6.51617L17.2259 8.9397L19.3875 13.1014L23.8247 10.7967ZM23.0537 23.6236L18.9261 20.8018V20.8018L23.0537 23.6236ZM11.3811 28.9981L11.918 24.027L7.24547 23.5223L6.4527 28.1547L11.3811 28.9981ZM51.1758 56.2033L53.7598 60.4838L57.7746 58.0602L55.613 53.8986L51.1758 56.2033ZM51.9467 43.3763L47.8191 40.5545L47.8191 40.5545L51.9467 43.3763ZM70.2077 40.7769L65.326 39.6956L64.6619 42.6937L67.0356 44.6418L70.2077 40.7769ZM18.8509 5.66685L16.3995 10.0247L19.0823 11.5338L21.6379 9.81808L18.8509 5.66685ZM2.41547 9.51468L-1.71218 6.69289H-1.71218L2.41547 9.51468ZM4.79279 26.223L9.67447 27.3043L10.3385 24.3062L7.96489 22.3581L4.79279 26.223ZM56.1497 61.3331L58.601 56.9752L55.9182 55.4662L53.3627 57.1819L56.1497 61.3331ZM72.585 57.4852L68.4573 54.6634L72.585 57.4852ZM59.0002 33.5C59.0002 34.7507 58.894 35.9727 58.691 37.1584L68.5478 38.8452C68.8456 37.1046 69.0002 35.3184 69.0002 33.5H59.0002ZM37.5002 12C49.3743 12 59.0002 21.6259 59.0002 33.5H69.0002C69.0002 16.103 54.8972 2 37.5002 2V12ZM26.4086 15.0773C29.6433 13.1247 33.4328 12 37.5002 12V2C31.5607 2 25.9909 3.6487 21.2407 6.51617L26.4086 15.0773ZM27.1814 26.4454C30.9547 20.9259 31.1325 14.019 28.2619 8.49206L19.3875 13.1014C20.6273 15.4884 20.5377 18.4445 18.9261 20.8018L27.1814 26.4454ZM10.8441 33.9692C17.0363 34.6381 23.4079 31.9652 27.1814 26.4454L18.9261 20.8018C17.3144 23.1593 14.5924 24.3159 11.918 24.027L10.8441 33.9692ZM16.0002 33.5C16.0002 32.2493 16.1065 31.0273 16.3094 29.8415L6.4527 28.1547C6.15483 29.8953 6.00022 31.6816 6.00022 33.5H16.0002ZM37.5002 55C25.6261 55 16.0002 45.3741 16.0002 33.5H6.00022C6.00022 50.897 20.1033 65 37.5002 65V55ZM48.5918 51.9227C45.3572 53.8753 41.5677 55 37.5002 55V65C43.4398 65 49.0096 63.3513 53.7598 60.4838L48.5918 51.9227ZM55.613 53.8986C54.3731 51.5115 54.4628 48.5555 56.0744 46.198L47.8191 40.5545C44.0457 46.074 43.8679 52.981 46.7386 58.5079L55.613 53.8986ZM56.0744 46.198C57.686 43.8406 60.4081 42.684 63.0824 42.9729L64.1564 33.0307C57.9642 32.3618 51.5925 35.0347 47.8191 40.5545L56.0744 46.198ZM66.0002 33.5C66.0002 35.633 65.7668 37.7055 65.326 39.6956L75.0893 41.8582C75.6864 39.1626 76.0002 36.365 76.0002 33.5H66.0002ZM37.5002 5C53.2403 5 66.0002 17.7599 66.0002 33.5H76.0002C76.0002 12.237 58.7632 -5 37.5002 -5V5ZM21.6379 9.81808C26.1702 6.7752 31.6203 5 37.5002 5V-5C29.5738 -5 22.1929 -2.59923 16.0639 1.51563L21.6379 9.81808ZM6.54312 12.3365C8.75334 9.10341 13.0515 8.14143 16.3995 10.0247L21.3022 1.309C13.4748 -3.09397 3.44999 -0.858214 -1.71218 6.69289L6.54312 12.3365ZM7.96489 22.3581C4.99646 19.9218 4.3334 15.5688 6.54312 12.3365L-1.71218 6.69289C-6.8732 14.2423 -5.31929 24.3921 1.62069 30.088L7.96489 22.3581ZM9.00022 33.5C9.00022 31.367 9.23366 29.2944 9.67447 27.3043L-0.088892 25.1417C-0.685959 27.8373 -0.999781 30.635 -0.999781 33.5H9.00022ZM37.5002 62C21.7601 62 9.00022 49.2401 9.00022 33.5H-0.999781C-0.999781 54.763 16.2373 72 37.5002 72V62ZM53.3627 57.1819C48.8303 60.2248 43.3801 62 37.5002 62V72C45.4267 72 52.8076 69.5992 58.9367 65.4843L53.3627 57.1819ZM68.4573 54.6634C66.2471 57.8965 61.949 58.8584 58.601 56.9752L53.6984 65.691C61.5257 70.0938 71.5505 67.8581 76.7126 60.307L68.4573 54.6634ZM67.0356 44.6418C70.004 47.0781 70.667 51.4311 68.4573 54.6634L76.7126 60.307C81.8736 52.7576 80.3197 42.6079 73.3798 36.912L67.0356 44.6418Z" fill="white" mask="url(#path-1-inside-1_961_1031)"/>
</svg>
