<svg width="71" height="71" viewBox="0 0 71 71" fill="none" xmlns="http://www.w3.org/2000/svg">
<path fill-rule="evenodd" clip-rule="evenodd" d="M6.94531 38.3506H6.86336C6.5582 38.3283 6.27421 38.1863 6.07324 37.9556C5.87226 37.7248 5.77057 37.4241 5.7903 37.1187C6.2144 30.9328 8.54886 25.0311 12.4712 20.2291C16.3936 15.4271 21.7103 11.9616 27.6869 10.3114C27.6891 8.26878 28.4647 6.30272 29.8575 4.80864C31.2504 3.31457 33.1572 2.40327 35.1946 2.25802C37.232 2.11277 39.2489 2.74434 40.8396 4.02571C42.4303 5.30709 43.4768 7.14324 43.7688 9.16492C44.0609 11.1866 43.5766 13.2439 42.4136 14.9231C41.2505 16.6022 39.4948 17.7787 37.4996 18.216C35.5043 18.6533 33.4176 18.3189 31.6589 17.28C29.9002 16.2412 28.6 14.575 28.0198 12.6164C22.5695 14.1843 17.7339 17.3919 14.1698 21.8034C10.6056 26.2149 8.48562 31.6167 8.09776 37.2749C8.07706 37.5667 7.94671 37.8397 7.73292 38.0393C7.51914 38.2388 7.23775 38.35 6.94531 38.3506ZM38.9989 5.51884C38.0475 4.88311 36.929 4.54379 35.7847 4.54379C34.251 4.54583 32.7807 5.15603 31.6962 6.2406C30.6116 7.32516 30.0015 8.79556 29.9994 10.3294C29.9994 11.4736 30.3387 12.5922 30.9744 13.5437C31.6101 14.4951 32.5137 15.2366 33.5708 15.6745C34.6279 16.1124 35.7912 16.227 36.9134 16.0038C38.0356 15.7805 39.0665 15.2295 39.8756 14.4204C40.6847 13.6113 41.2356 12.5804 41.4589 11.4581C41.6821 10.3358 41.5675 9.1725 41.1297 8.11532C40.6918 7.05815 39.9503 6.15457 38.9989 5.51884Z" fill="#fff"/>
<path fill-rule="evenodd" clip-rule="evenodd" d="M65.0749 46.0161C66.5118 39.8792 65.9762 33.4454 63.5442 27.6308C61.1122 21.8161 56.9079 16.9169 51.5297 13.6307C51.4004 13.5511 51.2567 13.4979 51.1068 13.4739C50.9569 13.4499 50.8037 13.4556 50.656 13.4908C50.5084 13.526 50.3691 13.59 50.2461 13.679C50.1231 13.768 50.0189 13.8804 49.9394 14.0097C49.8598 14.139 49.8065 14.2828 49.7825 14.4327C49.7585 14.5826 49.7643 14.7358 49.7995 14.8835C49.8347 15.0311 49.8986 15.1705 49.9877 15.2934C50.0767 15.4164 50.1891 15.5206 50.3184 15.6002C55.2398 18.6092 59.0974 23.0818 61.3512 28.3919C63.605 33.702 64.1422 39.5839 62.8878 45.2144C60.8803 44.7922 58.7874 45.1459 57.0302 46.2043C55.2729 47.2627 53.9816 48.9474 53.4161 50.9193C52.8505 52.8913 53.0527 55.0043 53.9819 56.8333C54.9111 58.6622 56.4984 60.0714 58.4245 60.7774C60.3506 61.4833 62.4726 61.4337 64.3635 60.6384C66.2545 59.8431 67.7742 58.3612 68.6168 56.4908C69.4595 54.6204 69.5626 52.5003 68.9055 50.5569C68.2484 48.6136 66.8797 46.9912 65.0749 46.0161ZM61.2334 58.9267C60.0895 58.9247 58.9718 58.5836 58.0218 57.9465C57.0717 57.3094 56.3317 56.405 55.8955 55.3475C55.4593 54.29 55.3463 53.1269 55.5709 52.0052C55.7955 50.8835 56.3476 49.8536 57.1573 49.0456C57.9671 48.2376 58.9982 47.6878 60.1203 47.4657C61.2424 47.2435 62.4052 47.3591 63.4617 47.7977C64.5182 48.2363 65.4209 48.9782 66.0559 49.9298C66.6908 50.8813 67.0294 51.9997 67.0289 53.1437C67.0269 54.6786 66.4156 56.1499 65.3293 57.2343C64.2431 58.3186 62.7708 58.9274 61.2359 58.9267H61.2334Z" fill="#fff"/>
<path fill-rule="evenodd" clip-rule="evenodd" d="M46.3949 64.9223C41.3094 67.0253 35.7133 67.5682 30.3184 66.4819C24.9235 65.3955 19.9736 62.7291 16.0982 58.8217C17.5325 57.3625 18.3611 55.4144 18.4173 53.3691C18.4736 51.3238 17.7534 49.333 16.4015 47.7972C15.0496 46.2614 13.1663 45.2945 11.1305 45.0909C9.09469 44.8874 7.05728 45.4622 5.42809 46.6999C3.7989 47.9377 2.69877 49.7464 2.34896 51.7623C1.99915 53.7783 2.42562 55.8519 3.54258 57.5662C4.65955 59.2804 6.38416 60.5082 8.36955 61.0024C10.3549 61.4967 12.4538 61.2208 14.2441 60.2303C18.4352 64.5439 23.8241 67.5008 29.7138 68.7186C35.6035 69.9363 41.723 69.3588 47.281 67.0608C47.4265 67.0064 47.5596 66.9233 47.6724 66.8165C47.7851 66.7095 47.8752 66.5811 47.9373 66.4386C47.9993 66.2962 48.032 66.1427 48.0335 65.9873C48.035 65.832 48.0052 65.6779 47.9458 65.5343C47.8865 65.3907 47.7989 65.2605 47.6882 65.1515C47.5775 65.0425 47.446 64.9569 47.3015 64.8997C47.157 64.8426 47.0025 64.8152 46.8472 64.8191C46.6919 64.8229 46.5389 64.858 46.3974 64.9223H46.3949ZM4.54813 53.1411C4.54763 51.9967 4.8865 50.8779 5.52189 49.9261C6.15728 48.9743 7.06064 48.2324 8.11772 47.7941C9.1748 47.3558 10.3381 47.2409 11.4605 47.4638C12.5829 47.6868 13.614 48.2376 14.4233 49.0466C15.2327 49.8556 15.7839 50.8865 16.0074 52.0089C16.2308 53.1312 16.1164 54.2947 15.6786 55.352C15.2408 56.4093 14.4993 57.3131 13.5478 57.9489C12.5964 58.5847 11.4778 58.9241 10.3334 58.9241C8.79925 58.9241 7.32772 58.3155 6.24169 57.2318C5.15566 56.1482 4.54384 54.6779 4.54045 53.1437L4.54813 53.1411Z" fill="#fff"/>
<path fill-rule="evenodd" clip-rule="evenodd" d="M6.94531 38.3506H6.86336C6.5582 38.3283 6.27421 38.1863 6.07324 37.9556C5.87226 37.7248 5.77057 37.4241 5.7903 37.1187C6.2144 30.9328 8.54886 25.0311 12.4712 20.2291C16.3936 15.4271 21.7103 11.9616 27.6869 10.3114C27.6891 8.26878 28.4647 6.30272 29.8575 4.80864C31.2504 3.31457 33.1572 2.40327 35.1946 2.25802C37.232 2.11277 39.2489 2.74434 40.8396 4.02571C42.4303 5.30709 43.4768 7.14324 43.7688 9.16492C44.0609 11.1866 43.5766 13.2439 42.4136 14.9231C41.2505 16.6022 39.4948 17.7787 37.4996 18.216C35.5043 18.6533 33.4176 18.3189 31.6589 17.28C29.9002 16.2412 28.6 14.575 28.0198 12.6164C22.5695 14.1843 17.7339 17.3919 14.1698 21.8034C10.6056 26.2149 8.48562 31.6167 8.09776 37.2749C8.07706 37.5667 7.94671 37.8397 7.73292 38.0393C7.51914 38.2388 7.23775 38.35 6.94531 38.3506ZM38.9989 5.51884C38.0475 4.88311 36.929 4.54379 35.7847 4.54379C34.251 4.54583 32.7807 5.15603 31.6962 6.2406C30.6116 7.32516 30.0015 8.79556 29.9994 10.3294C29.9994 11.4736 30.3387 12.5922 30.9744 13.5437C31.6101 14.4951 32.5137 15.2366 33.5708 15.6745C34.6279 16.1124 35.7912 16.227 36.9134 16.0038C38.0356 15.7805 39.0665 15.2295 39.8756 14.4204C40.6847 13.6113 41.2356 12.5804 41.4589 11.4581C41.6821 10.3358 41.5675 9.1725 41.1297 8.11532C40.6918 7.05815 39.9503 6.15457 38.9989 5.51884Z" stroke="#fff" stroke-width="3"/>
<path fill-rule="evenodd" clip-rule="evenodd" d="M65.0749 46.0161C66.5118 39.8792 65.9762 33.4454 63.5442 27.6308C61.1122 21.8161 56.9079 16.9169 51.5297 13.6307C51.4004 13.5511 51.2567 13.4979 51.1068 13.4739C50.9569 13.4499 50.8037 13.4556 50.656 13.4908C50.5084 13.526 50.3691 13.59 50.2461 13.679C50.1231 13.768 50.0189 13.8804 49.9394 14.0097C49.8598 14.139 49.8065 14.2828 49.7825 14.4327C49.7585 14.5826 49.7643 14.7358 49.7995 14.8835C49.8347 15.0311 49.8986 15.1705 49.9877 15.2934C50.0767 15.4164 50.1891 15.5206 50.3184 15.6002C55.2398 18.6092 59.0974 23.0818 61.3512 28.3919C63.605 33.702 64.1422 39.5839 62.8878 45.2144C60.8803 44.7922 58.7874 45.1459 57.0302 46.2043C55.2729 47.2627 53.9816 48.9474 53.4161 50.9193C52.8505 52.8913 53.0527 55.0043 53.9819 56.8333C54.9111 58.6622 56.4984 60.0714 58.4245 60.7774C60.3506 61.4833 62.4726 61.4337 64.3635 60.6384C66.2545 59.8431 67.7742 58.3612 68.6168 56.4908C69.4595 54.6204 69.5626 52.5003 68.9055 50.5569C68.2484 48.6136 66.8797 46.9912 65.0749 46.0161ZM61.2334 58.9267C60.0895 58.9247 58.9718 58.5836 58.0218 57.9465C57.0717 57.3094 56.3317 56.405 55.8955 55.3475C55.4593 54.29 55.3463 53.1269 55.5709 52.0052C55.7955 50.8835 56.3476 49.8536 57.1573 49.0456C57.9671 48.2376 58.9982 47.6878 60.1203 47.4657C61.2424 47.2435 62.4052 47.3591 63.4617 47.7977C64.5182 48.2363 65.4209 48.9782 66.0559 49.9298C66.6908 50.8813 67.0294 51.9997 67.0289 53.1437C67.0269 54.6786 66.4156 56.1499 65.3293 57.2343C64.2431 58.3186 62.7708 58.9274 61.2359 58.9267H61.2334Z" stroke="#fff" stroke-width="3"/>
<path fill-rule="evenodd" clip-rule="evenodd" d="M46.3949 64.9223C41.3094 67.0253 35.7133 67.5682 30.3184 66.4819C24.9235 65.3955 19.9736 62.7291 16.0982 58.8217C17.5325 57.3625 18.3611 55.4144 18.4173 53.3691C18.4736 51.3238 17.7534 49.333 16.4015 47.7972C15.0496 46.2614 13.1663 45.2945 11.1305 45.0909C9.09469 44.8874 7.05728 45.4622 5.42809 46.6999C3.7989 47.9377 2.69877 49.7464 2.34896 51.7623C1.99915 53.7783 2.42562 55.8519 3.54258 57.5662C4.65955 59.2804 6.38416 60.5082 8.36955 61.0024C10.3549 61.4967 12.4538 61.2208 14.2441 60.2303C18.4352 64.5439 23.8241 67.5008 29.7138 68.7186C35.6035 69.9363 41.723 69.3588 47.281 67.0608C47.4265 67.0064 47.5596 66.9233 47.6724 66.8165C47.7851 66.7095 47.8752 66.5811 47.9373 66.4386C47.9993 66.2962 48.032 66.1427 48.0335 65.9873C48.035 65.832 48.0052 65.6779 47.9458 65.5343C47.8865 65.3907 47.7989 65.2605 47.6882 65.1515C47.5775 65.0425 47.446 64.9569 47.3015 64.8997C47.157 64.8426 47.0025 64.8152 46.8472 64.8191C46.6919 64.8229 46.5389 64.858 46.3974 64.9223H46.3949ZM4.54813 53.1411C4.54763 51.9967 4.8865 50.8779 5.52189 49.9261C6.15728 48.9743 7.06064 48.2324 8.11772 47.7941C9.1748 47.3558 10.3381 47.2409 11.4605 47.4638C12.5829 47.6868 13.614 48.2376 14.4233 49.0466C15.2327 49.8556 15.7839 50.8865 16.0074 52.0089C16.2308 53.1312 16.1164 54.2947 15.6786 55.352C15.2408 56.4093 14.4993 57.3131 13.5478 57.9489C12.5964 58.5847 11.4778 58.9241 10.3334 58.9241C8.79925 58.9241 7.32772 58.3155 6.24169 57.2318C5.15566 56.1482 4.54384 54.6779 4.54045 53.1437L4.54813 53.1411Z" stroke="#fff" stroke-width="3"/>
</svg>
