<svg width="78" height="68" viewBox="0 0 78 68" fill="none" xmlns="http://www.w3.org/2000/svg">
<path d="M76.3185 25.2111H54.0306C53.6412 25.2111 53.3416 25.5212 53.3416 25.8903V30.0103C53.3416 30.3942 53.6561 30.6896 54.0306 30.6896H76.3185C76.7079 30.6896 77.0075 30.3795 77.0075 30.0103V25.8903C77.0075 25.5212 76.693 25.2111 76.3185 25.2111ZM64.6503 36.8769H54.0306C53.6412 36.8769 53.3416 37.187 53.3416 37.5562V41.6761C53.3416 42.0601 53.6561 42.3554 54.0306 42.3554H64.6503C65.0397 42.3554 65.3393 42.0453 65.3393 41.6761V37.5562C65.3393 37.187 65.0248 36.8769 64.6503 36.8769ZM35.5922 17.5323H31.8176C31.2784 17.5323 30.844 17.9605 30.844 18.4921V39.7712C30.844 40.0813 30.9938 40.3619 31.2484 40.5391L44.2048 49.857C44.6391 50.1671 45.2532 50.0785 45.5678 49.6502L47.7996 46.6378C48.1141 46.2096 48.0243 45.6041 47.5749 45.294L36.5657 37.438V18.4921C36.5807 17.9605 36.1314 17.5323 35.5922 17.5323Z" fill="#fff"/>
<path d="M64.111 47.6863H59.0783C58.584 47.6863 58.1347 47.9373 57.865 48.3508C56.7566 50.0785 55.4685 51.6733 53.9856 53.1353C51.4393 55.6456 48.4736 57.6244 45.1633 58.9977C41.7483 60.4153 38.1085 61.1389 34.3639 61.1389C30.6193 61.1389 26.9795 60.4153 23.5644 58.9977C20.2692 57.6244 17.3035 55.6456 14.7421 53.1353C12.1808 50.6249 10.2187 47.6863 8.82566 44.4228C7.38773 41.0559 6.65379 37.4824 6.65379 33.7759C6.65379 30.0694 7.38773 26.5106 8.82566 23.1289C10.2187 19.8802 12.2258 16.9564 14.7721 14.4312C17.3184 11.9061 20.2842 9.94211 23.5944 8.56879C27.0095 7.15117 30.6492 6.42759 34.3938 6.42759C38.1385 6.42759 41.7782 7.15117 45.1933 8.56879C48.4885 9.94211 51.4543 11.9209 54.0156 14.4312C55.4985 15.8932 56.7866 17.488 57.895 19.2157C58.1496 19.6292 58.614 19.8802 59.1083 19.8802H64.141C64.7401 19.8802 65.1296 19.26 64.86 18.7432C59.1382 7.62371 47.6348 0.387939 34.7833 0.24027C15.9854 0.00399987 0.347872 15.1844 0.317915 33.7168C0.287958 52.2788 15.536 67.341 34.3639 67.341C47.3801 67.341 59.0783 60.0757 64.815 48.8233C65.0846 48.3065 64.6952 47.6863 64.111 47.6863Z" fill="#fff"/>
</svg>
