<svg width="63" height="71" viewBox="0 0 63 71" fill="none" xmlns="http://www.w3.org/2000/svg">
<path d="M28.4689 0.813662C30.3446 -0.271221 32.6554 -0.271221 34.5311 0.813662L59.9689 15.527C61.8446 16.6119 63 18.6169 63 20.7866V50.2134C63 52.3831 61.8446 54.3881 59.9689 55.473L34.5311 70.1863C32.6554 71.2712 30.3446 71.2712 28.4689 70.1863L3.03109 55.473C1.15544 54.3881 0 52.3831 0 50.2134V20.7866C0 18.6169 1.15544 16.6119 3.03109 15.527L28.4689 0.813662Z" fill="#66BCFF"/>
<path d="M32.8577 41.8402L32.4288 42.7436L32.8577 41.8402C32.3149 41.5825 31.6851 41.5825 31.1423 41.8402L22.6475 45.8726L23.8575 36.5474C23.9348 35.9516 23.7402 35.3527 23.3275 34.9161L16.8673 28.0831L26.11 26.3523C26.7005 26.2417 27.2101 25.8715 27.4977 25.344L32 17.0886L36.5023 25.344C36.7899 25.8715 37.2995 26.2417 37.89 26.3523L47.1327 28.0831L40.6725 34.9161C40.2598 35.3527 40.0652 35.9516 40.1425 36.5474L41.3525 45.8726L32.8577 41.8402Z" stroke="white" stroke-width="2"/>
</svg>
