<svg width="63" height="71" viewBox="0 0 63 71" fill="none" xmlns="http://www.w3.org/2000/svg">
<path d="M28.4689 0.813662C30.3446 -0.271221 32.6554 -0.271221 34.5311 0.813662L59.9689 15.527C61.8446 16.6119 63 18.6169 63 20.7866V50.2134C63 52.3831 61.8446 54.3881 59.9689 55.473L34.5311 70.1863C32.6554 71.2712 30.3446 71.2712 28.4689 70.1863L3.03109 55.473C1.15544 54.3881 0 52.3831 0 50.2134V20.7866C0 18.6169 1.15544 16.6119 3.03109 15.527L28.4689 0.813662Z" fill="#66BCFF"/>
<path d="M19 22H44.5M19 35.5H44.5M19 49.5H44.5M19 28.5H34.5M19 42H34.5" stroke="white" stroke-width="2" stroke-linecap="round"/>
</svg>
