<svg width="63" height="71" viewBox="0 0 63 71" fill="none" xmlns="http://www.w3.org/2000/svg">
<path d="M28.4689 0.813662C30.3446 -0.271221 32.6554 -0.271221 34.5311 0.813662L59.9689 15.527C61.8446 16.6119 63 18.6169 63 20.7866V50.2134C63 52.3831 61.8446 54.3881 59.9689 55.473L34.5311 70.1863C32.6554 71.2712 30.3446 71.2712 28.4689 70.1863L3.03109 55.473C1.15544 54.3881 0 52.3831 0 50.2134V20.7866C0 18.6169 1.15544 16.6119 3.03109 15.527L28.4689 0.813662Z" fill="#66BCFF"/>
<path d="M29.3774 15.7669C30.1714 14.7993 31.649 14.7906 32.4545 15.7486L33.5143 17.0094C34.0377 17.632 34.886 17.8756 35.66 17.6256L37.2274 17.1193C38.4184 16.7346 39.6662 17.526 39.8258 18.7675L40.0358 20.4011C40.1395 21.2079 40.7215 21.8714 41.5077 22.0796L43.1 22.501C44.31 22.8213 44.9318 24.1617 44.3949 25.2924L43.6883 26.7802C43.3394 27.5149 43.4702 28.3878 44.0192 28.988L45.1308 30.2034C45.9756 31.127 45.774 32.5908 44.711 33.2517L43.3122 34.1213C42.6215 34.5508 42.2596 35.3558 42.397 36.1575L42.675 37.7809C42.8864 39.0146 41.9254 40.1371 40.6738 40.1184L39.0269 40.0937C38.2137 40.0816 37.474 40.5632 37.1561 41.3118L36.5124 42.8279C36.0232 43.98 34.6079 44.4047 33.5651 43.7124L32.193 42.8013C31.5154 42.3513 30.6328 42.3566 29.9606 42.8145L28.5994 43.7419C27.565 44.4466 26.1447 44.0387 25.6419 42.8925L24.9801 41.3842C24.6533 40.6394 23.908 40.1667 23.0949 40.1885L21.4485 40.2327C20.1972 40.2663 19.223 39.1553 19.4196 37.9192L19.6784 36.2926C19.8061 35.4893 19.4347 34.6887 18.7389 34.2675L17.3299 33.4145C16.2591 32.7663 16.0402 31.305 16.8739 30.3714L17.971 29.1429C18.5128 28.5362 18.6332 27.6619 18.2755 26.9313L17.5514 25.452C17.001 24.3278 17.6068 22.9801 18.8129 22.6454L20.4001 22.2051C21.1838 21.9876 21.7578 21.3172 21.8519 20.5093L22.0425 18.8733C22.1873 17.63 23.4256 16.8237 24.6212 17.1943L26.1944 17.6819C26.9713 17.9227 27.8167 17.669 28.3326 17.0402L29.3774 15.7669Z" stroke="white" stroke-width="2"/>
<path d="M25.6841 42.8871L25.7585 56.3018L30.8726 51.7729L36.0403 56.2407L35.9658 43.7097" stroke="white" stroke-width="2"/>
<circle cx="30.9978" cy="29.5414" r="8.51412" transform="rotate(-0.34072 30.9978 29.5414)" stroke="white" stroke-width="2"/>
</svg>
