<svg width="44" height="44" viewBox="0 0 44 44" xmlns="http://www.w3.org/2000/svg">
<circle cx="22" cy="22" r="22" />
<path d="M29.8834 23.9929C30.7353 24.8322 31.6341 25.6214 32.3966 26.5454C32.7338 26.9553 33.0531 27.3791 33.2981 27.8557C33.6449 28.5324 33.3311 29.2786 32.7296 29.3189L28.9901 29.3175C28.0253 29.3981 27.2559 29.0063 26.609 28.3407C26.0915 27.8085 25.6112 27.2416 25.1143 26.6913C24.9106 26.4662 24.6973 26.255 24.4413 26.0869C23.9307 25.752 23.4875 25.8548 23.1957 26.3926C22.8984 26.9387 22.831 27.5445 22.8021 28.1545C22.7621 29.0438 22.4951 29.2772 21.6115 29.3175C19.7218 29.4078 17.9271 29.1188 16.2603 28.1559C14.7904 27.3069 13.6521 26.1091 12.6598 24.753C10.7288 22.1115 9.25058 19.2088 7.92103 16.2255C7.62236 15.553 7.8412 15.1917 8.57479 15.1792C9.79423 15.1556 11.0151 15.157 12.2359 15.1778C12.7314 15.1848 13.0603 15.4724 13.2516 15.9449C13.9123 17.5831 14.7188 19.1421 15.7332 20.5872C16.0029 20.9721 16.2782 21.357 16.6705 21.628C17.104 21.9281 17.4343 21.828 17.638 21.3403C17.7674 21.0305 17.8238 20.6984 17.8527 20.3663C17.9491 19.2269 17.9615 18.0889 17.7922 16.9536C17.6876 16.245 17.2926 15.7864 16.592 15.6517C16.2341 15.5836 16.2878 15.4488 16.4612 15.2432C16.7613 14.8874 17.0448 14.6665 17.6077 14.6665H21.8345C22.4993 14.7985 22.6479 15.1014 22.7388 15.7767L22.7429 20.5163C22.736 20.7776 22.8723 21.5543 23.3388 21.728C23.7118 21.8517 23.9582 21.5501 24.1825 21.3098C25.1942 20.2259 25.9167 18.9448 26.5622 17.6178C26.8485 17.0342 27.0949 16.4284 27.333 15.8226C27.5092 15.3738 27.7872 15.1528 28.2882 15.1626L32.3553 15.1667C32.4764 15.1667 32.5975 15.1681 32.7145 15.189C33.3999 15.3071 33.5871 15.6044 33.3765 16.2797C33.0434 17.3399 32.3938 18.2237 31.7593 19.1115C31.0808 20.0592 30.3554 20.9749 29.6824 21.9281C29.0644 22.7979 29.114 23.237 29.8806 23.9929H29.8834Z" fill="white"/>
</svg>
