<svg width="44" height="44" viewBox="0 0 44 44" fill="none" xmlns="http://www.w3.org/2000/svg">
<g clip-path="url(#clip0_1107_419)">
<path d="M21.9999 0C34.1509 0 44 9.85049 44 22.0001C44 34.1497 34.1509 44 21.9999 44C9.84898 44 0 34.1495 0 22.0001C0 9.85065 9.84913 0 21.9999 0Z" fill="#53C2BB"/>
<path fill-rule="evenodd" clip-rule="evenodd" d="M30.2512 15.1044C31.0927 15.3453 31.7553 16.0552 31.9802 16.9568C32.3889 18.5907 32.3889 21.9998 32.3889 21.9998C32.3889 21.9998 32.3889 25.4089 31.9802 27.0429C31.7553 27.9445 31.0927 28.6544 30.2512 28.8954C28.7263 29.3332 22.6111 29.3332 22.6111 29.3332C22.6111 29.3332 16.4959 29.3332 14.9709 28.8954C14.1295 28.6544 13.4668 27.9445 13.2419 27.0429C12.8333 25.4089 12.8333 21.9998 12.8333 21.9998C12.8333 21.9998 12.8333 18.5907 13.2419 16.9568C13.4668 16.0552 14.1295 15.3453 14.9709 15.1044C16.4959 14.6665 22.6111 14.6665 22.6111 14.6665C22.6111 14.6665 28.7263 14.6665 30.2512 15.1044ZM20.7778 19.1303V25.5071L25.6667 22.3188L20.7778 19.1303Z" fill="white"/>
</g>
<defs>
<clipPath id="clip0_1107_419">
<rect width="44" height="44" fill="white"/>
</clipPath>
</defs>
</svg>
